<svg width="170" height="55" viewBox="0 0 170 55" fill="none" xmlns="http://www.w3.org/2000/svg">
<rect y="1.875" width="170" height="53.0833" rx="26.5417" fill="#E9706E"/>
<path d="M34.8286 21.6C33.9486 24.13 32.4746 26.946 31.0226 28.706C31.6606 28.992 32.7826 29.608 33.3106 29.982C34.6746 28.068 36.2366 25.032 37.3146 22.238L34.8286 21.6ZM44.9926 22.59C46.4006 24.856 48.1386 27.958 48.9526 29.894L51.1966 28.574C50.3166 26.638 48.6006 23.756 47.1046 21.49L44.9926 22.59ZM46.2246 29.696C43.4966 34.162 37.9746 35.746 30.6266 36.362C31.1106 37.044 31.6166 38.1 31.8366 38.87C39.6686 37.968 45.4986 35.966 48.6226 30.752L46.2246 29.696ZM39.4706 18.388V32.072H42.0666V18.388H39.4706ZM66.5086 26.044C65.7606 28.398 64.7706 30.246 63.3626 31.676C62.0866 31.104 60.7446 30.532 59.4246 29.96C59.9526 28.794 60.5246 27.452 61.0526 26.044H66.5086ZM72.8886 26.044V23.228H70.1826C70.2706 22.744 70.3586 22.238 70.4466 21.732L67.6306 21.072C67.5206 21.842 67.3886 22.546 67.2566 23.228H62.0866C62.6366 21.688 63.0986 20.082 63.4506 18.608L60.6346 18.212C60.2386 19.818 59.6666 21.534 59.0506 23.228H53.3086V26.044H57.9506C57.1146 27.98 56.2566 29.762 55.4426 31.214C57.2906 31.94 59.1606 32.776 60.9646 33.634C58.9186 34.866 56.2786 35.702 52.9346 36.252C53.5506 36.934 54.1886 38.034 54.4966 38.804C58.5006 38.012 61.5586 36.846 63.9126 35.086C66.5966 36.45 68.9726 37.814 70.7106 38.936L72.7566 36.428C71.0406 35.438 68.7086 34.206 66.1126 32.974C67.6086 31.17 68.7086 28.926 69.5226 26.044H72.8886ZM80.1266 30.972H90.1366V31.632H80.1266V30.972ZM80.1266 28.992H90.1366V29.652H80.1266V28.992ZM93.7886 33.7H86.2646V32.996H92.5566V27.628H86.1986C86.3966 27.32 86.5946 26.968 86.8366 26.594L85.2306 26.286L85.2526 25.12C83.9766 25.208 82.7006 25.274 81.4466 25.362V24.702H84.6146V23.382H81.4466V22.744H85.0546V21.446H81.4466V20.764H84.4166V19.51H81.4466V18.388H79.0266V19.51H76.1886V20.764H79.0266V21.446H75.3526V22.744H79.0266V23.382H75.8586V24.702H79.0266V25.494C77.5966 25.56 76.2986 25.626 75.2426 25.67L75.3746 27.232C77.7506 27.1 81.0066 26.858 84.2186 26.616C84.1306 26.946 83.9986 27.298 83.8666 27.628H77.7946V32.996H83.6906V33.7H76.6286V38.54H79.1586V35.504H83.6906V38.914H86.2646V35.504H91.2146V36.384C91.2146 36.648 91.1266 36.714 90.8186 36.736C90.5326 36.736 89.4766 36.736 88.5306 36.692C88.8386 37.22 89.2126 37.968 89.3666 38.562C90.8186 38.562 91.9406 38.562 92.7326 38.276C93.5466 37.99 93.7886 37.484 93.7886 36.406V33.7ZM92.9086 20.126V18.388H90.5106V20.126H85.2086V22.018H87.4746L85.8906 22.832C86.5506 23.624 87.2986 24.702 87.6066 25.406L89.4106 24.438C89.0586 23.756 88.3106 22.766 87.6066 22.018H90.5106V25.054C90.5106 25.296 90.4446 25.384 90.1586 25.384C89.9166 25.384 89.0146 25.384 88.2446 25.362C88.5086 25.846 88.9046 26.638 89.0586 27.188C90.3786 27.188 91.2806 27.166 92.0066 26.88C92.7106 26.572 92.9086 26.132 92.9086 25.12V22.018H94.9766V20.126H92.9086ZM101.291 18.454C100.191 21.578 98.2766 24.702 96.2966 26.682C96.7366 27.32 97.4626 28.75 97.7046 29.41C98.1886 28.882 98.6946 28.288 99.1786 27.628V38.87H101.687V23.734C102.501 22.282 103.205 20.742 103.777 19.224L101.291 18.454ZM105.361 28.156C104.855 30.598 103.931 33.084 102.677 34.624C103.315 34.954 104.415 35.614 104.921 36.032C106.153 34.25 107.275 31.478 107.913 28.684L105.361 28.156ZM114.513 24.724C114.403 25.692 114.271 26.616 114.161 27.298L116.383 27.672C116.691 26.396 117.065 24.35 117.329 22.568L115.481 22.216L115.063 22.304H107.495C107.891 21.226 108.243 20.148 108.529 19.026L105.977 18.454C105.229 21.468 103.909 24.504 102.237 26.374C102.831 26.77 103.887 27.628 104.349 28.09C105.075 27.166 105.801 26 106.417 24.724H108.969V35.944C108.969 36.23 108.859 36.318 108.573 36.318C108.265 36.318 107.341 36.318 106.417 36.296C106.813 37 107.209 38.166 107.319 38.936C108.727 38.936 109.783 38.826 110.553 38.408C111.345 37.968 111.565 37.242 111.565 35.988V24.724H114.513ZM112.357 28.728C113.413 30.994 114.337 34.008 114.579 35.966L117.087 35.108C116.779 33.128 115.833 30.202 114.689 27.936L112.357 28.728ZM130.485 29.41H132.949V30.752H130.485V29.41ZM138.955 30.752H135.391V29.41H138.097V27.496H135.391V26.33H132.949V27.496H130.485V26.33H128.109V27.496H125.447V29.41H128.109V30.752H124.677V32.666H128.593C127.647 33.326 126.239 33.92 124.875 34.338C125.447 34.69 126.371 35.482 126.833 35.922C128.285 35.306 130.067 34.272 131.167 33.26L129.473 32.666H133.785L132.487 33.524C133.829 34.184 135.237 35.152 136.029 35.812L138.361 34.734C137.503 34.118 136.095 33.326 134.775 32.666H138.955V30.752ZM136.271 20.72V21.71H134.247V20.72H136.271ZM137.129 26.022C137.723 26.022 138.383 25.978 138.735 25.868C138.669 25.384 138.603 24.658 138.559 24.108C138.207 24.218 137.481 24.24 137.063 24.24H134.797C134.335 24.24 134.247 24.02 134.247 23.426V23.294H138.471V19.114H132.201V23.382C132.201 25.274 132.663 26.022 134.665 26.022H137.129ZM129.275 20.698V21.688H127.273V20.698H129.275ZM127.273 24.328V23.272H131.453V19.092H125.249V23.294C125.249 24.174 124.875 24.548 124.523 24.724C124.853 25.186 125.271 26.132 125.381 26.66C125.799 26.44 126.525 26.286 130.903 25.604C130.947 25.142 131.123 24.306 131.321 23.778L127.273 24.328ZM123.797 22.128C123.467 21.138 122.895 19.62 122.477 18.432L120.101 19.07C120.497 20.28 121.069 21.886 121.355 22.898L123.797 22.128ZM123.159 28.266L122.785 28.332H122.543C123.049 26.792 123.577 25.032 124.017 23.492H118.935V25.824H120.849C120.343 27.54 119.793 29.3 119.309 30.598H121.971C121.597 32.16 120.959 33.744 120.101 34.91C119.595 35.328 119.045 35.878 118.517 36.516L120.255 39.002C120.805 37.748 121.597 36.252 122.081 36.252C122.543 36.252 123.335 36.978 124.237 37.484C125.843 38.408 127.691 38.65 130.595 38.65C133.169 38.65 137.063 38.496 138.867 38.386C138.911 37.682 139.329 36.406 139.615 35.702C137.173 36.054 133.257 36.274 130.727 36.274C128.175 36.274 126.107 36.142 124.589 35.24C123.929 34.844 123.467 34.492 123.071 34.25C123.841 32.666 124.347 30.774 124.655 28.882L123.159 28.266Z" fill="#FEFFF9"/>
</svg>
