<svg width="115" height="44" viewBox="0 0 115 44" fill="none" xmlns="http://www.w3.org/2000/svg">
<path d="M35.9949 0.708984H9.57804C7.49676 0.708984 5.8042 2.40332 5.8042 4.48676V30.9312C5.8042 33.0147 7.49676 34.709 9.57804 34.709H35.9949C38.0762 34.709 39.7687 33.0147 39.7687 30.9312V4.48676C39.7687 2.40332 38.0762 0.708984 35.9949 0.708984ZM17.1257 15.8201V4.48676H28.4472V15.8201H17.1257ZM28.4472 19.5979V30.9312H17.1257V19.5979H28.4472ZM9.57804 4.48676H13.3519V8.26454H9.57804V4.48676ZM9.57804 12.0423H13.3519V15.8201H9.57804V12.0423ZM9.57804 19.5979H13.3519V23.3757H9.57804V19.5979ZM9.57804 27.1534H13.3519V30.9312H9.57804V27.1534ZM35.9987 30.9312H32.2211V27.1534H35.9987V30.9312V30.9312ZM35.9968 23.3757H32.2211V19.5979H35.9968V23.3757ZM35.9968 15.8201H32.2211V12.0423H35.9968V15.8201ZM32.2211 8.26454V4.48676H35.9949V8.26454H32.2211Z" fill="#E9706E"/>
<path d="M72.0202 4.14898C70.3562 6.67698 67.1882 9.26898 64.5002 10.709C65.4602 11.413 66.5802 12.565 67.1882 13.365C70.2282 11.477 73.4282 8.69298 75.6042 5.62098L72.0202 4.14898ZM72.8202 12.789C71.0282 15.509 67.5082 18.197 64.5962 19.797C65.5562 20.501 66.6122 21.589 67.2202 22.453C70.4842 20.469 73.9402 17.493 76.3082 14.261L72.8202 12.789ZM52.5642 10.389H60.5322V11.605H52.5642V10.389ZM52.5642 7.02898H60.5322V8.21298H52.5642V7.02898ZM65.4282 15.381H58.7722C58.5802 14.869 58.2922 14.357 58.0362 13.909H64.3082V4.72498H48.9482V13.909H56.7562L54.2602 14.421C54.4202 14.709 54.5482 15.029 54.7082 15.381H47.5082V18.261H65.4282V15.381ZM50.3882 26.069C49.7162 27.637 48.6282 29.365 47.4762 30.549C48.2122 30.997 49.5242 31.989 50.1002 32.533C51.2842 31.157 52.6922 28.949 53.5562 27.029L50.3882 26.069ZM52.9802 21.813H60.1482V23.477H52.9802V21.813ZM63.8602 25.941V19.349H49.4602V25.941H54.6122V30.037C54.6122 30.325 54.5162 30.421 54.1962 30.421C53.8762 30.421 52.8842 30.421 51.9242 30.389C52.3722 31.253 52.8202 32.469 52.9802 33.429C54.6762 33.429 56.0202 33.397 57.0122 32.949C58.1002 32.469 58.3242 31.701 58.3242 30.133V25.941H63.8602ZM73.3962 21.749C71.4442 25.365 67.7322 28.437 63.9562 30.229C63.3482 28.981 62.3562 27.285 61.5562 26.037L58.8682 27.157C59.8922 28.821 61.0122 31.029 61.4922 32.373L64.3082 31.029C64.2122 30.805 64.1162 30.581 64.0202 30.325C64.9482 31.125 65.9722 32.309 66.5482 33.237C70.7402 30.901 74.5162 27.349 76.9162 23.061L73.3962 21.749ZM94.9962 10.965H88.5322V9.62098H94.9962V10.965ZM94.9962 14.709H88.5322V13.429H94.9962V14.709ZM94.9962 18.581H88.5322V17.173H94.9962V18.581ZM84.7562 22.325H88.5322V21.461H109.172V18.581H98.6442V17.173H106.996V14.709H98.6442V13.429H106.964V10.965H98.6442V9.62098H108.404V6.70898H99.3162C98.9322 5.65298 98.3562 4.40498 97.7802 3.41298L94.1962 4.40498C94.5482 5.10898 94.9002 5.90898 95.1882 6.70898H90.2602C90.8042 5.90898 91.3162 5.10898 91.7962 4.30898L87.9242 3.57298C86.4842 6.32498 83.8922 9.62098 80.3402 12.149C81.2042 12.629 82.4202 13.845 83.0282 14.645C83.6042 14.165 84.1802 13.685 84.7562 13.173V22.325ZM89.7482 27.029C87.7642 28.213 83.9562 29.269 80.6922 29.717C81.4602 30.421 82.5162 31.765 83.0602 32.629C86.4202 31.861 90.3242 30.165 92.5962 28.341L89.7482 27.029ZM109.972 26.421V23.381H97.4282V21.749H93.6522V23.381H81.2362V26.421H93.6522V33.429H97.4282V26.421H109.972ZM98.5802 28.949C101.524 30.037 105.652 31.701 107.7 32.693L110.036 30.197C107.828 29.173 103.604 27.669 100.788 26.741L98.5802 28.949Z" fill="#E9706E"/>
<line x1="2.5542" y1="41.959" x2="113.054" y2="41.959" stroke="#E9706E" stroke-width="3.5" stroke-linecap="round"/>
</svg>
