<svg width="195" height="44" viewBox="0 0 195 44" fill="none" xmlns="http://www.w3.org/2000/svg">
<path d="M24.199 11.2178L17.6484 17.7751L24.199 24.3325L30.7495 17.7751L24.199 11.2178Z" fill="#E9706E"/>
<path fill-rule="evenodd" clip-rule="evenodd" d="M10.3042 5.41175C10.3042 4.18211 10.7922 3.00284 11.6607 2.13335C12.5293 1.26386 13.7074 0.775391 14.9357 0.775391H33.4618C34.6902 0.775391 35.8682 1.26386 36.7368 2.13335C37.6054 3.00284 38.0934 4.18211 38.0934 5.41175V30.139C38.0934 31.3687 37.6054 32.5479 36.7368 33.4174C35.8682 34.2869 34.6902 34.7754 33.4618 34.7754H14.9357C13.7074 34.7754 12.5293 34.2869 11.6607 33.4174C10.7922 32.5479 10.3042 31.3687 10.3042 30.139V5.41175ZM14.9357 3.8663H33.4618C33.8713 3.8663 34.264 4.02912 34.5535 4.31895C34.843 4.60878 35.0057 5.00187 35.0057 5.41175V30.139C35.0057 30.5489 34.843 30.942 34.5535 31.2318C34.264 31.5217 33.8713 31.6845 33.4618 31.6845H14.9357C14.5263 31.6845 14.1336 31.5217 13.8441 31.2318C13.5545 30.942 13.3919 30.5489 13.3919 30.139V5.41175C13.3919 5.00187 13.5545 4.60878 13.8441 4.31895C14.1336 4.02912 14.5263 3.8663 14.9357 3.8663Z" fill="#E9706E"/>
<path d="M56.5522 3.79939C54.9522 8.34339 52.1682 12.8874 49.2882 15.7674C49.9282 16.6954 50.9842 18.7754 51.3362 19.7354C52.0402 18.9674 52.7762 18.1034 53.4802 17.1434V33.4954H57.1282V11.4794C58.3122 9.36739 59.3362 7.12739 60.1682 4.91939L56.5522 3.79939ZM62.4722 17.9114C61.7362 21.4634 60.3922 25.0794 58.5682 27.3194C59.4962 27.7994 61.0962 28.7594 61.8322 29.3674C63.6242 26.7754 65.2562 22.7434 66.1842 18.6794L62.4722 17.9114ZM75.7842 12.9194C75.6242 14.3274 75.4322 15.6714 75.2722 16.6634L78.5042 17.2074C78.9522 15.3514 79.4962 12.3754 79.8802 9.78339L77.1922 9.27139L76.5842 9.39939H65.5762C66.1522 7.83139 66.6642 6.26339 67.0802 4.63139L63.3682 3.79939C62.2802 8.18339 60.3602 12.5994 57.9282 15.3194C58.7922 15.8954 60.3282 17.1434 61.0002 17.8154C62.0562 16.4714 63.1122 14.7754 64.0082 12.9194H67.7202V29.2394C67.7202 29.6554 67.5602 29.7834 67.1442 29.7834C66.6962 29.7834 65.3522 29.7834 64.0082 29.7514C64.5842 30.7754 65.1602 32.4714 65.3202 33.5914C67.3682 33.5914 68.9042 33.4314 70.0242 32.8234C71.1762 32.1834 71.4962 31.1274 71.4962 29.3034V12.9194H75.7842ZM72.6482 18.7434C74.1842 22.0394 75.5282 26.4234 75.8802 29.2714L79.5282 28.0234C79.0802 25.1434 77.7042 20.8874 76.0402 17.5914L72.6482 18.7434ZM88.3922 26.9034V20.6314H93.4802V26.9034H88.3922ZM93.4802 17.3354H88.3922V12.1514H93.4802V17.3354ZM103.624 8.59939C104.104 7.25539 104.552 5.91139 104.872 4.53539L101.256 3.70339C100.328 7.44739 98.7922 11.3194 96.9362 14.0074V8.82339H91.9762C92.5202 7.44739 93.0962 5.84739 93.6402 4.24739L89.4802 3.67139C89.3522 5.17539 88.9682 7.22339 88.5522 8.82339H84.9362V32.5994H88.3922V30.2634H96.9362V15.3194C97.8002 15.8954 98.8882 16.6314 99.4002 17.1114C100.392 15.7354 101.384 13.9754 102.216 12.0554H109.064C108.712 23.3514 108.296 28.1514 107.368 29.1754C106.952 29.5914 106.6 29.7194 105.96 29.7194C105.128 29.7194 103.24 29.7194 101.192 29.5274C101.864 30.5834 102.376 32.1834 102.44 33.2394C104.328 33.3034 106.248 33.3354 107.464 33.1754C108.744 32.9514 109.64 32.5994 110.536 31.4154C111.848 29.7194 112.2 24.6314 112.616 10.3274C112.648 9.87939 112.648 8.59939 112.648 8.59939H103.624ZM107.336 23.1914C106.344 21.3354 104.232 18.2954 102.632 16.0874L99.6562 17.7834C101.224 20.1194 103.208 23.2554 104.104 25.1754L107.336 23.1914ZM123.4 7.86339H118.888V9.75139H131.24V7.86339H126.824V6.93539H132.072V5.01539H126.824V3.63939H123.4V5.01539H117.96V6.93539H123.4V7.86339ZM126.088 28.5674V27.4794H138.12V28.5674H126.088ZM138.12 20.7914V21.8794H126.088V20.7914H138.12ZM133.8 18.1674C135.656 17.8154 137.32 17.3354 138.856 16.6954C140.36 17.3674 142.088 17.8474 144.04 18.1674H133.8ZM140.712 12.2154C140.136 12.8234 139.464 13.3354 138.664 13.7514C137.832 13.3354 137.128 12.8234 136.616 12.2154H140.712ZM139.912 6.87139V7.03139C139.912 9.11139 140.296 10.1674 142.632 10.1674H142.728L142.536 10.1994H135.112C136.392 9.23939 136.904 8.08739 137.064 6.87139H139.912ZM126.088 24.1194H138.12V25.2394H126.088V24.1194ZM123.816 12.4074V14.0394H122.024C122.056 13.5274 122.088 13.0474 122.088 12.5994V12.4074H123.816ZM128.36 14.0394H126.472V12.4074H128.36V14.0394ZM141.896 20.7914H145.48V18.1674H144.744C145.128 17.3994 145.864 16.3434 146.472 15.7354C144.776 15.6074 143.208 15.3514 141.832 14.9674C143.24 13.9114 144.36 12.5354 145.064 10.8074L143.304 10.1674H144.616C145.224 10.1674 145.992 10.1354 146.376 9.97539C146.28 9.20739 146.248 8.47139 146.184 7.70339C145.8 7.83139 144.936 7.89539 144.552 7.89539H143.464C142.984 7.89539 142.952 7.60739 142.952 7.03139V4.40739H134.216V5.97539C134.216 7.06339 133.864 8.05539 131.432 8.88739C131.784 9.11139 132.328 9.68739 132.776 10.1994V12.2154H134.6L133.576 12.5034C134.184 13.4314 134.952 14.2314 135.848 14.9354C134.504 15.3194 133 15.6074 131.464 15.7674C131.976 16.3754 132.552 17.3994 132.84 18.1674H120.52C121.064 17.4634 121.416 16.6954 121.672 15.8634H131.272V10.5834H119.208V12.5354C119.208 13.9434 118.984 15.7674 117.352 17.2394C117.736 17.4314 118.408 17.8154 118.984 18.1674H118.824V20.7914H122.408V28.5674H117.864V31.1914H138.12V33.5914H141.896V31.1914H146.248V28.5674H141.896V20.7914ZM175.72 4.21539C174.056 6.74339 170.888 9.33539 168.2 10.7754C169.16 11.4794 170.28 12.6314 170.888 13.4314C173.928 11.5434 177.128 8.75939 179.304 5.68739L175.72 4.21539ZM176.52 12.8554C174.728 15.5754 171.208 18.2634 168.296 19.8634C169.256 20.5674 170.312 21.6554 170.92 22.5194C174.184 20.5354 177.64 17.5594 180.008 14.3274L176.52 12.8554ZM156.264 10.4554H164.232V11.6714H156.264V10.4554ZM156.264 7.09539H164.232V8.27939H156.264V7.09539ZM169.128 15.4474H162.472C162.28 14.9354 161.992 14.4234 161.736 13.9754H168.008V4.79139H152.648V13.9754H160.456L157.96 14.4874C158.12 14.7754 158.248 15.0954 158.408 15.4474H151.208V18.3274H169.128V15.4474ZM154.088 26.1354C153.416 27.7034 152.328 29.4314 151.176 30.6154C151.912 31.0634 153.224 32.0554 153.8 32.5994C154.984 31.2234 156.392 29.0154 157.256 27.0954L154.088 26.1354ZM156.68 21.8794H163.848V23.5434H156.68V21.8794ZM167.56 26.0074V19.4154H153.16V26.0074H158.312V30.1034C158.312 30.3914 158.216 30.4874 157.896 30.4874C157.576 30.4874 156.584 30.4874 155.624 30.4554C156.072 31.3194 156.52 32.5354 156.68 33.4954C158.376 33.4954 159.72 33.4634 160.712 33.0154C161.8 32.5354 162.024 31.7674 162.024 30.1994V26.0074H167.56ZM177.096 21.8154C175.144 25.4314 171.432 28.5034 167.656 30.2954C167.048 29.0474 166.056 27.3514 165.256 26.1034L162.568 27.2234C163.592 28.8874 164.712 31.0954 165.192 32.4394L168.008 31.0954C167.912 30.8714 167.816 30.6474 167.72 30.3914C168.648 31.1914 169.672 32.3754 170.248 33.3034C174.44 30.9674 178.216 27.4154 180.616 23.1274L177.096 21.8154Z" fill="#E9706E"/>
<line x1="2.0542" y1="42.0254" x2="192.554" y2="42.0254" stroke="#E9706E" stroke-width="3.5" stroke-linecap="round"/>
</svg>
