<svg width="68" height="13" viewBox="0 0 68 13" fill="none" xmlns="http://www.w3.org/2000/svg">
<path opacity="0.35" d="M45.758 1.26855H62.4246C63.6213 1.26855 64.5913 2.2386 64.5913 3.43522V9.43522C64.5913 10.6318 63.6213 11.6019 62.4246 11.6019H45.758C44.5614 11.6019 43.5913 10.6318 43.5913 9.43522V3.43522C43.5913 2.2386 44.5614 1.26855 45.758 1.26855Z" fill="#827C7C" stroke="#5B5B5B"/>
<path opacity="0.4" d="M66.0913 4.43555V8.43555C66.896 8.09677 67.4193 7.30868 67.4193 6.43555C67.4193 5.56241 66.896 4.77432 66.0913 4.43555" fill="#827C7C"/>
<path d="M45.0913 4.10189C45.0913 3.36551 45.6883 2.76855 46.4246 2.76855H61.758C62.4944 2.76855 63.0913 3.36551 63.0913 4.10189V8.76855C63.0913 9.50493 62.4944 10.1019 61.758 10.1019H46.4246C45.6883 10.1019 45.0913 9.50493 45.0913 8.76855V4.10189Z" fill="#827C7C"/>
<path fill-rule="evenodd" clip-rule="evenodd" d="M30.4218 3.04295C32.6377 3.04305 34.7688 3.89449 36.3748 5.42129C36.4957 5.53916 36.689 5.53767 36.8081 5.41795L37.9641 4.25129C38.0244 4.19056 38.058 4.10831 38.0575 4.02273C38.057 3.93715 38.0224 3.8553 37.9614 3.79529C33.7463 -0.244262 27.0965 -0.244262 22.8814 3.79529C22.8204 3.85525 22.7857 3.93708 22.7852 4.02266C22.7846 4.10824 22.8182 4.19052 22.8784 4.25129L24.0348 5.41795C24.1538 5.53785 24.3472 5.53934 24.4681 5.42129C26.0742 3.89439 28.2057 3.04295 30.4218 3.04295ZM30.4218 6.83862C31.6393 6.83854 32.8133 7.29108 33.7158 8.10828C33.8378 8.22427 34.0301 8.22175 34.1491 8.10262L35.3038 6.93595C35.3646 6.87476 35.3983 6.79174 35.3974 6.70548C35.3966 6.61921 35.3611 6.5369 35.2991 6.47695C32.5509 3.92057 28.295 3.92057 25.5468 6.47695C25.4847 6.5369 25.4493 6.61925 25.4485 6.70554C25.4476 6.79184 25.4815 6.87485 25.5424 6.93595L26.6968 8.10262C26.8158 8.22175 27.008 8.22427 27.1301 8.10828C28.032 7.29162 29.2051 6.83912 30.4218 6.83862ZM32.7348 9.39244C32.7365 9.47894 32.7025 9.56235 32.6408 9.62295L30.6434 11.6386C30.5849 11.6979 30.5051 11.7312 30.4218 11.7312C30.3385 11.7312 30.2586 11.6979 30.2001 11.6386L28.2024 9.62295C28.1407 9.5623 28.1068 9.47887 28.1086 9.39236C28.1104 9.30586 28.1479 9.22394 28.2121 9.16595C29.4877 8.08707 31.3559 8.08707 32.6314 9.16595C32.6956 9.22399 32.733 9.30593 32.7348 9.39244Z" fill="#827C7C"/>
<path fill-rule="evenodd" clip-rule="evenodd" d="M16.7581 1.10156H15.7581C15.2058 1.10156 14.7581 1.54928 14.7581 2.10156V10.7682C14.7581 11.3205 15.2058 11.7682 15.7581 11.7682H16.7581C17.3103 11.7682 17.7581 11.3205 17.7581 10.7682V2.10156C17.7581 1.54928 17.3103 1.10156 16.7581 1.10156ZM11.0914 3.4349H12.0914C12.6437 3.4349 13.0914 3.88261 13.0914 4.4349V10.7682C13.0914 11.3205 12.6437 11.7682 12.0914 11.7682H11.0914C10.5391 11.7682 10.0914 11.3205 10.0914 10.7682V4.4349C10.0914 3.88261 10.5391 3.4349 11.0914 3.4349ZM7.42472 5.76823H6.42472C5.87244 5.76823 5.42472 6.21594 5.42472 6.76823V10.7682C5.42472 11.3205 5.87244 11.7682 6.42472 11.7682H7.42472C7.97701 11.7682 8.42472 11.3205 8.42472 10.7682V6.76823C8.42472 6.21594 7.97701 5.76823 7.42472 5.76823ZM2.75806 7.76823H1.75806C1.20577 7.76823 0.758057 8.21594 0.758057 8.76823V10.7682C0.758057 11.3205 1.20577 11.7682 1.75806 11.7682H2.75806C3.31034 11.7682 3.75806 11.3205 3.75806 10.7682V8.76823C3.75806 8.21594 3.31034 7.76823 2.75806 7.76823Z" fill="#827C7C"/>
</svg>
