<svg width="115" height="44" viewBox="0 0 115 44" fill="none" xmlns="http://www.w3.org/2000/svg">
<path d="M34.0504 16.0457C34.0504 14.2342 32.8499 12.7193 31.2593 12.3548C31.8948 11.2196 32.285 9.90679 32.285 8.49013C32.285 4.32324 29.1179 0.93457 25.2234 0.93457C22.5453 0.93457 20.2433 2.55335 19.0446 4.90879C17.8459 2.55335 15.5438 0.93457 12.8657 0.93457C8.9713 0.93457 5.8042 4.32324 5.8042 8.49013C5.8042 10.1939 6.355 11.7522 7.24652 13.0159C6.80091 13.3645 6.43819 13.8204 6.18764 14.3467C5.93709 14.8731 5.80574 15.455 5.8042 16.0457V31.1568C5.8042 33.2402 7.38775 34.9346 9.33497 34.9346H30.5196C32.4668 34.9346 34.0504 33.2402 34.0504 31.1568V26.1739L41.1119 29.9517V16.7295L34.0504 20.5072V16.0457ZM25.2234 4.71235C27.1706 4.71235 28.7542 6.40668 28.7542 8.49013C28.7542 10.5736 27.1706 12.2679 25.2234 12.2679C23.2762 12.2679 21.6927 10.5736 21.6927 8.49013C21.6927 6.40668 23.2762 4.71235 25.2234 4.71235ZM12.8657 4.71235C14.813 4.71235 16.3965 6.40668 16.3965 8.49013C16.3965 10.5736 14.813 12.2679 12.8657 12.2679C10.9185 12.2679 9.33497 10.5736 9.33497 8.49013C9.33497 6.40668 10.9185 4.71235 12.8657 4.71235ZM9.33497 31.1568V16.0457H30.5196L30.5231 31.1568H9.33497Z" fill="#E9706E"/>
<path d="M52.3082 18.3266C54.3242 17.8786 56.6922 17.3346 59.0922 16.7906L58.9642 14.6146C56.2122 15.0306 53.5242 15.4146 51.5722 15.6386V11.2546H53.3002L52.4042 13.0466C54.2282 13.4306 56.6282 14.1026 57.9082 14.6146L58.9322 12.5666C57.7162 12.1186 55.6682 11.5746 53.9402 11.2546H60.0522V17.9106H63.7642V11.2546H69.2362C67.8922 11.7666 66.1002 12.3426 64.8522 12.6306L66.0362 14.4226C67.7002 14.1026 70.0362 13.5906 71.7322 12.8866L70.5802 11.2546H72.3082V15.8306C70.5482 15.2546 67.3802 14.5826 65.1082 14.3266L64.3722 16.4706C66.7722 16.8546 70.0682 17.6546 71.7642 18.2626L72.4362 15.9586H76.1162V8.75857H63.7642V7.47857H74.4842V4.98257H49.3962V7.47857H60.0522V8.75857H47.9562V15.9586H51.4442L52.3082 18.3266ZM54.5482 26.3906V24.9506H59.8602V26.3906H54.5482ZM59.8602 21.2706V22.7106H54.5482V21.2706H59.8602ZM69.3002 22.7106H63.5082V21.2706H69.3002V22.7106ZM63.5082 26.3906V24.9506H69.3002V26.3906H63.5082ZM65.8122 30.3906C63.8922 30.3906 63.5082 30.1986 63.5082 29.0466V28.9506H73.0762V18.7106H50.9002V30.3266H54.5482V28.9506H59.8602V29.0466C59.8602 32.3746 61.1082 33.2706 65.4602 33.2706H72.1802C75.6682 33.2706 76.7242 32.2466 77.1722 28.4066C76.1802 28.2146 74.7402 27.7346 74.0042 27.2226C73.7802 29.9106 73.4922 30.3906 71.8602 30.3906H65.8122ZM105.62 4.37457C103.956 6.90257 100.788 9.49457 98.1002 10.9346C99.0602 11.6386 100.18 12.7906 100.788 13.5906C103.828 11.7026 107.028 8.91857 109.204 5.84657L105.62 4.37457ZM106.42 13.0146C104.628 15.7346 101.108 18.4226 98.1962 20.0226C99.1562 20.7266 100.212 21.8146 100.82 22.6786C104.084 20.6946 107.54 17.7186 109.908 14.4866L106.42 13.0146ZM86.1642 10.6146H94.1322V11.8306H86.1642V10.6146ZM86.1642 7.25457H94.1322V8.43857H86.1642V7.25457ZM99.0282 15.6066H92.3722C92.1802 15.0946 91.8922 14.5826 91.6362 14.1346H97.9082V4.95057H82.5482V14.1346H90.3562L87.8602 14.6466C88.0202 14.9346 88.1482 15.2546 88.3082 15.6066H81.1082V18.4866H99.0282V15.6066ZM83.9882 26.2946C83.3162 27.8626 82.2282 29.5906 81.0762 30.7746C81.8122 31.2226 83.1242 32.2146 83.7002 32.7586C84.8842 31.3826 86.2922 29.1746 87.1562 27.2546L83.9882 26.2946ZM86.5802 22.0386H93.7482V23.7026H86.5802V22.0386ZM97.4602 26.1666V19.5746H83.0602V26.1666H88.2122V30.2626C88.2122 30.5506 88.1162 30.6466 87.7962 30.6466C87.4762 30.6466 86.4842 30.6466 85.5242 30.6146C85.9722 31.4786 86.4202 32.6946 86.5802 33.6546C88.2762 33.6546 89.6202 33.6226 90.6122 33.1746C91.7002 32.6946 91.9242 31.9266 91.9242 30.3586V26.1666H97.4602ZM106.996 21.9746C105.044 25.5906 101.332 28.6626 97.5562 30.4546C96.9482 29.2066 95.9562 27.5106 95.1562 26.2626L92.4682 27.3826C93.4922 29.0466 94.6122 31.2546 95.0922 32.5986L97.9082 31.2546C97.8122 31.0306 97.7162 30.8066 97.6202 30.5506C98.5482 31.3506 99.5722 32.5346 100.148 33.4626C104.34 31.1266 108.116 27.5746 110.516 23.2866L106.996 21.9746Z" fill="#E9706E"/>
<line x1="2.5542" y1="42.1846" x2="113.054" y2="42.1846" stroke="#E9706E" stroke-width="3.5" stroke-linecap="round"/>
</svg>
