<svg width="91" height="22" viewBox="0 0 91 22" fill="none" xmlns="http://www.w3.org/2000/svg">
<path d="M5.48017 0.97646C4.38017 4.10046 2.46617 7.22446 0.486168 9.20446C0.926168 9.84246 1.65217 11.2725 1.89417 11.9325C2.37817 11.4045 2.88417 10.8105 3.36817 10.1505V21.3925H5.87617V6.25646C6.69017 4.80446 7.39417 3.26446 7.96617 1.74646L5.48017 0.97646ZM9.55017 10.6785C9.04417 13.1205 8.12017 15.6065 6.86617 17.1465C7.50417 17.4765 8.60417 18.1365 9.11017 18.5545C10.3422 16.7725 11.4642 14.0005 12.1022 11.2065L9.55017 10.6785ZM18.7022 7.24646C18.5922 8.21446 18.4602 9.13846 18.3502 9.82046L20.5722 10.1945C20.8802 8.91846 21.2542 6.87246 21.5182 5.09046L19.6702 4.73846L19.2522 4.82646H11.6842C12.0802 3.74846 12.4322 2.67046 12.7182 1.54846L10.1662 0.97646C9.41817 3.99046 8.09817 7.02646 6.42617 8.89646C7.02017 9.29246 8.07617 10.1505 8.53817 10.6125C9.26417 9.68846 9.99017 8.52246 10.6062 7.24646H13.1582V18.4665C13.1582 18.7525 13.0482 18.8405 12.7622 18.8405C12.4542 18.8405 11.5302 18.8405 10.6062 18.8185C11.0022 19.5225 11.3982 20.6885 11.5082 21.4585C12.9162 21.4585 13.9722 21.3485 14.7422 20.9305C15.5342 20.4905 15.7542 19.7645 15.7542 18.5105V7.24646H18.7022ZM16.5462 11.2505C17.6022 13.5165 18.5262 16.5305 18.7682 18.4885L21.2762 17.6305C20.9682 15.6505 20.0222 12.7245 18.8782 10.4585L16.5462 11.2505ZM27.3702 16.8605V12.5485H30.8682V16.8605H27.3702ZM30.8682 10.2825H27.3702V6.71846H30.8682V10.2825ZM37.8422 4.27646C38.1722 3.35246 38.4802 2.42846 38.7002 1.48246L36.2142 0.910461C35.5762 3.48446 34.5202 6.14646 33.2442 7.99446V4.43046H29.8342C30.2082 3.48446 30.6042 2.38446 30.9782 1.28446L28.1182 0.88846C28.0302 1.92246 27.7662 3.33046 27.4802 4.43046H24.9942V20.7765H27.3702V19.1705H33.2442V8.89646C33.8382 9.29246 34.5862 9.79846 34.9382 10.1285C35.6202 9.18246 36.3022 7.97246 36.8742 6.65246H41.5822C41.3402 14.4185 41.0542 17.7185 40.4162 18.4225C40.1302 18.7085 39.8882 18.7965 39.4482 18.7965C38.8762 18.7965 37.5782 18.7965 36.1702 18.6645C36.6322 19.3905 36.9842 20.4905 37.0282 21.2165C38.3262 21.2605 39.6462 21.2825 40.4822 21.1725C41.3622 21.0185 41.9782 20.7765 42.5942 19.9625C43.4962 18.7965 43.7382 15.2985 44.0242 5.46446C44.0462 5.15646 44.0462 4.27646 44.0462 4.27646H37.8422ZM40.3942 14.3085C39.7122 13.0325 38.2602 10.9425 37.1602 9.42446L35.1142 10.5905C36.1922 12.1965 37.5562 14.3525 38.1722 15.6725L40.3942 14.3085ZM51.4382 3.77046H48.3362V5.06846H56.8282V3.77046H53.7922V3.13246H57.4002V1.81246H53.7922V0.86646H51.4382V1.81246H47.6982V3.13246H51.4382V3.77046ZM53.2862 18.0045V17.2565H61.5582V18.0045H53.2862ZM61.5582 12.6585V13.4065H53.2862V12.6585H61.5582ZM58.5882 10.8545C59.8642 10.6125 61.0082 10.2825 62.0642 9.84246C63.0982 10.3045 64.2862 10.6345 65.6282 10.8545H58.5882ZM63.3402 6.76246C62.9442 7.18046 62.4822 7.53246 61.9322 7.81846C61.3602 7.53246 60.8762 7.18046 60.5242 6.76246H63.3402ZM62.7902 3.08846V3.19846C62.7902 4.62846 63.0542 5.35446 64.6602 5.35446H64.7262L64.5942 5.37646H59.4902C60.3702 4.71646 60.7222 3.92446 60.8322 3.08846H62.7902ZM53.2862 14.9465H61.5582V15.7165H53.2862V14.9465ZM51.7242 6.89446V8.01646H50.4922C50.5142 7.66446 50.5362 7.33446 50.5362 7.02646V6.89446H51.7242ZM54.8482 8.01646H53.5502V6.89446H54.8482V8.01646ZM64.1542 12.6585H66.6182V10.8545H66.1122C66.3762 10.3265 66.8822 9.60046 67.3002 9.18246C66.1342 9.09446 65.0562 8.91846 64.1102 8.65446C65.0782 7.92846 65.8482 6.98246 66.3322 5.79446L65.1222 5.35446H66.0242C66.4422 5.35446 66.9702 5.33246 67.2342 5.22246C67.1682 4.69446 67.1462 4.18846 67.1022 3.66046C66.8382 3.74846 66.2442 3.79246 65.9802 3.79246H65.2322C64.9022 3.79246 64.8802 3.59446 64.8802 3.19846V1.39446H58.8742V2.47246C58.8742 3.22046 58.6322 3.90246 56.9602 4.47446C57.2022 4.62846 57.5762 5.02446 57.8842 5.37646V6.76246H59.1382L58.4342 6.96046C58.8522 7.59846 59.3802 8.14846 59.9962 8.63246C59.0722 8.89646 58.0382 9.09446 56.9822 9.20446C57.3342 9.62246 57.7302 10.3265 57.9282 10.8545H49.4582C49.8322 10.3705 50.0742 9.84246 50.2502 9.27046H56.8502V5.64046H48.5562V6.98246C48.5562 7.95046 48.4022 9.20446 47.2802 10.2165C47.5442 10.3485 48.0062 10.6125 48.4022 10.8545H48.2922V12.6585H50.7562V18.0045H47.6322V19.8085H61.5582V21.4585H64.1542V19.8085H67.1462V18.0045H64.1542V12.6585ZM87.4082 1.26246C86.2642 3.00046 84.0862 4.78246 82.2382 5.77246C82.8982 6.25646 83.6682 7.04846 84.0862 7.59846C86.1762 6.30046 88.3762 4.38646 89.8722 2.27446L87.4082 1.26246ZM87.9582 7.20246C86.7262 9.07246 84.3062 10.9205 82.3042 12.0205C82.9642 12.5045 83.6902 13.2525 84.1082 13.8465C86.3522 12.4825 88.7282 10.4365 90.3562 8.21446L87.9582 7.20246ZM74.0322 5.55246H79.5102V6.38846H74.0322V5.55246ZM74.0322 3.24246H79.5102V4.05646H74.0322V3.24246ZM82.8762 8.98446H78.3002C78.1682 8.63246 77.9702 8.28046 77.7942 7.97246H82.1062V1.65846H71.5462V7.97246H76.9142L75.1982 8.32446C75.3082 8.52246 75.3962 8.74246 75.5062 8.98446H70.5562V10.9645H82.8762V8.98446ZM72.5362 16.3325C72.0742 17.4105 71.3262 18.5985 70.5342 19.4125C71.0402 19.7205 71.9422 20.4025 72.3382 20.7765C73.1522 19.8305 74.1202 18.3125 74.7142 16.9925L72.5362 16.3325ZM74.3182 13.4065H79.2462V14.5505H74.3182V13.4065ZM81.7982 16.2445V11.7125H71.8982V16.2445H75.4402V19.0605C75.4402 19.2585 75.3742 19.3245 75.1542 19.3245C74.9342 19.3245 74.2522 19.3245 73.5922 19.3025C73.9002 19.8965 74.2082 20.7325 74.3182 21.3925C75.4842 21.3925 76.4082 21.3705 77.0902 21.0625C77.8382 20.7325 77.9922 20.2045 77.9922 19.1265V16.2445H81.7982ZM88.3542 13.3625C87.0122 15.8485 84.4602 17.9605 81.8642 19.1925C81.4462 18.3345 80.7642 17.1685 80.2142 16.3105L78.3662 17.0805C79.0702 18.2245 79.8402 19.7425 80.1702 20.6665L82.1062 19.7425C82.0402 19.5885 81.9742 19.4345 81.9082 19.2585C82.5462 19.8085 83.2502 20.6225 83.6462 21.2605C86.5282 19.6545 89.1242 17.2125 90.7742 14.2645L88.3542 13.3625Z" fill="#E9706E"/>
</svg>
