<svg width="181" height="47" viewBox="0 0 181 47" fill="none" xmlns="http://www.w3.org/2000/svg">
<path d="M57.9703 14.3638H53.9803V16.4038H65.7403V14.3638H61.8703V13.7638H66.5203V11.6938H61.8703V10.5238H57.9703V11.6938H53.1403V13.7638H57.9703V14.3638ZM69.3703 24.1138C70.6303 23.8438 71.8003 23.5138 72.8503 23.0938C73.9303 23.5138 75.0703 23.8738 76.3603 24.1138H69.3703ZM71.6803 27.7438H61.4203V27.0538H71.6803V27.7438ZM61.4203 34.0138V33.3538H71.6803V34.0138H61.4203ZM71.6803 30.8938H61.4203V30.2038H71.6803V30.8938ZM74.1103 18.8038C73.6903 19.1938 73.1803 19.5538 72.6103 19.8538C72.0403 19.5538 71.5303 19.1938 71.1403 18.8038H74.1103ZM73.5703 13.8538C73.6303 15.3238 73.9603 16.2538 75.2203 16.5838H70.0003C70.9303 15.7738 71.3803 14.8438 71.5603 13.8538H73.5703ZM58.4803 18.9838V20.1538H57.4303C57.4603 19.7638 57.4603 19.4038 57.4603 19.0438V18.9838H58.4803ZM62.5903 20.1538H61.4503V18.9838H62.5903V20.1538ZM77.5903 16.7338H78.2803C78.8803 16.7338 79.6603 16.7038 80.0803 16.5238C79.9603 15.6838 79.9303 14.8438 79.8703 13.9738C79.4803 14.1238 78.6103 14.1838 78.1903 14.1838H77.5003C77.0503 14.1838 77.0203 13.8838 77.0203 13.3738V11.0938H68.4103V12.5938C68.4103 13.6138 68.1103 14.4538 65.7703 15.2338C66.1303 15.4738 66.6703 16.0438 67.1503 16.5838H67.1203V18.8038H69.5503L67.8403 19.2538C68.2903 19.9138 68.8303 20.4838 69.4303 21.0238C68.3503 21.2938 67.1803 21.4738 65.9203 21.5938C66.4603 22.1938 67.0603 23.2738 67.4203 24.1138H56.1403C56.5603 23.5138 56.8603 22.8238 57.0703 22.1338H65.8903V17.0038H54.2203V18.9538C54.2203 20.2438 54.0403 21.8338 52.4803 23.1538C52.9303 23.3338 53.6203 23.7238 54.2803 24.1138H53.9203V27.0538H57.1903V34.0138H53.0803V36.9538H71.6803V39.0238H76.0003V36.9538H79.9603V34.0138H76.0003V27.0538H79.1803V24.1138H78.4003C78.8503 23.2738 79.6303 22.1638 80.2603 21.5638C78.8503 21.4738 77.5303 21.3238 76.3303 21.0838C77.5003 20.0638 78.4303 18.8338 79.0903 17.2438L77.5903 16.7338ZM89.5603 17.2438H96.1603V17.9638H89.5603V17.2438ZM89.5603 14.1238H96.1603V14.8438H89.5603V14.1238ZM101.5 21.5638H95.4403C95.2903 21.2038 95.1103 20.8438 94.9303 20.5138H100.48V17.3038C101.5 18.1138 102.61 19.2538 103.24 20.0938C106.15 18.2638 109.09 15.6538 111.19 12.6538L107.05 11.0038C105.64 13.2838 102.91 15.5338 100.48 16.8838V11.5738H85.4503V20.5138H92.8603L90.5503 20.9638C90.6403 21.1438 90.7303 21.3538 90.8203 21.5638H84.1903V24.8338H101.5V21.5638ZM107.68 19.1938C106.09 21.6838 102.91 24.1738 100.3 25.6138C101.38 26.4238 102.64 27.7138 103.3 28.6738C106.3 26.7238 109.45 23.9638 111.67 20.8438L107.68 19.1938ZM94.9303 33.0538V32.0338H97.3003L94.9303 33.0538ZM87.4603 32.0338H90.6703V35.2738C90.6703 35.5438 90.5803 35.6338 90.2803 35.6338C90.0703 35.6338 89.5003 35.6338 88.9303 35.6338C89.4703 34.7338 89.9503 33.7738 90.3403 32.9038L87.4603 32.0338ZM90.0703 28.2838H95.7403V29.3038H90.0703V28.2838ZM99.9703 32.0338V25.5238H86.0503V32.0338H86.6803C86.0803 33.4138 85.1203 34.9438 84.1903 35.9938C85.0003 36.5338 86.4403 37.6438 87.1003 38.2738C87.5803 37.7038 88.1203 36.9238 88.6303 36.1138C89.0203 37.0138 89.4103 38.1538 89.5603 39.0538C91.1503 39.0538 92.4703 39.0238 93.5503 38.5138C94.6903 37.9738 94.9303 37.1038 94.9303 35.3938V33.2638C95.7703 34.8538 96.7003 36.9538 97.0903 38.2438L100.33 36.7438C99.9103 35.4838 98.8903 33.5638 98.0203 32.0338H99.9703ZM108.13 27.4438C106.42 30.8338 103.12 33.6838 99.7903 35.3338C100.87 36.2338 102.13 37.6738 102.79 38.7538C106.6 36.4438 109.96 33.1438 112.18 28.9138L108.13 27.4438ZM120.85 14.7538C119.65 18.3238 117.61 22.3138 115.63 24.7438C116.68 25.1938 118.57 26.1838 119.44 26.8138C121.3 24.1138 123.52 19.7938 124.99 15.8638L120.85 14.7538ZM134.53 16.4338C136.48 19.6438 138.85 24.0238 139.9 26.7538L143.65 24.5338C142.45 21.8338 140.11 17.7538 138.07 14.5738L134.53 16.4338ZM136.21 26.0638C132.52 32.3338 125.08 34.1338 115.09 34.7938C115.9 35.9038 116.74 37.6738 117.1 38.9638C127.93 37.8238 135.85 35.3338 140.23 27.8038L136.21 26.0638ZM127.03 10.5838V29.4838H131.38V10.5838H127.03ZM165.37 21.6238C164.41 24.4438 163.15 26.6638 161.5 28.4038C159.94 27.7138 158.35 27.0238 156.79 26.3638C157.39 24.9238 158.05 23.3038 158.68 21.6238H165.37ZM174.76 34.8538C172.51 33.6538 169.45 32.1238 166.06 30.5038C167.92 28.1938 169.33 25.2838 170.38 21.6238H174.64V16.9138H171.52C171.64 16.2838 171.73 15.6238 171.85 14.9638L167.17 13.8838C167.02 14.9338 166.84 15.9538 166.63 16.9138H160.33C160.96 14.9638 161.53 12.9838 161.95 11.0638L157.24 10.4038C156.73 12.5038 156.07 14.6938 155.29 16.9138H147.61V21.6238H153.46C152.41 24.1438 151.27 26.5138 150.19 28.4338C152.56 29.3938 154.96 30.4438 157.27 31.5538C154.54 32.9938 151.09 33.9238 146.8 34.5838C147.82 35.7238 148.9 37.5538 149.38 38.8438C154.81 37.7938 159.01 36.3238 162.28 34.0438C165.85 35.8738 169.03 37.6738 171.37 39.0838L174.76 34.8538Z" fill="#E9706E"/>
<path d="M17.0503 42.1738C26.163 42.1738 33.5503 34.7865 33.5503 25.6738C33.5503 16.5611 26.163 9.17383 17.0503 9.17383C7.9376 9.17383 0.550293 16.5611 0.550293 25.6738C0.550293 34.7865 7.9376 42.1738 17.0503 42.1738Z" fill="#E9706E"/>
<path d="M12.7383 18.6025C9.40862 20.4514 11.634 21.8653 11.634 25.8391C11.634 29.813 9.40862 31.2184 12.7383 33.0757C16.3106 35.0584 16.3106 32.4984 19.8745 30.5073C23.4467 28.5246 25.9063 30.089 25.9063 25.8391C25.9063 21.5892 23.087 24.007 20.0083 21.2629C16.8794 18.4771 16.3106 16.6198 12.7383 18.6025Z" fill="#FBEEEA"/>
</svg>
