<svg width="63" height="64" viewBox="0 0 63 64" fill="none" xmlns="http://www.w3.org/2000/svg">
<rect x="22.7856" y="4.10742" width="39.9143" height="56.4445" rx="8" transform="rotate(3.49201 22.7856 4.10742)" fill="#DAD3D1" fill-opacity="0.46"/>
<rect x="21.4883" y="1.67676" width="39.9143" height="56.4445" rx="8" transform="rotate(3.49201 21.4883 1.67676)" fill="#E9706E"/>
<rect x="25.1147" y="5.12988" width="32.254" height="49.9937" rx="8" transform="rotate(3.49201 25.1147 5.12988)" stroke="#FBEEEA" stroke-width="2"/>
<path d="M34.3518 24.5661C34.0043 24.7927 33.6138 24.8462 33.2483 24.6474C32.9733 24.4971 32.7557 24.2535 32.5692 23.9892C32.5233 24.2658 32.4256 24.532 32.3478 24.8078C32.3229 24.8978 32.2324 24.9304 32.1593 24.8932C32.0211 24.8223 31.8884 24.7436 31.7637 24.6556C31.7623 24.6639 31.7631 24.6726 31.7621 24.6788C31.6915 25.5427 31.6104 26.4049 31.4995 27.2666C31.3627 28.3462 31.188 29.422 30.9412 30.482C30.701 31.5133 30.3946 32.5447 29.9362 33.4987C29.5582 34.2818 29.0491 35.057 28.3292 35.5193C27.7448 35.8941 27.0888 35.9802 26.454 35.8647C26.8858 36.2511 27.3876 36.5461 27.9011 36.7939C28.5037 37.0857 29.1383 37.31 29.7799 37.4906C30.9852 37.8309 32.2488 38.046 33.5109 38.041C33.8034 38.0404 34.0943 38.0501 34.3858 38.0152C34.5599 37.9937 34.7468 37.9593 34.9013 37.86C35.1936 37.6715 35.2245 37.2474 35.245 36.9156C35.264 36.607 35.255 36.3003 35.2632 35.9922C35.2771 35.5142 35.3055 35.0384 35.3106 34.5612C35.3196 33.615 35.2881 32.6688 35.2323 31.7273C35.2049 31.2534 35.154 30.7801 35.137 30.3078C35.1206 29.8314 35.1306 29.3507 35.1382 28.8717C35.1504 27.9324 35.1754 26.993 35.1616 26.056C34.8281 25.6147 34.6205 25.0525 34.3518 24.5661Z" fill="#E5A29D"/>
<path d="M41.8449 27.37C41.2265 27.016 40.5576 26.7926 39.8513 26.7106C39.1263 26.6257 38.392 26.6673 37.6648 26.7037C36.9099 26.7399 36.1618 26.7068 35.408 26.7091C34.7548 26.7102 34.0797 26.7548 33.4788 27.0182C33.3011 27.3721 33.1293 27.729 32.9638 28.087C32.2468 29.6488 31.6457 31.3016 31.4735 33.0223C31.3363 34.4006 31.4322 36.0186 32.4833 37.0495C33.3461 37.8947 34.5928 38.1626 35.7631 38.1986C36.09 38.2098 36.416 38.1995 36.742 38.1765C37.2058 38.1454 37.6751 38.1599 38.1382 38.1735C39.0815 38.2013 40.0219 38.2734 40.9661 38.2949C41.6341 38.3089 42.3063 38.3364 42.9723 38.2818C43.5604 38.2341 44.2236 38.1428 44.6995 37.7657C45.1197 37.431 45.3608 36.9463 45.5258 36.4431C45.7193 35.8548 45.8054 35.2303 45.841 34.6149C45.9156 33.3355 45.7354 32.0883 45.1632 30.9305C44.4435 29.4783 43.2578 28.1786 41.8449 27.37Z" fill="#F0DDD6"/>
<path d="M37.217 35.7729C37.1064 35.6765 36.8984 35.6286 36.7321 35.6001C36.4868 35.5591 36.2347 35.5469 35.9873 35.5462C35.6227 35.5439 35.1823 35.5617 34.8523 35.6375C34.7758 35.7705 34.7431 35.9232 34.8638 36.064C34.988 36.2096 35.2156 36.2947 35.4206 36.3485C35.8672 36.4662 36.4097 36.4903 36.825 36.3746C37.0214 36.3204 37.1431 36.2393 37.2272 36.099C37.2645 36.0387 37.2924 35.9706 37.2866 35.8992C37.2838 35.8497 37.2582 35.8093 37.217 35.7729Z" fill="#EEAE94"/>
<path d="M44.0475 31.0039C44.0051 30.8136 43.9654 30.6195 43.9095 30.4335C43.8882 30.3661 43.8647 30.2984 43.8365 30.2341C43.8068 30.1654 43.8286 30.203 43.7845 30.1448C43.7421 30.089 43.7774 30.1223 43.7122 30.0757C43.6721 30.0459 43.6296 30.0178 43.5864 29.9939C43.5063 29.9471 43.3229 29.8518 43.2032 29.7859C43.1739 29.7685 43.1443 29.7531 43.1151 29.7357C43.1193 30.4236 43.0385 31.1087 42.906 31.7835C42.4479 34.1099 41.025 37.6365 38.3082 37.2852C38.5778 37.631 38.927 37.9061 39.3191 38.0984C41.2314 39.0416 44.5052 38.3691 44.6407 35.7484C44.6454 35.651 44.6938 35.5882 44.7583 35.5579C44.6557 34.8181 44.5776 34.0715 44.4794 33.3303C44.3774 32.5458 44.2218 31.7763 44.0475 31.0039Z" fill="#E5A29D" stroke="#E5A29D" stroke-miterlimit="10"/>
<path d="M50.6523 36.8841C50.1427 36.7864 49.8106 36.3902 49.6196 35.9523C49.3654 35.3742 49.2885 34.7281 49.2499 34.1094C49.1556 32.6432 49.3063 31.1795 49.3884 29.7177C49.4158 29.2482 49.4617 28.7561 49.3845 28.2871C49.2289 27.3426 48.9596 26.4014 48.5727 25.5163C48.1935 24.6495 47.6781 23.8337 47.002 23.144C46.309 22.4387 45.4566 21.8918 44.5231 21.5199C43.5155 21.117 42.4194 20.922 41.3386 20.8469C40.3084 20.7755 39.1311 20.8238 38.2846 21.4389C38.2312 21.4795 38.1715 21.4658 38.1345 21.43C37.134 21.7774 36.003 21.722 34.993 22.0487C34.4756 22.2164 33.9541 22.3558 33.4628 22.5875C32.9601 22.8237 32.5003 23.1393 32.0961 23.5086C31.5398 24.0159 31.1233 24.6649 30.8724 25.3594C30.6344 26.0132 30.5372 26.7619 30.7693 27.4389C31.0092 28.1342 31.5755 28.6145 32.2657 28.8924C32.3223 28.6026 32.3924 28.3213 32.3248 28.0204C32.2958 27.8941 32.4746 27.8563 32.5488 27.9406C32.7842 28.2062 33.0519 28.4834 33.3889 28.6328C33.7482 28.79 34.0811 28.6955 34.3644 28.4565C34.4161 28.4135 34.4977 28.4371 34.5372 28.4839C34.8147 28.8074 35.0345 29.1709 35.3072 29.4979C35.3789 29.584 35.4551 29.6686 35.5365 29.7477C35.5778 29.7564 35.6162 29.7838 35.6297 29.8329C35.791 29.9737 35.9711 30.0897 36.1796 30.1612C36.5605 30.2898 36.9201 30.2293 37.2557 30.0371C37.9343 29.6473 38.3878 28.9934 39.0531 28.593C39.1049 28.5628 39.1925 28.5617 39.2259 28.6204C39.3239 28.7832 39.4264 28.9445 39.5362 29.1006C39.9362 29.6741 40.4348 30.2183 41.0214 30.625C41.1887 30.7411 41.3676 30.8377 41.5428 30.9444C41.6459 31.0077 41.7231 31.0861 41.7676 31.1956C41.8426 31.3825 41.8651 31.5909 41.9048 31.785C41.9821 32.1729 42.0361 32.5593 42.0719 32.9534C42.1084 33.3561 42.1363 33.7596 42.1925 34.1591C42.2484 34.5607 42.343 34.947 42.4699 35.3321C42.6709 35.9359 42.8564 36.5437 43.1089 37.1322C43.3477 37.6865 43.6469 38.3037 44.2109 38.6235C44.8748 38.9997 45.6932 38.98 46.4321 38.9369C47.0826 38.8991 47.7329 38.8634 48.3724 38.747C48.9306 38.6454 49.4924 38.4804 49.9581 38.1679C50.4168 37.8585 50.7151 37.417 50.8559 36.9057C50.7855 36.9053 50.7182 36.8989 50.6523 36.8841Z" fill="#E5A29D" stroke="#E5A29D" stroke-miterlimit="10"/>
<path d="M32.3651 27.9614C32.4711 28.4648 32.8883 28.6333 33.2496 28.697C33.5404 28.7473 33.8394 28.7733 34.1301 28.6764C34.4207 28.5794 34.703 28.3467 34.864 27.9773C34.5807 28.6069 34.0956 29.0423 33.5899 29.1222C33.2178 29.1807 32.7805 28.977 32.6856 28.4582" fill="#E5A29D"/>
<path d="M32.0498 27.9963C32.1231 28.3153 32.2799 28.592 32.561 28.7709C32.8167 28.9352 33.1108 29.0053 33.4088 29.0375C33.7862 29.0802 34.1592 29.0433 34.4945 28.8531C34.7901 28.6843 35.0142 28.4146 35.1528 28.1058C35.3203 27.7353 34.7471 27.4738 34.5775 27.8439C34.4695 28.0808 34.3401 28.278 34.1566 28.4666C34.0267 28.5997 33.855 28.7134 33.668 28.7755C33.6431 28.7844 33.6186 28.7912 33.594 28.798C33.6362 28.7876 33.5874 28.799 33.5701 28.8006C33.5483 28.8035 33.5241 28.8082 33.5026 28.8091C33.5026 28.8091 33.4188 28.8129 33.4635 28.8136C33.5082 28.8142 33.4319 28.8107 33.4236 28.8094C33.3962 28.8072 33.3695 28.8008 33.3424 28.7965C33.282 28.787 33.3643 28.8064 33.3299 28.7945C33.3077 28.7867 33.2854 28.779 33.2656 28.7694C33.2437 28.7595 33.2242 28.7479 33.2023 28.738C33.1748 28.723 33.2302 28.7638 33.189 28.7274C33.1722 28.7119 33.1513 28.6958 33.1325 28.68C33.1101 28.6594 33.1497 28.7062 33.116 28.6625C33.0964 28.638 33.0789 28.6139 33.0617 28.5877C33.0364 28.5453 33.0596 28.5874 33.0469 28.5598C33.0236 28.5049 33.0056 28.4572 32.9987 28.4198C32.9654 28.2523 32.8285 28.1197 32.6481 28.1402C32.4895 28.1578 32.3356 28.3212 32.3685 28.4907C32.4392 28.8392 32.6131 29.1292 32.9244 29.3066C33.1747 29.4508 33.4743 29.4726 33.7517 29.4056C34.4044 29.2465 34.8782 28.694 35.1507 28.1054C34.9598 28.0176 34.7664 27.9314 34.5754 27.8436C34.4801 28.0547 34.3524 28.2138 34.1492 28.3246C34.1841 28.3066 34.1285 28.3341 34.1171 28.3387C34.0919 28.3496 34.0667 28.3606 34.0418 28.3695C33.9896 28.3889 33.9387 28.4001 33.8816 28.4103C33.7529 28.4283 33.6312 28.4282 33.5036 28.4123C33.3881 28.4004 33.2715 28.3819 33.1565 28.353C33.1381 28.348 33.1197 28.3429 33.1013 28.3379C33.1684 28.3592 33.0794 28.328 33.0735 28.3249C33.0311 28.3097 32.9935 28.2909 32.9517 28.2715C32.934 28.2623 32.8929 28.2387 32.9316 28.264C32.9103 28.25 32.8911 28.2363 32.8702 28.2202C32.8514 28.2044 32.8325 28.1886 32.8116 28.1725C32.7439 28.1148 32.8253 28.1939 32.7931 28.1546C32.7305 28.0785 32.6932 28.0171 32.6717 27.9241C32.634 27.758 32.5057 27.6246 32.3211 27.6445C32.175 27.664 32.0124 27.8282 32.0498 27.9963Z" fill="#E5A29D"/>
<path d="M38.7803 28.4893C39.6128 29.1483 40.4931 29.7487 41.411 30.2868C40.9889 30.1218 40.5672 29.9547 40.1431 29.7893C40.5515 30.2019 41.1226 30.4503 41.7022 30.4695" fill="#E5A29D"/>
<path d="M38.5795 28.7362C39.435 29.4117 40.339 30.0244 41.2781 30.5765C41.366 30.3855 41.4521 30.1922 41.54 30.0012C41.1179 29.8362 40.6962 29.6691 40.272 29.5037C39.9285 29.3682 39.6872 29.7867 39.9402 30.0359C40.3922 30.4832 41.0151 30.7547 41.6509 30.7828C41.8205 30.7905 41.9837 30.7032 42.0127 30.52C42.0371 30.3659 41.9215 30.1662 41.7498 30.1582C41.2094 30.1345 40.726 29.9256 40.3399 29.5465C40.2287 29.7231 40.1193 29.9021 40.0081 30.0787C40.4301 30.2437 40.8519 30.4108 41.276 30.5762C41.6619 30.7269 41.8836 30.2029 41.5379 30.0009C40.6457 29.4754 39.7912 28.8876 38.9772 28.2464C38.6608 27.9936 38.261 28.483 38.5795 28.7362Z" fill="#E5A29D"/>
<path d="M46.095 31.5298C46.0526 31.3395 46.017 31.1461 45.9611 30.9601C45.9419 30.893 45.9185 30.8253 45.8902 30.761C45.8606 30.6923 45.8823 30.7299 45.8403 30.672C45.8 30.6165 45.8332 30.6495 45.7701 30.6033C45.73 30.5734 45.6896 30.5457 45.6488 30.52C45.5708 30.4735 45.3916 30.379 45.276 30.3137C45.2467 30.2963 45.2192 30.2812 45.19 30.2638C45.192 30.9514 45.1113 31.6365 44.9809 32.3116C44.5269 34.6386 43.1314 38.1675 40.4837 37.825C40.745 38.1694 41.0858 38.4432 41.4651 38.6356C43.3271 39.573 46.5211 38.8922 46.6607 36.2721C46.6655 36.1747 46.7139 36.1119 46.7763 36.0812C46.6778 35.3421 46.6039 34.5962 46.5099 33.8557C46.4148 33.068 46.2634 32.2992 46.095 31.5298Z" fill="#E5A29D" stroke="#E5A29D" stroke-miterlimit="10"/>
<path d="M39.446 37.7992C42.5491 39.2148 46.214 39.3471 49.4136 38.1592Z" fill="#E5A29D"/>
<path d="M39.3154 38.0883C42.5144 39.532 46.2347 39.6645 49.5274 38.4551C49.9102 38.3151 49.6813 37.7261 49.2984 37.866C46.1623 39.017 42.6228 38.8875 39.5776 37.5109C39.205 37.3431 38.9449 37.9208 39.3154 38.0883Z" fill="#E5A29D"/>
<path d="M38.7964 28.7852C38.7912 29.1685 39.079 29.4937 39.3868 29.7196C40.0214 30.1872 40.8273 30.4215 41.6135 30.3625" fill="#E5A29D"/>
<path d="M38.4819 28.8208C38.4914 29.4882 39.1 29.9581 39.6325 30.2474C40.2455 30.5814 40.953 30.7233 41.6496 30.6778C42.0552 30.6503 41.986 30.0225 41.5783 30.0497C41.0282 30.0864 40.479 29.9695 39.987 29.7208C39.6115 29.5312 39.1186 29.2205 39.11 28.7496C39.1072 28.5784 38.918 28.4524 38.7594 28.47C38.5769 28.4901 38.4791 28.6497 38.4819 28.8208Z" fill="#E5A29D"/>
<path d="M44.8104 35.2327C47.1481 35.6029 49.3434 34.008 49.7136 31.6703C50.0839 29.3326 48.4889 27.1373 46.1512 26.7671C43.8135 26.3968 41.6183 27.9918 41.248 30.3295C40.8778 32.6672 42.4727 34.8624 44.8104 35.2327Z" fill="#E9706E"/>
<path d="M44.5976 28.9923C43.6708 29.3322 44.1822 29.7824 44.0212 30.7984C43.8603 31.8144 43.2328 32.0843 44.0112 32.6942C44.8427 33.3466 44.9466 32.6908 45.9411 32.3275C46.9335 31.964 47.501 32.4636 47.6731 31.3768C47.8453 30.29 47.0269 30.7943 46.349 29.9676C45.6623 29.1289 45.5896 28.6308 44.5976 28.9923Z" fill="#F9EEEB"/>
<path d="M40.8273 32.4872C40.6323 32.4521 40.449 32.3697 40.2876 32.2566C40.1168 32.1357 39.9835 31.9801 39.8361 31.8329C39.5213 31.5163 39.1163 31.2836 38.6846 31.1661C38.4655 31.1079 38.2399 31.0765 38.0144 31.0856C37.9049 31.0896 37.7965 31.1001 37.6907 31.1218C37.5806 31.1428 37.4578 31.1639 37.3577 31.2163C37.3318 31.2314 37.3058 31.2337 37.2808 31.2297C37.0213 31.2783 36.7786 31.2206 36.5267 31.1402C36.4659 31.1199 36.4047 31.1017 36.3436 31.0834C36.3068 31.0733 36.2703 31.0612 36.2328 31.0552C36.2307 31.0549 36.2287 31.0546 36.2245 31.0539C36.2427 31.0739 36.2602 31.098 36.2814 31.112C36.4246 31.2051 36.6148 31.231 36.7702 31.3004C36.9295 31.3726 36.9869 31.482 36.9551 31.6562C36.9488 31.6958 36.892 31.8255 36.9186 31.8596C36.9431 31.8934 37.0101 31.8613 37.0439 31.8496C37.2016 31.7977 37.346 31.7075 37.5033 31.6577C37.7277 31.5886 37.9834 31.5779 38.2159 31.5785C38.4526 31.5797 38.6905 31.6003 38.9224 31.6455C39.156 31.6932 39.3854 31.768 39.5843 31.8998C39.7812 32.0313 39.906 32.2538 40.1069 32.3731C40.2104 32.4343 40.3347 32.4306 40.4506 32.4404C40.564 32.4519 40.6655 32.4851 40.7738 32.515C40.9534 32.567 41.1281 32.569 41.2972 32.4848C41.3297 32.4686 41.3625 32.4503 41.3893 32.429C41.3917 32.4272 41.3945 32.4234 41.3996 32.4178C41.3775 32.4228 41.3515 32.4251 41.3294 32.4302C41.1554 32.4773 41.014 32.5211 40.8273 32.4872Z" fill="#5B5B5B"/>
<path d="M38.8126 31.9099C38.669 32.0622 38.5684 32.266 38.5048 32.4651C38.4531 32.6298 38.4017 32.833 38.471 33.0019L38.4728 33.0043C38.4794 33.0032 38.4863 33 38.4908 32.9986C38.5955 32.9704 38.7192 32.9174 38.83 32.9456C38.9491 32.9752 39.0022 33.1116 38.9427 33.2175C38.8857 33.3215 38.7509 33.3642 38.6433 33.3963C38.5517 33.4223 38.3848 33.4386 38.3229 33.4928C38.1718 33.6247 38.4965 33.6633 38.577 33.6398C38.631 33.6227 38.7081 33.6477 38.7238 33.71C38.7572 33.8497 38.7193 33.9675 38.6489 34.0887C38.585 34.1959 38.4888 34.3045 38.4958 34.4358C38.5093 34.7004 38.7854 34.9789 39.0529 34.9743C39.2563 34.9703 39.4136 34.7988 39.5215 34.6431C39.6462 34.4622 39.7278 34.2574 39.7968 34.0506C39.9897 33.4793 40.16 32.8489 39.8211 32.2937C39.6346 31.9889 39.1483 31.5554 38.8126 31.9099Z" fill="#5B5B5B" stroke="#5B5B5B" stroke-miterlimit="10"/>
<path opacity="0.5" d="M39.2565 34.1468C39.1287 33.9835 38.9114 33.9406 38.7133 33.9519C38.697 34.0005 38.6746 34.0482 38.6479 34.0952C38.584 34.2024 38.4878 34.311 38.4947 34.4423C38.5083 34.7069 38.7844 34.9854 39.0519 34.9808C39.2359 34.978 39.382 34.8368 39.4879 34.6935C39.3712 34.5277 39.3808 34.3052 39.2565 34.1468Z" fill="#F9EEEB"/>
<path opacity="0.5" d="M39.5339 32.3797C39.7553 32.5044 39.8672 32.7142 40.0095 32.9075C39.9957 32.6983 39.9403 32.4953 39.8199 32.2991C39.6334 31.9942 39.1471 31.5608 38.8114 31.9153C38.688 32.0473 38.5955 32.214 38.5341 32.3857C38.8646 32.3207 39.2167 32.1993 39.5339 32.3797Z" fill="#F9EEEB"/>
<path d="M34.0674 32.0774C33.9256 31.8543 33.6733 31.682 33.4569 31.5389C33.1869 31.3574 32.8925 31.2083 32.5799 31.1204C32.2999 31.0419 32.0373 31.0558 31.7661 31.111C31.7661 31.111 31.7661 31.111 31.764 31.1107C31.4747 31.2527 31.1303 31.1768 30.8215 31.1727C30.7234 31.1721 30.6257 31.1694 30.5279 31.1667C30.4919 31.1653 30.416 31.1725 30.3588 31.1698C30.3693 31.1843 30.3778 31.1985 30.3893 31.2067C30.4364 31.2462 30.4941 31.2724 30.5507 31.292C30.8434 31.3981 31.1817 31.4048 31.4905 31.4088C31.8167 31.4114 32.1465 31.31 32.4712 31.3486C32.7771 31.3843 32.9824 31.5704 33.2325 31.7296C33.5112 31.9103 33.7645 32.1169 34.0274 32.3165C34.0368 32.3244 34.0989 32.3641 34.1445 32.399C34.1468 32.3845 34.1491 32.3699 34.1484 32.3612C34.1493 32.2611 34.1222 32.1629 34.0674 32.0774Z" fill="#5B5B5B"/>
<path d="M34.065 32.5338C33.8768 32.2265 33.607 31.9085 33.2546 31.7886C33.1452 31.7521 33.0283 31.7357 32.9525 31.8368C32.874 31.9418 32.8523 32.092 32.8218 32.2174C32.7788 32.3941 32.6637 32.8518 32.9885 32.7816C33.2006 32.7362 33.4567 32.5207 33.6687 32.678C33.7109 32.7082 33.7278 32.7493 33.7275 32.7919C33.7644 32.8554 33.76 32.9507 33.6796 32.9999C33.542 33.087 33.3798 33.1274 33.231 33.1914C33.1256 33.2366 32.898 33.3264 32.9151 33.4743C32.9275 33.5979 33.1483 33.4707 33.2154 33.4514C33.3454 33.4122 33.5088 33.4317 33.5461 33.587C33.578 33.7223 33.4758 33.8555 33.4059 33.9597C33.3251 34.0792 33.2267 34.2152 33.212 34.3622C33.1779 34.6855 33.7355 34.7759 33.9569 34.6851C34.1258 34.6158 34.1792 34.4407 34.2136 34.2775C34.2536 34.079 34.2987 33.8748 34.3158 33.6727C34.3335 33.4663 34.3401 33.2497 34.2931 33.048C34.2496 32.864 34.1634 32.6945 34.065 32.5338Z" fill="#5B5B5B" stroke="#5B5B5B" stroke-miterlimit="10"/>
<path opacity="0.5" d="M32.8339 32.1281C32.8769 32.2203 33.0255 32.2119 33.1122 32.217C33.2197 32.2255 33.3227 32.2354 33.4266 32.2668C33.5669 32.3104 33.8112 32.4793 33.9273 32.3397C33.7517 32.1006 33.524 31.881 33.2463 31.788C33.1369 31.7514 33.0199 31.735 32.9442 31.8361C32.8845 31.9163 32.8569 32.023 32.8345 32.124C32.8342 32.1261 32.8342 32.1261 32.8339 32.1281Z" fill="#F9EEEB"/>
<path opacity="0.5" d="M33.8879 33.9767C33.638 33.8838 33.4624 34.0225 33.2701 34.1585C33.2363 34.2235 33.2088 34.2896 33.2017 34.3611C33.1676 34.6843 33.7252 34.7748 33.9466 34.6839C34.0769 34.6299 34.138 34.5136 34.1751 34.3872C34.1432 34.2114 34.0714 34.0442 33.8879 33.9767Z" fill="#F9EEEB"/>
<rect x="0.23877" y="7.74219" width="39.9143" height="56.4445" rx="8" transform="rotate(-8.74068 0.23877 7.74219)" fill="#D1CAC4" fill-opacity="0.62"/>
<rect x="2.18604" y="6.2002" width="39.9143" height="56.4445" rx="8" transform="rotate(-8.74068 2.18604 6.2002)" fill="#FBEEEA"/>
<rect x="6.46191" y="8.80664" width="32.254" height="49.9937" rx="8" transform="rotate(-8.74068 6.46191 8.80664)" stroke="#E9706E" stroke-width="2"/>
<path d="M20.4701 27.4975C20.2049 27.7932 19.8571 27.9393 19.47 27.8461C19.1785 27.7753 18.917 27.6039 18.6791 27.4058C18.7051 27.6729 18.6808 27.9432 18.6772 28.2175C18.6764 28.3069 18.6008 28.3595 18.524 28.3432C18.3787 28.3118 18.2365 28.2719 18.0993 28.2214C18.1002 28.2295 18.103 28.2373 18.1037 28.2433C18.2524 29.0595 18.391 29.8768 18.502 30.701C18.6429 31.7331 18.7479 32.771 18.7823 33.8123C18.8157 34.8252 18.788 35.8548 18.6005 36.8504C18.445 37.6681 18.1664 38.511 17.6153 39.1167C17.1678 39.6081 16.5826 39.8502 15.967 39.9007C16.462 40.1509 16.999 40.2994 17.5352 40.4013C18.1647 40.5218 18.807 40.572 19.4449 40.58C20.6437 40.596 21.8652 40.4818 23.031 40.1645C23.3012 40.0915 23.5726 40.0285 23.8335 39.924C23.9891 39.8609 24.1534 39.7828 24.2716 39.6527C24.4952 39.406 24.4187 39.0063 24.3555 38.6944C24.2966 38.4043 24.2123 38.1231 24.1435 37.8361C24.0379 37.3907 23.9463 36.9438 23.8328 36.5013C23.6067 35.6242 23.3432 34.7572 23.0583 33.9005C22.9156 33.4692 22.7512 33.0441 22.6185 32.6117C22.4854 32.1753 22.3756 31.7283 22.2639 31.2836C22.0424 30.4121 21.8328 29.5374 21.5879 28.6744C21.1703 28.3491 20.839 27.8807 20.4701 27.4975Z" fill="#E5A29D"/>
<path d="M28.0927 28.2339C27.4332 28.0597 26.7594 28.019 26.0861 28.1181C25.3947 28.2192 24.7261 28.4396 24.0628 28.6534C23.3738 28.8739 22.6739 29.0286 21.9775 29.2175C21.3738 29.3803 20.7607 29.5888 20.2703 29.9812C20.1937 30.3524 20.1233 30.725 20.0589 31.097C19.783 32.7187 19.6367 34.3957 19.9037 36.0293C20.1184 37.3377 20.6079 38.8099 21.8351 39.5027C22.8423 40.0704 24.0613 40.0092 25.1522 39.7525C25.4573 39.6819 25.7562 39.5917 26.0518 39.4896C26.4729 39.3459 26.9105 39.2431 27.342 39.1409C28.221 38.9329 29.1084 38.7666 29.9867 38.5526C30.6078 38.4 31.2361 38.2589 31.8384 38.0435C32.3703 37.8537 32.9609 37.6049 33.3075 37.1384C33.613 36.7248 33.7158 36.2169 33.7438 35.7108C33.777 35.119 33.7019 34.5202 33.5823 33.9424C33.3343 32.741 32.8587 31.6325 32.0428 30.7038C31.0176 29.5394 29.5993 28.6314 28.0927 28.2339Z" fill="#F0DDD6"/>
<path d="M25.8951 37.1478C25.7689 37.086 25.5647 37.0932 25.404 37.1081C25.167 37.131 24.9309 37.1822 24.7019 37.2428C24.3643 37.331 23.9615 37.4565 23.6752 37.6083C23.6374 37.7503 23.6449 37.8996 23.7914 37.9999C23.9423 38.1037 24.1739 38.126 24.3767 38.125C24.8188 38.1232 25.3264 38.011 25.6817 37.8012C25.8499 37.7024 25.9423 37.5973 25.9853 37.4467C26.0049 37.3817 26.0138 37.3118 25.9908 37.2473C25.9759 37.2022 25.9422 37.1712 25.8951 37.1478Z" fill="#EEAE94"/>
<path d="M31.0306 31.0466C30.9443 30.8812 30.8595 30.7115 30.7617 30.5534C30.7253 30.4964 30.6869 30.4396 30.6448 30.3872C30.6004 30.331 30.6298 30.3603 30.5746 30.3174C30.5216 30.2764 30.5625 30.2984 30.4907 30.2715C30.4462 30.2538 30.3999 30.2384 30.3541 30.227C30.2685 30.2035 30.0753 30.161 29.9482 30.1297C29.9169 30.1208 29.8857 30.1139 29.8544 30.105C30.0286 30.74 30.1237 31.3935 30.1684 32.0502C30.3211 34.3146 29.8792 37.9278 27.2803 38.2761C27.6153 38.529 28.0062 38.6969 28.4164 38.7775C30.4182 39.1758 33.2785 37.743 32.7545 35.2863C32.7347 35.1951 32.7639 35.1251 32.8161 35.081C32.5379 34.4225 32.2807 33.7516 32.0063 33.0906C31.7177 32.3905 31.3832 31.7176 31.0306 31.0466Z" fill="#E5A29D" stroke="#E5A29D" stroke-miterlimit="10"/>
<path d="M38.5935 34.8472C38.0982 34.8831 37.693 34.599 37.4079 34.2414C37.0296 33.7699 36.7984 33.1916 36.6095 32.6292C36.159 31.2969 35.9357 29.9062 35.6495 28.5344C35.5586 28.0935 35.4791 27.6271 35.2915 27.2126C34.9136 26.3779 34.4315 25.5744 33.8544 24.8519C33.2891 24.1444 32.6105 23.5178 31.8145 23.0476C30.9991 22.5672 30.0754 22.2727 29.1201 22.1601C28.0887 22.0372 27.0271 22.1285 26.0091 22.3268C25.0389 22.516 23.9624 22.8523 23.3321 23.6307C23.2928 23.6815 23.2342 23.6836 23.1911 23.6598C22.3521 24.2288 21.2928 24.4578 20.4398 25.01C20.003 25.2933 19.5553 25.5514 19.1585 25.8873C18.7522 26.2303 18.4053 26.636 18.1231 27.0775C17.7344 27.6844 17.5101 28.3877 17.4502 29.0919C17.3921 29.7554 17.4877 30.4717 17.87 31.0401C18.2641 31.6236 18.9067 31.9274 19.6137 32.0133C19.5942 31.7313 19.5894 31.4539 19.4523 31.1924C19.3941 31.0828 19.5501 31.0035 19.6396 31.0631C19.923 31.2504 20.2392 31.4404 20.5878 31.495C20.959 31.5514 21.2434 31.3815 21.4461 31.0903C21.4832 31.0378 21.5645 31.0393 21.6127 31.0728C21.9493 31.3032 22.2427 31.5849 22.5758 31.8197C22.6634 31.8815 22.7549 31.9409 22.8497 31.9938C22.8901 31.9916 22.9323 32.0074 22.957 32.0495C23.141 32.1397 23.3363 32.2023 23.5467 32.2167C23.9308 32.2413 24.2483 32.0963 24.511 31.8354C25.0418 31.3069 25.2991 30.59 25.8151 30.0549C25.8554 30.0142 25.9362 29.9915 25.9816 30.0374C26.1126 30.1637 26.2473 30.2875 26.3874 30.4046C26.8994 30.8357 27.4952 31.2154 28.1383 31.446C28.3217 31.512 28.5111 31.557 28.6995 31.6123C28.8105 31.6452 28.9013 31.6986 28.9696 31.7888C29.0852 31.943 29.1577 32.1302 29.2424 32.2998C29.41 32.6393 29.5557 32.9831 29.6864 33.3386C29.8199 33.7019 29.9457 34.0681 30.0966 34.4235C30.2478 34.781 30.431 35.1147 30.6437 35.4393C30.9791 35.9478 31.3012 36.4638 31.6805 36.9453C32.0385 37.3987 32.4681 37.8953 33.0688 38.0512C33.7759 38.2346 34.5277 38.0136 35.2002 37.7907C35.7923 37.5946 36.3846 37.4004 36.947 37.1344C37.438 36.9022 37.9166 36.6105 38.2697 36.2061C38.6172 35.8064 38.7836 35.3243 38.7871 34.8167C38.7219 34.8337 38.6581 34.8445 38.5935 34.8472Z" fill="#E5A29D" stroke="#E5A29D" stroke-miterlimit="10"/>
<path d="M19.4741 31.1287C19.6967 31.5679 20.1243 31.6203 20.4741 31.5896C20.7554 31.5641 21.0383 31.5141 21.283 31.3524C21.5277 31.1908 21.7311 30.9057 21.7884 30.5243C21.6825 31.1766 21.3418 31.6993 20.894 31.8985C20.5645 32.0447 20.1097 31.9647 19.8934 31.5086" fill="#E5A29D"/>
<path d="M19.1918 31.2401C19.3386 31.5169 19.5521 31.7338 19.8563 31.8297C20.1335 31.9182 20.4227 31.9101 20.7062 31.8662C21.0657 31.8121 21.4014 31.6856 21.6643 31.4266C21.8959 31.1974 22.0363 30.8925 22.0879 30.5726C22.151 30.1886 21.5562 30.0888 21.4911 30.473C21.4499 30.7188 21.3791 30.9331 21.2562 31.153C21.169 31.3083 21.0384 31.4559 20.881 31.5597C20.8601 31.574 20.8391 31.5864 20.8181 31.5988C20.8545 31.5787 20.8123 31.6014 20.7967 31.6071C20.7772 31.6152 20.756 31.6256 20.7364 31.6317C20.7364 31.6317 20.6598 31.656 20.7013 31.6455C20.7428 31.6351 20.6714 31.6507 20.6634 31.6515C20.6375 31.6563 20.6112 31.657 20.5851 31.6598C20.5269 31.6659 20.6078 31.6635 20.5731 31.661C20.5506 31.6593 20.5281 31.6576 20.5074 31.6537C20.4847 31.65 20.4638 31.6441 20.4411 31.6404C20.4119 31.6333 20.4733 31.6573 20.4262 31.6339C20.4068 31.6237 20.3835 31.614 20.3622 31.6041C20.3364 31.5905 20.3846 31.624 20.3426 31.5919C20.3184 31.5742 20.2963 31.5562 20.2739 31.5362C20.24 31.5033 20.2719 31.5365 20.2533 31.5141C20.2181 31.4691 20.1896 31.4295 20.174 31.3966C20.1018 31.25 19.9423 31.1613 19.7806 31.2249C19.6383 31.2805 19.5365 31.4697 19.6089 31.6183C19.7606 31.9229 19.9933 32.148 20.325 32.2349C20.5922 32.3062 20.8746 32.2522 21.1145 32.1215C21.6785 31.8127 21.9797 31.1845 22.0859 30.5728C21.8875 30.5389 21.6874 30.5071 21.489 30.4732C21.4532 30.692 21.3746 30.8707 21.2141 31.0235C21.2419 30.9983 21.1974 31.0375 21.188 31.0445C21.1674 31.0609 21.1468 31.0773 21.1259 31.0916C21.0825 31.1226 21.0383 31.1455 20.988 31.169C20.8734 31.2176 20.7609 31.2477 20.6389 31.2646C20.5292 31.2822 20.4168 31.294 20.3034 31.2958C20.2851 31.2957 20.2668 31.2955 20.2486 31.2954C20.3158 31.2985 20.2259 31.2917 20.2196 31.2904C20.1766 31.2868 20.1373 31.2787 20.0938 31.2711C20.0752 31.267 20.0313 31.2554 20.0734 31.2692C20.0502 31.2615 20.0291 31.2536 20.0058 31.2439C19.9844 31.2339 19.9631 31.224 19.9398 31.2143C19.8629 31.1777 19.9577 31.2307 19.9182 31.2023C19.8414 31.1475 19.7918 31.1 19.7488 31.0193C19.6728 30.8751 19.5212 30.7835 19.3555 30.8476C19.2252 30.9019 19.1156 31.094 19.1918 31.2401Z" fill="#E5A29D"/>
<path d="M25.5361 30.0254C26.4692 30.4285 27.4318 30.7655 28.4138 31.0356C27.9827 30.9876 27.5513 30.9376 27.1182 30.8898C27.5981 31.1701 28.1876 31.2582 28.7283 31.1324" fill="#E5A29D"/>
<path d="M25.4111 30.3015C26.3695 30.7141 27.3571 31.0566 28.3622 31.3344C28.3961 31.1361 28.4278 30.936 28.4618 30.7376C28.0307 30.6896 27.5993 30.6396 27.1662 30.5918C26.815 30.5516 26.6956 30.9983 26.9912 31.1661C27.52 31.4676 28.1632 31.5643 28.758 31.4328C28.9166 31.3979 29.0459 31.2768 29.0274 31.1002C29.0118 30.9517 28.8554 30.7957 28.6947 30.8308C28.1891 30.9428 27.6904 30.8694 27.2396 30.6145C27.1805 30.8053 27.1237 30.998 27.0646 31.1888C27.4957 31.2368 27.9271 31.2868 28.3602 31.3347C28.7543 31.3784 28.8295 30.839 28.4598 30.7378C27.5047 30.473 26.569 30.1412 25.6575 29.7501C25.3024 29.5947 25.054 30.1463 25.4111 30.3015Z" fill="#E5A29D"/>
<path d="M33.053 31.0253C32.9666 30.8599 32.8858 30.6899 32.7881 30.5317C32.7536 30.4745 32.7152 30.4177 32.6732 30.3653C32.6287 30.3091 32.6582 30.3384 32.605 30.2953C32.554 30.254 32.5928 30.2763 32.523 30.2492C32.4786 30.2315 32.4343 30.2159 32.3903 30.2023C32.3066 30.1786 32.1175 30.1356 31.9944 30.1039C31.9631 30.095 31.9339 30.0879 31.9026 30.079C32.0748 30.7142 32.1699 31.3677 32.2166 32.0242C32.3734 34.2882 31.9573 37.8967 29.4244 38.2359C29.7513 38.4897 30.1343 38.6584 30.5326 38.7423C32.4865 39.1477 35.2709 37.7269 34.7509 35.2698C34.7312 35.1786 34.7603 35.1086 34.8105 35.0647C34.5363 34.4058 34.2832 33.7344 34.0128 33.073C33.7298 32.3683 33.3993 31.695 33.053 31.0253Z" fill="#E5A29D" stroke="#E5A29D" stroke-miterlimit="10"/>
<path d="M28.4588 38.4701C31.6786 39.0101 35.0999 38.2245 37.7639 36.3336Z" fill="#E5A29D"/>
<path d="M28.409 38.7686C31.7244 39.3108 35.197 38.5116 37.9417 36.5777C38.261 36.3534 37.9034 35.8655 37.5841 36.0898C34.9696 37.9309 31.665 38.6881 28.5083 38.1698C28.1223 38.1069 28.025 38.7055 28.409 38.7686Z" fill="#E5A29D"/>
<path d="M25.6255 30.2949C25.7156 30.6506 26.0623 30.88 26.4029 31.0126C27.1054 31.2877 27.9086 31.3047 28.6209 31.0554" fill="#E5A29D"/>
<path d="M25.343 30.4065C25.5172 31.0212 26.1963 31.3048 26.7603 31.4403C27.4098 31.5973 28.0991 31.5532 28.7319 31.3386C29.1 31.2127 28.8806 30.6494 28.5104 30.7756C28.0109 30.9457 27.4741 30.9737 26.9576 30.8657C26.5635 30.7834 26.0308 30.6182 25.9061 30.185C25.8611 30.0274 25.655 29.9577 25.5127 30.0133C25.349 30.0772 25.2981 30.2489 25.343 30.4065Z" fill="#E5A29D"/>
<path d="M32.7829 34.7686C35.0361 34.5318 36.6706 32.5133 36.4338 30.2602C36.197 28.007 34.1785 26.3725 31.9254 26.6093C29.6722 26.8461 28.0377 28.8646 28.2745 31.1177C28.5113 33.3709 30.5298 35.0054 32.7829 34.7686Z" fill="#E9706E"/>
<path d="M31.0391 29.0512C30.2665 29.595 30.8508 29.8845 30.9537 30.8638C31.0566 31.8431 30.5433 32.2481 31.4141 32.6191C32.3445 33.0164 32.2781 32.3842 33.1076 31.802C33.9351 31.22 34.5836 31.5414 34.4735 30.4939C34.3634 29.4464 33.7317 30.1153 32.9001 29.519C32.0574 28.9137 31.8668 28.4711 31.0391 29.0512Z" fill="#F9EEEB"/>
<path d="M28.4199 33.2158C28.2308 33.2316 28.0409 33.2009 27.8637 33.1363C27.6759 33.0668 27.5141 32.956 27.3413 32.8565C26.9718 32.6417 26.5397 32.5268 26.1115 32.5252C25.8944 32.5257 25.6781 32.5525 25.4718 32.6167C25.3716 32.6476 25.274 32.6842 25.1815 32.7304C25.0849 32.7771 24.9766 32.8271 24.897 32.9003C24.8769 32.9207 24.8534 32.9293 24.8293 32.9318C24.6014 33.041 24.3627 33.0478 24.1099 33.0358C24.0486 33.0321 23.9876 33.0304 23.9265 33.0287C23.89 33.0285 23.8532 33.0263 23.8171 33.0301C23.8151 33.0303 23.8131 33.0305 23.8091 33.0309C23.8308 33.0449 23.853 33.0628 23.8761 33.0705C24.0316 33.1211 24.2138 33.0979 24.3747 33.1236C24.5399 33.1509 24.6201 33.2378 24.6338 33.4068C24.6378 33.445 24.6174 33.579 24.6504 33.6039C24.6815 33.629 24.7354 33.5828 24.7639 33.5636C24.8967 33.4766 25.008 33.3574 25.1411 33.2724C25.3314 33.1529 25.5651 33.0797 25.7803 33.0226C25.9994 32.965 26.2245 32.9252 26.4501 32.9096C26.6779 32.8958 26.9085 32.908 27.1251 32.9806C27.3397 33.0534 27.5102 33.2283 27.7256 33.2888C27.8363 33.3198 27.9504 33.2855 28.0599 33.2658C28.1677 33.2484 28.2697 33.2539 28.3773 33.2548C28.5562 33.2583 28.7182 33.2169 28.8538 33.0972C28.8798 33.0742 28.9055 33.0491 28.9251 33.0227C28.9269 33.0205 28.9285 33.0163 28.9318 33.0099C28.9126 33.02 28.8892 33.0285 28.8699 33.0387C28.7208 33.1254 28.6009 33.2009 28.4199 33.2158Z" fill="#5B5B5B"/>
<path d="M26.4138 33.1819C26.3187 33.3583 26.2762 33.5717 26.2668 33.7715C26.2598 33.9366 26.2626 34.1372 26.3685 34.2762L26.3707 34.278C26.3765 34.2753 26.3821 34.2707 26.3859 34.2683C26.4758 34.2162 26.577 34.1366 26.6864 34.1352C26.8039 34.133 26.8868 34.246 26.858 34.3586C26.8311 34.469 26.717 34.5419 26.6255 34.5981C26.5472 34.6449 26.397 34.7013 26.3531 34.7668C26.2461 34.9261 26.5559 34.8814 26.6245 34.8397C26.6702 34.8105 26.7477 34.8146 26.7777 34.8682C26.8431 34.9891 26.8373 35.1074 26.8022 35.2369C26.7697 35.3519 26.7077 35.4761 26.7466 35.5958C26.8247 35.8371 27.1489 36.0262 27.3951 35.9557C27.5822 35.9016 27.6852 35.7041 27.7464 35.5333C27.8168 35.3352 27.8415 35.1257 27.8541 34.9174C27.8909 34.3414 27.8922 33.7163 27.4413 33.2869C27.1933 33.0513 26.6364 32.771 26.4138 33.1819Z" fill="#5B5B5B" stroke="#5B5B5B" stroke-miterlimit="10"/>
<path opacity="0.5" d="M27.3782 35.1402C27.2195 35.0209 27.008 35.035 26.8276 35.0946C26.8246 35.1436 26.8156 35.1932 26.8026 35.2433C26.7701 35.3583 26.7081 35.4825 26.747 35.6022C26.8251 35.8435 27.1494 36.0326 27.3956 35.9621C27.565 35.9139 27.6651 35.7471 27.7276 35.5884C27.5786 35.464 27.5323 35.2559 27.3782 35.1402Z" fill="#F9EEEB"/>
<path opacity="0.5" d="M27.197 33.4379C27.4326 33.4984 27.5881 33.6646 27.7675 33.8081C27.7029 33.6181 27.6014 33.4441 27.4414 33.2925C27.1935 33.0568 26.6365 32.7766 26.4139 33.1875C26.3326 33.3401 26.2883 33.5172 26.2741 33.6911C26.5635 33.5491 26.8591 33.3497 27.197 33.4379Z" fill="#F9EEEB"/>
<path d="M22.068 34.5131C21.8816 34.342 21.6056 34.2452 21.3701 34.1665C21.0755 34.0656 20.7663 34.0007 20.4555 33.9968C20.1772 33.9936 19.9379 34.0715 19.7007 34.1898C19.7007 34.1898 19.7007 34.1898 19.6987 34.19C19.4665 34.393 19.1292 34.4081 18.8427 34.4808C18.7519 34.5046 18.6608 34.5263 18.5698 34.5481C18.5361 34.5557 18.4677 34.5811 18.4142 34.5928C18.4275 34.6036 18.4388 34.6146 18.4515 34.6193C18.5048 34.6442 18.5647 34.6541 18.6219 34.6582C18.9188 34.6838 19.2332 34.6062 19.5198 34.5334C19.8219 34.455 20.1018 34.2795 20.4115 34.2348C20.7032 34.192 20.9392 34.3132 21.2098 34.3984C21.5123 34.4965 21.7977 34.6247 22.0902 34.7441C22.1009 34.7491 22.168 34.7704 22.2189 34.7914C22.2175 34.7774 22.216 34.7634 22.2131 34.7555C22.1892 34.6627 22.1398 34.5786 22.068 34.5131Z" fill="#5B5B5B"/>
<path d="M22.179 34.9353C21.9289 34.6978 21.6007 34.4706 21.2452 34.4471C21.1349 34.4404 21.0227 34.4542 20.9777 34.5665C20.9311 34.683 20.9483 34.8272 20.9512 34.9507C20.9553 35.1248 20.9622 35.5765 21.2451 35.4311C21.43 35.3366 21.6134 35.0738 21.8483 35.1668C21.8948 35.1843 21.9207 35.2181 21.9309 35.2576C21.9808 35.3071 22.0003 35.3964 21.9382 35.4617C21.8325 35.5763 21.6926 35.6539 21.5708 35.7499C21.4846 35.8178 21.2964 35.9573 21.3488 36.0897C21.391 36.2009 21.5636 36.0286 21.6208 35.9942C21.7313 35.9258 21.8872 35.9033 21.9601 36.0376C22.0232 36.1548 21.9617 36.3033 21.9229 36.4169C21.8778 36.5474 21.8205 36.6975 21.8433 36.8371C21.8919 37.1445 22.4299 37.09 22.6121 36.9511C22.7511 36.8452 22.757 36.6701 22.7484 36.5107C22.7362 36.3172 22.7273 36.1173 22.693 35.9261C22.6583 35.7309 22.6107 35.529 22.5173 35.3542C22.4315 35.1948 22.3098 35.0595 22.179 34.9353Z" fill="#5B5B5B" stroke="#5B5B5B" stroke-miterlimit="10"/>
<path opacity="0.5" d="M20.9399 34.8645C21.0025 34.9391 21.1378 34.8944 21.2193 34.8777C21.3208 34.8589 21.4184 34.8426 21.5223 34.8459C21.6628 34.8514 21.9306 34.947 22.0032 34.7892C21.7817 34.6117 21.5167 34.465 21.237 34.4478C21.1267 34.4411 21.0145 34.4549 20.9695 34.5672C20.9342 34.6561 20.9352 34.7615 20.9395 34.8605C20.9397 34.8625 20.9397 34.8625 20.9399 34.8645Z" fill="#F9EEEB"/>
<path opacity="0.5" d="M22.3723 36.3129C22.1182 36.2889 21.9902 36.4606 21.8461 36.634C21.831 36.7025 21.8219 36.7705 21.8331 36.8383C21.8816 37.1456 22.4196 37.0911 22.6018 36.9522C22.7088 36.87 22.7365 36.7474 22.7395 36.6213C22.6664 36.4666 22.5587 36.3298 22.3723 36.3129Z" fill="#F9EEEB"/>
</svg>
