<svg width="115" height="44" viewBox="0 0 115 44" fill="none" xmlns="http://www.w3.org/2000/svg">
<path d="M33.961 16.0168C33.961 14.2053 32.7605 12.6904 31.1699 12.3259C31.8055 11.1906 32.1956 9.87786 32.1956 8.4612C32.1956 4.29431 29.0285 0.90564 25.1341 0.90564C22.456 0.90564 20.1539 2.52442 18.9552 4.87986C17.7565 2.52442 15.4545 0.90564 12.7764 0.90564C8.88194 0.90564 5.71484 4.29431 5.71484 8.4612C5.71484 10.165 6.26564 11.7233 7.15716 12.987C6.71156 13.3356 6.34883 13.7915 6.09829 14.3178C5.84774 14.8441 5.71639 15.4261 5.71484 16.0168V31.1279C5.71484 33.2113 7.29839 34.9056 9.24561 34.9056H30.4302C32.3774 34.9056 33.961 33.2113 33.961 31.1279V26.145L41.0225 29.9228V16.7005L33.961 20.4783V16.0168ZM25.1341 4.68342C27.0813 4.68342 28.6648 6.37775 28.6648 8.4612C28.6648 10.5446 27.0813 12.239 25.1341 12.239C23.1869 12.239 21.6033 10.5446 21.6033 8.4612C21.6033 6.37775 23.1869 4.68342 25.1341 4.68342ZM12.7764 4.68342C14.7236 4.68342 16.3072 6.37775 16.3072 8.4612C16.3072 10.5446 14.7236 12.239 12.7764 12.239C10.8292 12.239 9.24561 10.5446 9.24561 8.4612C9.24561 6.37775 10.8292 4.68342 12.7764 4.68342ZM9.24561 31.1279V16.0168H30.4302L30.4338 31.1279H9.24561Z" fill="#E9706E"/>
<path d="M52.2188 18.2976C54.2348 17.8496 56.6028 17.3056 59.0028 16.7616L58.8748 14.5856C56.1228 15.0016 53.4348 15.3856 51.4828 15.6096V11.2256H53.2108L52.3148 13.0176C54.1388 13.4016 56.5388 14.0736 57.8188 14.5856L58.8428 12.5376C57.6268 12.0896 55.5788 11.5456 53.8508 11.2256H59.9628V17.8816H63.6748V11.2256H69.1468C67.8028 11.7376 66.0108 12.3136 64.7628 12.6016L65.9468 14.3936C67.6108 14.0736 69.9468 13.5616 71.6428 12.8576L70.4908 11.2256H72.2188V15.8016C70.4588 15.2256 67.2908 14.5536 65.0188 14.2976L64.2828 16.4416C66.6828 16.8256 69.9788 17.6256 71.6748 18.2336L72.3468 15.9296H76.0268V8.72964H63.6748V7.44964H74.3948V4.95364H49.3068V7.44964H59.9628V8.72964H47.8668V15.9296H51.3548L52.2188 18.2976ZM54.4588 26.3616V24.9216H59.7708V26.3616H54.4588ZM59.7708 21.2416V22.6816H54.4588V21.2416H59.7708ZM69.2108 22.6816H63.4188V21.2416H69.2108V22.6816ZM63.4188 26.3616V24.9216H69.2108V26.3616H63.4188ZM65.7228 30.3616C63.8028 30.3616 63.4188 30.1696 63.4188 29.0176V28.9216H72.9868V18.6816H50.8108V30.2976H54.4588V28.9216H59.7708V29.0176C59.7708 32.3456 61.0188 33.2416 65.3708 33.2416H72.0908C75.5788 33.2416 76.6348 32.2176 77.0828 28.3776C76.0908 28.1856 74.6508 27.7056 73.9148 27.1936C73.6908 29.8816 73.4028 30.3616 71.7708 30.3616H65.7228ZM105.531 4.34564C103.867 6.87364 100.699 9.46564 98.0108 10.9056C98.9708 11.6096 100.091 12.7616 100.699 13.5616C103.739 11.6736 106.939 8.88964 109.115 5.81764L105.531 4.34564ZM106.331 12.9856C104.539 15.7056 101.019 18.3936 98.1068 19.9936C99.0668 20.6976 100.123 21.7856 100.731 22.6496C103.995 20.6656 107.451 17.6896 109.819 14.4576L106.331 12.9856ZM86.0748 10.5856H94.0428V11.8016H86.0748V10.5856ZM86.0748 7.22564H94.0428V8.40964H86.0748V7.22564ZM98.9388 15.5776H92.2828C92.0908 15.0656 91.8028 14.5536 91.5468 14.1056H97.8188V4.92164H82.4588V14.1056H90.2668L87.7708 14.6176C87.9308 14.9056 88.0588 15.2256 88.2188 15.5776H81.0188V18.4576H98.9388V15.5776ZM83.8988 26.2656C83.2268 27.8336 82.1388 29.5616 80.9868 30.7456C81.7228 31.1936 83.0348 32.1856 83.6108 32.7296C84.7948 31.3536 86.2028 29.1456 87.0668 27.2256L83.8988 26.2656ZM86.4908 22.0096H93.6588V23.6736H86.4908V22.0096ZM97.3708 26.1376V19.5456H82.9708V26.1376H88.1228V30.2336C88.1228 30.5216 88.0268 30.6176 87.7068 30.6176C87.3868 30.6176 86.3948 30.6176 85.4348 30.5856C85.8828 31.4496 86.3308 32.6656 86.4908 33.6256C88.1868 33.6256 89.5308 33.5936 90.5228 33.1456C91.6108 32.6656 91.8348 31.8976 91.8348 30.3296V26.1376H97.3708ZM106.907 21.9456C104.955 25.5616 101.243 28.6336 97.4668 30.4256C96.8588 29.1776 95.8668 27.4816 95.0668 26.2336L92.3788 27.3536C93.4028 29.0176 94.5228 31.2256 95.0028 32.5696L97.8188 31.2256C97.7228 31.0016 97.6268 30.7776 97.5308 30.5216C98.4588 31.3216 99.4828 32.5056 100.059 33.4336C104.251 31.0976 108.027 27.5456 110.427 23.2576L106.907 21.9456Z" fill="#E9706E"/>
<line x1="2.46484" y1="42.1556" x2="112.965" y2="42.1557" stroke="#E9706E" stroke-width="3.5" stroke-linecap="round"/>
</svg>
