<svg width="90" height="22" viewBox="0 0 90 22" fill="none" xmlns="http://www.w3.org/2000/svg">
<path d="M3.49017 6.10246H7.01017V7.11446H3.49017V6.10246ZM7.01017 3.48446V4.51846H3.49017V3.48446H7.01017ZM8.02217 12.4825C8.11017 12.7025 8.22017 12.9445 8.28617 13.1865L6.92217 13.3185C7.93417 12.5925 8.92417 11.6685 9.78217 10.7665L8.50617 9.88646C8.24217 10.2165 7.97817 10.5685 7.69217 10.8985L6.54817 10.9425C7.07617 10.4805 7.62617 9.88646 8.06617 9.31446L7.25217 8.87446H9.47417V1.72446H0.982168V21.4365H3.49017V8.87446H6.39417C5.95417 9.64446 5.31617 10.2605 5.09617 10.4365C4.87617 10.6785 4.61217 10.7885 4.37017 10.8325C4.56817 11.2505 4.81017 11.9985 4.89817 12.3285V12.3505C5.09617 12.2625 5.42617 12.1745 6.46017 12.0865C6.04217 12.4825 5.69017 12.7685 5.51417 12.9005C5.07417 13.2305 4.67817 13.4505 4.37017 13.4945C4.52417 13.8905 4.74417 14.6385 4.81017 14.9465V14.9685C5.16217 14.8145 5.69017 14.7045 8.70417 14.3305C8.74817 14.5285 8.79217 14.7265 8.83617 14.8805H7.86817V16.9485V17.1245H6.54817V15.2545H4.96417V18.5765H7.45017C7.09817 19.1045 6.46017 19.5665 5.31617 19.8745C5.69017 20.2045 6.24017 20.9085 6.43817 21.3265C9.21017 20.3585 9.65017 18.7305 9.65017 16.9925V14.8805H9.32017L10.2002 14.5725C10.0242 13.9565 9.62817 12.9445 9.27617 12.1525L8.02217 12.4825ZM15.4802 15.2545H13.8082V17.1245H12.4882V14.8805H11.0362C11.4762 14.7705 12.3342 14.6165 14.6222 14.3305C14.6882 14.5945 14.7762 14.8585 14.8422 15.0565L16.1402 14.5505C15.9422 13.9565 15.5022 12.9225 15.1062 12.1305L13.8742 12.5265C13.9842 12.7465 14.0722 12.9885 14.1822 13.2305L12.8402 13.3625C13.8302 12.5925 14.7982 11.6685 15.6782 10.7445L14.4242 9.84246C14.1602 10.1945 13.8522 10.5465 13.5222 10.8985L12.4442 10.9425C12.9722 10.4805 13.4782 9.90846 13.9182 9.33646L13.0602 8.87446H17.0422V18.4005C17.0422 18.6865 16.9542 18.7965 16.6682 18.7965C16.4702 18.8185 16.0082 18.8185 15.4802 18.7965V15.2545ZM17.0422 3.48446V4.51846H13.4122V3.48446H17.0422ZM13.4122 6.10246H17.0422V7.11446H13.4122V6.10246ZM19.5722 1.72446H10.9262V8.87446H12.2682C11.8062 9.66646 11.1682 10.2825 10.9702 10.4805C10.7502 10.7005 10.4862 10.8105 10.2442 10.8765C10.4422 11.2725 10.6842 12.0205 10.7722 12.3725C10.9702 12.2845 11.3002 12.1965 12.3342 12.1085C11.9162 12.5045 11.5862 12.7905 11.4102 12.9225C10.9702 13.2745 10.5962 13.4945 10.2442 13.5165C10.3982 13.8905 10.5962 14.5285 10.7062 14.8805H10.6622V21.1505H12.4882V18.5765H13.8082V19.1925H14.8642C15.1282 19.8745 15.3482 20.7545 15.4142 21.3265C16.8882 21.3265 17.9222 21.2825 18.6482 20.8425C19.3962 20.4025 19.5722 19.6765 19.5722 18.4225V1.72446ZM27.7122 9.11646C27.7342 8.32446 27.7562 7.55446 27.7562 6.71846H32.6842V4.29846H28.5482L29.9562 3.72646C29.6702 2.91246 28.9442 1.68046 28.2842 0.77846L25.9522 1.65846C26.4802 2.45046 27.0522 3.48446 27.3602 4.29846H23.4882V6.71846H25.2042C25.1602 12.2845 25.0062 16.6185 22.8502 19.4345C23.5102 19.8525 24.3242 20.7545 24.7422 21.3925C26.6342 18.9945 27.3162 15.6065 27.6022 11.4925H29.5822C29.4942 16.2445 29.3402 17.9825 29.0542 18.4225C28.8782 18.6645 28.7022 18.7525 28.4382 18.7525C28.1082 18.7525 27.5582 18.7305 26.9202 18.6865C27.2722 19.3245 27.5362 20.3145 27.5802 21.0405C28.4602 21.0625 29.2522 21.0405 29.8022 20.9525C30.3962 20.8205 30.8362 20.6225 31.2322 20.0065C31.8042 19.2365 31.9582 16.7505 32.0902 10.1505C32.1122 9.84246 32.1122 9.11646 32.1122 9.11646H27.7122ZM33.7622 17.0585C35.8302 18.2245 38.6462 20.0285 39.9222 21.2605L41.7482 19.0165C40.3182 17.8505 37.4582 16.1565 35.4122 15.1225L33.7622 17.0585ZM40.7802 12.3505C39.9222 11.4485 38.1842 10.1945 36.9082 9.33646L35.2362 11.0305C36.5122 11.9765 38.2062 13.3185 38.9762 14.2205L40.7802 12.3505ZM37.0842 0.77846C36.0942 4.21046 34.1362 6.98246 31.5842 8.56646C32.2442 9.09446 33.0142 9.99646 33.3882 10.6345C35.2362 9.31446 36.7102 7.59846 37.8322 5.50846C38.9982 7.51046 40.4942 9.35846 42.0782 10.4805C42.5182 9.84246 43.3322 8.87446 43.9482 8.41246C41.9682 7.26846 40.0542 5.11246 38.9762 3.00046C39.1742 2.49446 39.3502 1.98846 39.5042 1.46046L37.0842 0.77846ZM50.2182 4.12246C49.3382 6.65246 47.8642 9.46846 46.4122 11.2285C47.0502 11.5145 48.1722 12.1305 48.7002 12.5045C50.0642 10.5905 51.6262 7.55446 52.7042 4.76046L50.2182 4.12246ZM60.3822 5.11246C61.7902 7.37846 63.5282 10.4805 64.3422 12.4165L66.5862 11.0965C65.7062 9.16046 63.9902 6.27846 62.4942 4.01246L60.3822 5.11246ZM61.6142 12.2185C58.8862 16.6845 53.3642 18.2685 46.0162 18.8845C46.5002 19.5665 47.0062 20.6225 47.2262 21.3925C55.0582 20.4905 60.8882 18.4885 64.0122 13.2745L61.6142 12.2185ZM54.8602 0.910461V14.5945H57.4562V0.910461H54.8602ZM82.9982 8.56646C82.2502 10.9205 81.2602 12.7685 79.8522 14.1985C78.5762 13.6265 77.2342 13.0545 75.9142 12.4825C76.4422 11.3165 77.0142 9.97446 77.5422 8.56646H82.9982ZM89.3782 8.56646V5.75046H86.6722C86.7602 5.26646 86.8482 4.76046 86.9362 4.25446L84.1202 3.59446C84.0102 4.36446 83.8782 5.06846 83.7462 5.75046H78.5762C79.1262 4.21046 79.5882 2.60446 79.9402 1.13046L77.1242 0.73446C76.7282 2.34046 76.1562 4.05646 75.5402 5.75046H69.7982V8.56646H74.4402C73.6042 10.5025 72.7462 12.2845 71.9322 13.7365C73.7802 14.4625 75.6502 15.2985 77.4542 16.1565C75.4082 17.3885 72.7682 18.2245 69.4242 18.7745C70.0402 19.4565 70.6782 20.5565 70.9862 21.3265C74.9902 20.5345 78.0482 19.3685 80.4022 17.6085C83.0862 18.9725 85.4622 20.3365 87.2002 21.4585L89.2462 18.9505C87.5302 17.9605 85.1982 16.7285 82.6022 15.4965C84.0982 13.6925 85.1982 11.4485 86.0122 8.56646H89.3782Z" fill="#E9706E"/>
</svg>
