<svg width="89" height="22" viewBox="0 0 89 22" fill="none" xmlns="http://www.w3.org/2000/svg">
<path d="M2.89446 6.05656H6.41446V7.06856H2.89446V6.05656ZM6.41446 3.43856V4.47256H2.89446V3.43856H6.41446ZM7.42646 12.4366C7.51447 12.6566 7.62447 12.8986 7.69047 13.1406L6.32647 13.2726C7.33847 12.5466 8.32847 11.6226 9.18647 10.7206L7.91047 9.84056C7.64647 10.1706 7.38247 10.5226 7.09647 10.8526L5.95246 10.8966C6.48047 10.4346 7.03047 9.84056 7.47047 9.26856L6.65647 8.82856H8.87847V1.67856H0.386465V21.3906H2.89446V8.82856H5.79846C5.35847 9.59856 4.72047 10.2146 4.50047 10.3906C4.28046 10.6326 4.01646 10.7426 3.77447 10.7866C3.97247 11.2046 4.21447 11.9526 4.30247 12.2826V12.3046C4.50047 12.2166 4.83046 12.1286 5.86447 12.0406C5.44646 12.4366 5.09446 12.7226 4.91847 12.8546C4.47846 13.1846 4.08247 13.4046 3.77447 13.4486C3.92847 13.8446 4.14847 14.5926 4.21447 14.9006V14.9226C4.56647 14.7686 5.09446 14.6586 8.10847 14.2846C8.15247 14.4826 8.19647 14.6806 8.24046 14.8346H7.27246V16.9026V17.0786H5.95246V15.2086H4.36847V18.5306H6.85447C6.50247 19.0586 5.86447 19.5206 4.72047 19.8286C5.09446 20.1586 5.64446 20.8626 5.84247 21.2806C8.61447 20.3126 9.05447 18.6846 9.05447 16.9466V14.8346H8.72447L9.60447 14.5266C9.42847 13.9106 9.03247 12.8986 8.68047 12.1066L7.42646 12.4366ZM14.8845 15.2086H13.2125V17.0786H11.8925V14.8346H10.4405C10.8805 14.7246 11.7385 14.5706 14.0265 14.2846C14.0925 14.5486 14.1805 14.8126 14.2465 15.0106L15.5445 14.5046C15.3465 13.9106 14.9065 12.8766 14.5105 12.0846L13.2785 12.4806C13.3885 12.7006 13.4765 12.9426 13.5865 13.1846L12.2445 13.3166C13.2345 12.5466 14.2025 11.6226 15.0825 10.6986L13.8285 9.79656C13.5645 10.1486 13.2565 10.5006 12.9265 10.8526L11.8485 10.8966C12.3765 10.4346 12.8825 9.86256 13.3225 9.29056L12.4645 8.82856H16.4465V18.3546C16.4465 18.6406 16.3585 18.7506 16.0725 18.7506C15.8745 18.7726 15.4125 18.7726 14.8845 18.7506V15.2086ZM16.4465 3.43856V4.47256H12.8165V3.43856H16.4465ZM12.8165 6.05656H16.4465V7.06856H12.8165V6.05656ZM18.9765 1.67856H10.3305V8.82856H11.6725C11.2105 9.62056 10.5725 10.2366 10.3745 10.4346C10.1545 10.6546 9.89047 10.7646 9.64847 10.8306C9.84647 11.2266 10.0885 11.9746 10.1765 12.3266C10.3745 12.2386 10.7045 12.1506 11.7385 12.0626C11.3205 12.4586 10.9905 12.7446 10.8145 12.8766C10.3745 13.2286 10.0005 13.4486 9.64847 13.4706C9.80247 13.8446 10.0005 14.4826 10.1105 14.8346H10.0665V21.1046H11.8925V18.5306H13.2125V19.1466H14.2685C14.5325 19.8286 14.7525 20.7086 14.8185 21.2806C16.2925 21.2806 17.3265 21.2366 18.0525 20.7966C18.8005 20.3566 18.9765 19.6306 18.9765 18.3766V1.67856ZM27.1165 9.07056C27.1385 8.27856 27.1605 7.50856 27.1605 6.67256H32.0885V4.25256H27.9525L29.3605 3.68056C29.0745 2.86656 28.3485 1.63456 27.6885 0.732561L25.3565 1.61256C25.8845 2.40456 26.4565 3.43856 26.7645 4.25256H22.8925V6.67256H24.6085C24.5645 12.2386 24.4105 16.5726 22.2545 19.3886C22.9145 19.8066 23.7285 20.7086 24.1465 21.3466C26.0385 18.9486 26.7205 15.5606 27.0065 11.4466H28.9865C28.8985 16.1986 28.7445 17.9366 28.4585 18.3766C28.2825 18.6186 28.1065 18.7066 27.8425 18.7066C27.5125 18.7066 26.9625 18.6846 26.3245 18.6406C26.6765 19.2786 26.9405 20.2686 26.9845 20.9946C27.8645 21.0166 28.6565 20.9946 29.2065 20.9066C29.8005 20.7746 30.2405 20.5766 30.6365 19.9606C31.2085 19.1906 31.3625 16.7046 31.4945 10.1046C31.5165 9.79656 31.5165 9.07056 31.5165 9.07056H27.1165ZM33.1665 17.0126C35.2345 18.1786 38.0505 19.9826 39.3265 21.2146L41.1525 18.9706C39.7225 17.8046 36.8625 16.1106 34.8165 15.0766L33.1665 17.0126ZM40.1845 12.3046C39.3265 11.4026 37.5885 10.1486 36.3125 9.29056L34.6405 10.9846C35.9165 11.9306 37.6105 13.2726 38.3805 14.1746L40.1845 12.3046ZM36.4885 0.732561C35.4985 4.16456 33.5405 6.93656 30.9885 8.52056C31.6485 9.04856 32.4185 9.95056 32.7925 10.5886C34.6405 9.26856 36.1145 7.55256 37.2365 5.46256C38.4025 7.46456 39.8985 9.31256 41.4825 10.4346C41.9225 9.79656 42.7365 8.82856 43.3525 8.36656C41.3725 7.22256 39.4585 5.06656 38.3805 2.95456C38.5785 2.44856 38.7545 1.94256 38.9085 1.41456L36.4885 0.732561ZM49.6225 4.07656C48.7425 6.60656 47.2685 9.42256 45.8165 11.1826C46.4545 11.4686 47.5765 12.0846 48.1045 12.4586C49.4685 10.5446 51.0305 7.50856 52.1085 4.71456L49.6225 4.07656ZM59.7865 5.06656C61.1945 7.33256 62.9325 10.4346 63.7465 12.3706L65.9905 11.0506C65.1105 9.11456 63.3945 6.23256 61.8985 3.96656L59.7865 5.06656ZM61.0185 12.1726C58.2905 16.6386 52.7685 18.2226 45.4205 18.8386C45.9045 19.5206 46.4105 20.5766 46.6305 21.3466C54.4625 20.4446 60.2925 18.4426 63.4165 13.2286L61.0185 12.1726ZM54.2645 0.864562V14.5486H56.8605V0.864562H54.2645ZM82.4025 8.52056C81.6545 10.8746 80.6645 12.7226 79.2565 14.1526C77.9805 13.5806 76.6385 13.0086 75.3185 12.4366C75.8465 11.2706 76.4185 9.92856 76.9465 8.52056H82.4025ZM88.7825 8.52056V5.70456H86.0765C86.1645 5.22056 86.2525 4.71456 86.3405 4.20856L83.5245 3.54856C83.4145 4.31856 83.2825 5.02256 83.1505 5.70456H77.9805C78.5305 4.16456 78.9925 2.55856 79.3445 1.08456L76.5285 0.688562C76.1325 2.29456 75.5605 4.01056 74.9445 5.70456H69.2025V8.52056H73.8445C73.0085 10.4566 72.1505 12.2386 71.3365 13.6906C73.1845 14.4166 75.0545 15.2526 76.8585 16.1106C74.8125 17.3426 72.1725 18.1786 68.8285 18.7286C69.4445 19.4106 70.0825 20.5106 70.3905 21.2806C74.3945 20.4886 77.4525 19.3226 79.8065 17.5626C82.4905 18.9266 84.8665 20.2906 86.6045 21.4126L88.6505 18.9046C86.9345 17.9146 84.6025 16.6826 82.0065 15.4506C83.5025 13.6466 84.6025 11.4026 85.4165 8.52056H88.7825Z" fill="#FEFFF9"/>
</svg>
