<svg width="83" height="20" viewBox="0 0 83 20" fill="none" xmlns="http://www.w3.org/2000/svg">
<path d="M4.28391 3.46H1.62391V4.82H9.46391V3.46H6.88391V3.06H9.98391V1.68H6.88391V0.9H4.28391V1.68H1.06391V3.06H4.28391V3.46ZM11.8839 9.96C12.7239 9.78 13.5039 9.56 14.2039 9.28C14.9239 9.56 15.6839 9.8 16.5439 9.96H11.8839ZM13.4239 12.38H6.58391V11.92H13.4239V12.38ZM6.58391 16.56V16.12H13.4239V16.56H6.58391ZM13.4239 14.48H6.58391V14.02H13.4239V14.48ZM15.0439 6.42C14.7639 6.68 14.4239 6.92 14.0439 7.12C13.6639 6.92 13.3239 6.68 13.0639 6.42H15.0439ZM14.6839 3.12C14.7239 4.1 14.9439 4.72 15.7839 4.94H12.3039C12.9239 4.4 13.2239 3.78 13.3439 3.12H14.6839ZM4.62391 6.54V7.32H3.92391C3.94391 7.06 3.94391 6.82 3.94391 6.58V6.54H4.62391ZM7.36391 7.32H6.60391V6.54H7.36391V7.32ZM17.3639 5.04H17.8239C18.2239 5.04 18.7439 5.02 19.0239 4.9C18.9439 4.34 18.9239 3.78 18.8839 3.2C18.6239 3.3 18.0439 3.34 17.7639 3.34H17.3039C17.0039 3.34 16.9839 3.14 16.9839 2.8V1.28H11.2439V2.28C11.2439 2.96 11.0439 3.52 9.48391 4.04C9.72391 4.2 10.0839 4.58 10.4039 4.94H10.3839V6.42H12.0039L10.8639 6.72C11.1639 7.16 11.5239 7.54 11.9239 7.9C11.2039 8.08 10.4239 8.2 9.58391 8.28C9.94391 8.68 10.3439 9.4 10.5839 9.96H3.06391C3.34391 9.56 3.54391 9.1 3.68391 8.64H9.56391V5.22H1.78391V6.52C1.78391 7.38 1.66391 8.44 0.623906 9.32C0.923906 9.44 1.38391 9.7 1.82391 9.96H1.58391V11.92H3.76391V16.56H1.02391V18.52H13.4239V19.9H16.3039V18.52H18.9439V16.56H16.3039V11.92H18.4239V9.96H17.9039C18.2039 9.4 18.7239 8.66 19.1439 8.26C18.2039 8.2 17.3239 8.1 16.5239 7.94C17.3039 7.26 17.9239 6.44 18.3639 5.38L17.3639 5.04ZM25.3439 5.38H29.7439V5.86H25.3439V5.38ZM25.3439 3.3H29.7439V3.78H25.3439V3.3ZM33.3039 8.26H29.2639C29.1639 8.02 29.0439 7.78 28.9239 7.56H32.6239V5.42C33.3039 5.96 34.0439 6.72 34.4639 7.28C36.4039 6.06 38.3639 4.32 39.7639 2.32L37.0039 1.22C36.0639 2.74 34.2439 4.24 32.6239 5.14V1.6H22.6039V7.56H27.5439L26.0039 7.86C26.0639 7.98 26.1239 8.12 26.1839 8.26H21.7639V10.44H33.3039V8.26ZM37.4239 6.68C36.3639 8.34 34.2439 10 32.5039 10.96C33.2239 11.5 34.0639 12.36 34.5039 13C36.5039 11.7 38.6039 9.86 40.0839 7.78L37.4239 6.68ZM28.9239 15.92V15.24H30.5039L28.9239 15.92ZM23.9439 15.24H26.0839V17.4C26.0839 17.58 26.0239 17.64 25.8239 17.64C25.6839 17.64 25.3039 17.64 24.9239 17.64C25.2839 17.04 25.6039 16.4 25.8639 15.82L23.9439 15.24ZM25.6839 12.74H29.4639V13.42H25.6839V12.74ZM32.2839 15.24V10.9H23.0039V15.24H23.4239C23.0239 16.16 22.3839 17.18 21.7639 17.88C22.3039 18.24 23.2639 18.98 23.7039 19.4C24.0239 19.02 24.3839 18.5 24.7239 17.96C24.9839 18.56 25.2439 19.32 25.3439 19.92C26.4039 19.92 27.2839 19.9 28.0039 19.56C28.7639 19.2 28.9239 18.62 28.9239 17.48V16.06C29.4839 17.12 30.1039 18.52 30.3639 19.38L32.5239 18.38C32.2439 17.54 31.5639 16.26 30.9839 15.24H32.2839ZM37.7239 12.18C36.5839 14.44 34.3839 16.34 32.1639 17.44C32.8839 18.04 33.7239 19 34.1639 19.72C36.7039 18.18 38.9439 15.98 40.4239 13.16L37.7239 12.18ZM46.2039 3.72C45.4039 6.1 44.0439 8.76 42.7239 10.38C43.4239 10.68 44.6839 11.34 45.2639 11.76C46.5039 9.96 47.9839 7.08 48.9639 4.46L46.2039 3.72ZM55.3239 4.84C56.6239 6.98 58.2039 9.9 58.9039 11.72L61.4039 10.24C60.6039 8.44 59.0439 5.72 57.6839 3.6L55.3239 4.84ZM56.4439 11.26C53.9839 15.44 49.0239 16.64 42.3639 17.08C42.9039 17.82 43.4639 19 43.7039 19.86C50.9239 19.1 56.2039 17.44 59.1239 12.42L56.4439 11.26ZM50.3239 0.939999V13.54H53.2239V0.939999H50.3239ZM75.8839 8.3C75.2439 10.18 74.4039 11.66 73.3039 12.82C72.2639 12.36 71.2039 11.9 70.1639 11.46C70.5639 10.5 71.0039 9.42 71.4239 8.3H75.8839ZM82.1439 17.12C80.6439 16.32 78.6039 15.3 76.3439 14.22C77.5839 12.68 78.5239 10.74 79.2239 8.3H82.0639V5.16H79.9839C80.0639 4.74 80.1239 4.3 80.2039 3.86L77.0839 3.14C76.9839 3.84 76.8639 4.52 76.7239 5.16H72.5239C72.9439 3.86 73.3239 2.54 73.6039 1.26L70.4639 0.819999C70.1239 2.22 69.6839 3.68 69.1639 5.16H64.0439V8.3H67.9439C67.2439 9.98 66.4839 11.56 65.7639 12.84C67.3439 13.48 68.9439 14.18 70.4839 14.92C68.6639 15.88 66.3639 16.5 63.5039 16.94C64.1839 17.7 64.9039 18.92 65.2239 19.78C68.8439 19.08 71.6439 18.1 73.8239 16.58C76.2039 17.8 78.3239 19 79.8839 19.94L82.1439 17.12Z" fill="#E9706E"/>
</svg>
