<svg width="263" height="67" viewBox="0 0 263 67" fill="none" xmlns="http://www.w3.org/2000/svg">
<path d="M73.0416 7.41851C70.7916 13.8085 66.8766 20.1985 62.8266 24.2485C63.7266 25.5535 65.2116 28.4785 65.7066 29.8285C66.6966 28.7485 67.7316 27.5335 68.7216 26.1835V49.1785H73.8516V18.2185C75.5166 15.2485 76.9566 12.0985 78.1266 8.99351L73.0416 7.41851ZM81.3666 27.2635C80.3316 32.2585 78.4416 37.3435 75.8766 40.4935C77.1816 41.1685 79.4316 42.5185 80.4666 43.3735C82.9866 39.7285 85.2816 34.0585 86.5866 28.3435L81.3666 27.2635ZM100.087 20.2435C99.8616 22.2235 99.5916 24.1135 99.3666 25.5085L103.912 26.2735C104.542 23.6635 105.307 19.4785 105.847 15.8335L102.067 15.1135L101.212 15.2935H85.7316C86.5416 13.0885 87.2616 10.8835 87.8466 8.58851L82.6266 7.41851C81.0966 13.5835 78.3966 19.7935 74.9766 23.6185C76.1916 24.4285 78.3516 26.1835 79.2966 27.1285C80.7816 25.2385 82.2666 22.8535 83.5266 20.2435H88.7466V43.1935C88.7466 43.7785 88.5216 43.9585 87.9366 43.9585C87.3066 43.9585 85.4166 43.9585 83.5266 43.9135C84.3366 45.3535 85.1466 47.7385 85.3716 49.3135C88.2516 49.3135 90.4116 49.0885 91.9866 48.2335C93.6066 47.3335 94.0566 45.8485 94.0566 43.2835V20.2435H100.087ZM95.6766 28.4335C97.8366 33.0685 99.7266 39.2335 100.222 43.2385L105.352 41.4835C104.722 37.4335 102.787 31.4485 100.447 26.8135L95.6766 28.4335ZM117.817 39.9085V31.0885H124.972V39.9085H117.817ZM124.972 26.4535H117.817V19.1635H124.972V26.4535ZM139.237 14.1685C139.912 12.2785 140.542 10.3885 140.992 8.45351L135.907 7.28351C134.602 12.5485 132.442 17.9935 129.832 21.7735V14.4835H122.857C123.622 12.5485 124.432 10.2985 125.197 8.04851L119.347 7.23851C119.167 9.35352 118.627 12.2335 118.042 14.4835H112.957V47.9185H117.817V44.6335H129.832V23.6185C131.047 24.4285 132.577 25.4635 133.297 26.1385C134.692 24.2035 136.087 21.7285 137.257 19.0285H146.887C146.392 34.9135 145.807 41.6635 144.502 43.1035C143.917 43.6885 143.422 43.8685 142.522 43.8685C141.352 43.8685 138.697 43.8685 135.817 43.5985C136.762 45.0835 137.482 47.3335 137.572 48.8185C140.227 48.9085 142.927 48.9535 144.637 48.7285C146.437 48.4135 147.697 47.9185 148.957 46.2535C150.802 43.8685 151.297 36.7135 151.882 16.5985C151.927 15.9685 151.927 14.1685 151.927 14.1685H139.237ZM144.457 34.6885C143.062 32.0785 140.092 27.8035 137.842 24.6985L133.657 27.0835C135.862 30.3685 138.652 34.7785 139.912 37.4785L144.457 34.6885ZM167.047 13.1335H160.702V15.7885H178.072V13.1335H171.862V11.8285H179.242V9.12851H171.862V7.19351H167.047V9.12851H159.397V11.8285H167.047V13.1335ZM170.827 42.2485V40.7185H187.747V42.2485H170.827ZM187.747 31.3135V32.8435H170.827V31.3135H187.747ZM181.672 27.6235C184.282 27.1285 186.622 26.4535 188.782 25.5535C190.897 26.4985 193.327 27.1735 196.072 27.6235H181.672ZM191.392 19.2535C190.582 20.1085 189.637 20.8285 188.512 21.4135C187.342 20.8285 186.352 20.1085 185.632 19.2535H191.392ZM190.267 11.7385V11.9635C190.267 14.8885 190.807 16.3735 194.092 16.3735H194.227L193.957 16.4185H183.517C185.317 15.0685 186.037 13.4485 186.262 11.7385H190.267ZM170.827 35.9935H187.747V37.5685H170.827V35.9935ZM167.632 19.5235V21.8185H165.112C165.157 21.0985 165.202 20.4235 165.202 19.7935V19.5235H167.632ZM174.022 21.8185H171.367V19.5235H174.022V21.8185ZM193.057 31.3135H198.097V27.6235H197.062C197.602 26.5435 198.637 25.0585 199.492 24.2035C197.107 24.0235 194.902 23.6635 192.967 23.1235C194.947 21.6385 196.522 19.7035 197.512 17.2735L195.037 16.3735H196.882C197.737 16.3735 198.817 16.3285 199.357 16.1035C199.222 15.0235 199.177 13.9885 199.087 12.9085C198.547 13.0885 197.332 13.1785 196.792 13.1785H195.262C194.587 13.1785 194.542 12.7735 194.542 11.9635V8.27351H182.257V10.4785C182.257 12.0085 181.762 13.4035 178.342 14.5735C178.837 14.8885 179.602 15.6985 180.232 16.4185V19.2535H182.797L181.357 19.6585C182.212 20.9635 183.292 22.0885 184.552 23.0785C182.662 23.6185 180.547 24.0235 178.387 24.2485C179.107 25.1035 179.917 26.5435 180.322 27.6235H162.997C163.762 26.6335 164.257 25.5535 164.617 24.3835H178.117V16.9585H161.152V19.7035C161.152 21.6835 160.837 24.2485 158.542 26.3185C159.082 26.5885 160.027 27.1285 160.837 27.6235H160.612V31.3135H165.652V42.2485H159.262V45.9385H187.747V49.3135H193.057V45.9385H199.177V42.2485H193.057V31.3135ZM240.622 8.00351C238.282 11.5585 233.827 15.2035 230.047 17.2285C231.397 18.2185 232.972 19.8385 233.827 20.9635C238.102 18.3085 242.602 14.3935 245.662 10.0735L240.622 8.00351ZM241.747 20.1535C239.227 23.9785 234.277 27.7585 230.182 30.0085C231.532 30.9985 233.017 32.5285 233.872 33.7435C238.462 30.9535 243.322 26.7685 246.652 22.2235L241.747 20.1535ZM213.262 16.7785H224.467V18.4885H213.262V16.7785ZM213.262 12.0535H224.467V13.7185H213.262V12.0535ZM231.352 23.7985H221.992C221.722 23.0785 221.317 22.3585 220.957 21.7285H229.777V8.81351H208.177V21.7285H219.157L215.647 22.4485C215.872 22.8535 216.052 23.3035 216.277 23.7985H206.152V27.8485H231.352V23.7985ZM210.202 38.8285C209.257 41.0335 207.727 43.4635 206.107 45.1285C207.142 45.7585 208.987 47.1535 209.797 47.9185C211.462 45.9835 213.442 42.8785 214.657 40.1785L210.202 38.8285ZM213.847 32.8435H223.927V35.1835H213.847V32.8435ZM229.147 38.6485V29.3785H208.897V38.6485H216.142V44.4085C216.142 44.8135 216.007 44.9485 215.557 44.9485C215.107 44.9485 213.712 44.9485 212.362 44.9035C212.992 46.1185 213.622 47.8285 213.847 49.1785C216.232 49.1785 218.122 49.1335 219.517 48.5035C221.047 47.8285 221.362 46.7485 221.362 44.5435V38.6485H229.147ZM242.557 32.7535C239.812 37.8385 234.592 42.1585 229.282 44.6785C228.427 42.9235 227.032 40.5385 225.907 38.7835L222.127 40.3585C223.567 42.6985 225.142 45.8035 225.817 47.6935L229.777 45.8035C229.642 45.4885 229.507 45.1735 229.372 44.8135C230.677 45.9385 232.117 47.6035 232.927 48.9085C238.822 45.6235 244.132 40.6285 247.507 34.5985L242.557 32.7535Z" fill="#E9706E"/>
<path d="M35.1619 20.4219L25.0259 30.5685L35.1619 40.7152L45.298 30.5685L35.1619 20.4219Z" fill="#E9706E"/>
<path fill-rule="evenodd" clip-rule="evenodd" d="M13.6616 11.4378C13.6616 9.53512 14.4167 7.71035 15.7607 6.36493C17.1047 5.01952 18.9276 4.26367 20.8283 4.26367H49.495C51.3957 4.26367 53.2185 5.01952 54.5626 6.36493C55.9066 7.71035 56.6616 9.53512 56.6616 11.4378V49.7C56.6616 51.6027 55.9066 53.4274 54.5626 54.7729C53.2185 56.1183 51.3957 56.8741 49.495 56.8741H20.8283C18.9276 56.8741 17.1047 56.1183 15.7607 54.7729C14.4167 53.4274 13.6616 51.6027 13.6616 49.7V11.4378ZM20.8283 9.04644H49.495C50.1285 9.04644 50.7362 9.29839 51.1842 9.74686C51.6322 10.1953 51.8838 10.8036 51.8838 11.4378V49.7C51.8838 50.3342 51.6322 50.9425 51.1842 51.3909C50.7362 51.8394 50.1285 52.0913 49.495 52.0913H20.8283C20.1947 52.0913 19.5871 51.8394 19.1391 51.3909C18.6911 50.9425 18.4394 50.3342 18.4394 49.7V11.4378C18.4394 10.8036 18.6911 10.1953 19.1391 9.74686C19.5871 9.29839 20.1947 9.04644 20.8283 9.04644Z" fill="#E9706E"/>
<line x1="2.91162" y1="64.1035" x2="260.412" y2="64.1035" stroke="#E9706E" stroke-width="4.5" stroke-linecap="round"/>
</svg>
