<svg width="92" height="22" viewBox="0 0 92 22" fill="none" xmlns="http://www.w3.org/2000/svg">
<path d="M5.88447 0.930561C4.78447 4.05456 2.87046 7.17856 0.890465 9.15856C1.33046 9.79656 2.05646 11.2266 2.29846 11.8866C2.78246 11.3586 3.28846 10.7646 3.77246 10.1046V21.3466H6.28046V6.21056C7.09446 4.75856 7.79846 3.21856 8.37047 1.70056L5.88447 0.930561ZM9.95447 10.6326C9.44847 13.0746 8.52447 15.5606 7.27047 17.1006C7.90847 17.4306 9.00847 18.0906 9.51447 18.5086C10.7465 16.7266 11.8685 13.9546 12.5065 11.1606L9.95447 10.6326ZM19.1065 7.20056C18.9965 8.16856 18.8645 9.09256 18.7545 9.77456L20.9765 10.1486C21.2845 8.87256 21.6585 6.82656 21.9225 5.04456L20.0745 4.69256L19.6565 4.78056H12.0885C12.4845 3.70256 12.8365 2.62456 13.1225 1.50256L10.5705 0.930561C9.82247 3.94456 8.50247 6.98056 6.83046 8.85056C7.42447 9.24656 8.48047 10.1046 8.94247 10.5666C9.66847 9.64256 10.3945 8.47656 11.0105 7.20056H13.5625V18.4206C13.5625 18.7066 13.4525 18.7946 13.1665 18.7946C12.8585 18.7946 11.9345 18.7946 11.0105 18.7726C11.4065 19.4766 11.8025 20.6426 11.9125 21.4126C13.3205 21.4126 14.3765 21.3026 15.1465 20.8846C15.9385 20.4446 16.1585 19.7186 16.1585 18.4646V7.20056H19.1065ZM16.9505 11.2046C18.0065 13.4706 18.9305 16.4846 19.1725 18.4426L21.6805 17.5846C21.3725 15.6046 20.4265 12.6786 19.2825 10.4126L16.9505 11.2046ZM27.7745 16.8146V12.5026H31.2725V16.8146H27.7745ZM31.2725 10.2366H27.7745V6.67256H31.2725V10.2366ZM38.2465 4.23056C38.5765 3.30656 38.8845 2.38256 39.1045 1.43656L36.6185 0.864562C35.9805 3.43856 34.9245 6.10056 33.6485 7.94856V4.38456H30.2385C30.6125 3.43856 31.0085 2.33856 31.3825 1.23856L28.5225 0.842561C28.4345 1.87656 28.1705 3.28456 27.8845 4.38456H25.3985V20.7306H27.7745V19.1246H33.6485V8.85056C34.2425 9.24656 34.9905 9.75256 35.3425 10.0826C36.0245 9.13656 36.7065 7.92656 37.2785 6.60656H41.9865C41.7445 14.3726 41.4585 17.6726 40.8205 18.3766C40.5345 18.6626 40.2925 18.7506 39.8525 18.7506C39.2805 18.7506 37.9825 18.7506 36.5745 18.6186C37.0365 19.3446 37.3885 20.4446 37.4325 21.1706C38.7305 21.2146 40.0505 21.2366 40.8865 21.1266C41.7665 20.9726 42.3825 20.7306 42.9985 19.9166C43.9005 18.7506 44.1425 15.2526 44.4285 5.41856C44.4505 5.11056 44.4505 4.23056 44.4505 4.23056H38.2465ZM40.7985 14.2626C40.1165 12.9866 38.6645 10.8966 37.5645 9.37856L35.5185 10.5446C36.5965 12.1506 37.9605 14.3066 38.5765 15.6266L40.7985 14.2626ZM51.8425 3.72456H48.7405V5.02256H57.2325V3.72456H54.1965V3.08656H57.8045V1.76656H54.1965V0.820561H51.8425V1.76656H48.1025V3.08656H51.8425V3.72456ZM53.6905 17.9586V17.2106H61.9625V17.9586H53.6905ZM61.9625 12.6126V13.3606H53.6905V12.6126H61.9625ZM58.9925 10.8086C60.2685 10.5666 61.4125 10.2366 62.4685 9.79656C63.5025 10.2586 64.6905 10.5886 66.0325 10.8086H58.9925ZM63.7445 6.71656C63.3485 7.13456 62.8865 7.48656 62.3365 7.77256C61.7645 7.48656 61.2805 7.13456 60.9285 6.71656H63.7445ZM63.1945 3.04256V3.15256C63.1945 4.58256 63.4585 5.30856 65.0645 5.30856H65.1305L64.9985 5.33056H59.8945C60.7745 4.67056 61.1265 3.87856 61.2365 3.04256H63.1945ZM53.6905 14.9006H61.9625V15.6706H53.6905V14.9006ZM52.1285 6.84856V7.97056H50.8965C50.9185 7.61856 50.9405 7.28856 50.9405 6.98056V6.84856H52.1285ZM55.2525 7.97056H53.9545V6.84856H55.2525V7.97056ZM64.5585 12.6126H67.0225V10.8086H66.5165C66.7805 10.2806 67.2865 9.55456 67.7045 9.13656C66.5385 9.04856 65.4605 8.87256 64.5145 8.60856C65.4825 7.88256 66.2525 6.93656 66.7365 5.74856L65.5265 5.30856H66.4285C66.8465 5.30856 67.3745 5.28656 67.6385 5.17656C67.5725 4.64856 67.5505 4.14256 67.5065 3.61456C67.2425 3.70256 66.6485 3.74656 66.3845 3.74656H65.6365C65.3065 3.74656 65.2845 3.54856 65.2845 3.15256V1.34856H59.2785V2.42656C59.2785 3.17456 59.0365 3.85656 57.3645 4.42856C57.6065 4.58256 57.9805 4.97856 58.2885 5.33056V6.71656H59.5425L58.8385 6.91456C59.2565 7.55256 59.7845 8.10256 60.4005 8.58656C59.4765 8.85056 58.4425 9.04856 57.3865 9.15856C57.7385 9.57656 58.1345 10.2806 58.3325 10.8086H49.8625C50.2365 10.3246 50.4785 9.79656 50.6545 9.22456H57.2545V5.59456H48.9605V6.93656C48.9605 7.90456 48.8065 9.15856 47.6845 10.1706C47.9485 10.3026 48.4105 10.5666 48.8065 10.8086H48.6965V12.6126H51.1605V17.9586H48.0365V19.7626H61.9625V21.4126H64.5585V19.7626H67.5505V17.9586H64.5585V12.6126ZM87.8125 1.21656C86.6685 2.95456 84.4905 4.73656 82.6425 5.72656C83.3025 6.21056 84.0725 7.00256 84.4905 7.55256C86.5805 6.25456 88.7805 4.34056 90.2765 2.22856L87.8125 1.21656ZM88.3625 7.15656C87.1305 9.02656 84.7105 10.8746 82.7085 11.9746C83.3685 12.4586 84.0945 13.2066 84.5125 13.8006C86.7565 12.4366 89.1325 10.3906 90.7605 8.16856L88.3625 7.15656ZM74.4365 5.50656H79.9145V6.34256H74.4365V5.50656ZM74.4365 3.19656H79.9145V4.01056H74.4365V3.19656ZM83.2805 8.93856H78.7045C78.5725 8.58656 78.3745 8.23456 78.1985 7.92656H82.5105V1.61256H71.9505V7.92656H77.3185L75.6025 8.27856C75.7125 8.47656 75.8005 8.69656 75.9105 8.93856H70.9605V10.9186H83.2805V8.93856ZM72.9405 16.2866C72.4785 17.3646 71.7305 18.5526 70.9385 19.3666C71.4445 19.6746 72.3465 20.3566 72.7425 20.7306C73.5565 19.7846 74.5245 18.2666 75.1185 16.9466L72.9405 16.2866ZM74.7225 13.3606H79.6505V14.5046H74.7225V13.3606ZM82.2025 16.1986V11.6666H72.3025V16.1986H75.8445V19.0146C75.8445 19.2126 75.7785 19.2786 75.5585 19.2786C75.3385 19.2786 74.6565 19.2786 73.9965 19.2566C74.3045 19.8506 74.6125 20.6866 74.7225 21.3466C75.8885 21.3466 76.8125 21.3246 77.4945 21.0166C78.2425 20.6866 78.3965 20.1586 78.3965 19.0806V16.1986H82.2025ZM88.7585 13.3166C87.4165 15.8026 84.8645 17.9146 82.2685 19.1466C81.8505 18.2886 81.1685 17.1226 80.6185 16.2646L78.7705 17.0346C79.4745 18.1786 80.2445 19.6966 80.5745 20.6206L82.5105 19.6966C82.4445 19.5426 82.3785 19.3886 82.3125 19.2126C82.9505 19.7626 83.6545 20.5766 84.0505 21.2146C86.9325 19.6086 89.5285 17.1666 91.1785 14.2186L88.7585 13.3166Z" fill="#FEFFF9"/>
</svg>
