<svg width="115" height="44" viewBox="0 0 115 44" fill="none" xmlns="http://www.w3.org/2000/svg">
<path d="M35.9055 0.11499H9.48868C7.40741 0.11499 5.71484 1.80932 5.71484 3.89277V30.3372C5.71484 32.4207 7.40741 34.115 9.48868 34.115H35.9055C37.9868 34.115 39.6794 32.4207 39.6794 30.3372V3.89277C39.6794 1.80932 37.9868 0.11499 35.9055 0.11499ZM17.0364 15.2261V3.89277H28.3579V15.2261H17.0364ZM28.3579 19.0039V30.3372H17.0364V19.0039H28.3579ZM9.48868 3.89277H13.2625V7.67055H9.48868V3.89277ZM9.48868 11.4483H13.2625V15.2261H9.48868V11.4483ZM9.48868 19.0039H13.2625V22.7817H9.48868V19.0039ZM9.48868 26.5594H13.2625V30.3372H9.48868V26.5594ZM35.9093 30.3372H32.1317V26.5594H35.9093V30.3372V30.3372ZM35.9074 22.7817H32.1317V19.0039H35.9074V22.7817ZM35.9074 15.2261H32.1317V11.4483H35.9074V15.2261ZM32.1317 7.67055V3.89277H35.9055V7.67055H32.1317Z" fill="#E9706E"/>
<path d="M71.9308 3.55499C70.2668 6.08299 67.0988 8.67499 64.4108 10.115C65.3708 10.819 66.4908 11.971 67.0988 12.771C70.1388 10.883 73.3388 8.09899 75.5148 5.02699L71.9308 3.55499ZM72.7308 12.195C70.9388 14.915 67.4188 17.603 64.5068 19.203C65.4668 19.907 66.5228 20.995 67.1308 21.859C70.3948 19.875 73.8508 16.899 76.2188 13.667L72.7308 12.195ZM52.4748 9.79499H60.4428V11.011H52.4748V9.79499ZM52.4748 6.43499H60.4428V7.61899H52.4748V6.43499ZM65.3388 14.787H58.6828C58.4908 14.275 58.2028 13.763 57.9468 13.315H64.2188V4.13099H48.8588V13.315H56.6668L54.1708 13.827C54.3308 14.115 54.4588 14.435 54.6188 14.787H47.4188V17.667H65.3388V14.787ZM50.2988 25.475C49.6268 27.043 48.5388 28.771 47.3868 29.955C48.1228 30.403 49.4348 31.395 50.0108 31.939C51.1948 30.563 52.6028 28.355 53.4668 26.435L50.2988 25.475ZM52.8908 21.219H60.0588V22.883H52.8908V21.219ZM63.7708 25.347V18.755H49.3708V25.347H54.5228V29.443C54.5228 29.731 54.4268 29.827 54.1068 29.827C53.7868 29.827 52.7948 29.827 51.8348 29.795C52.2828 30.659 52.7308 31.875 52.8908 32.835C54.5868 32.835 55.9308 32.803 56.9228 32.355C58.0108 31.875 58.2348 31.107 58.2348 29.539V25.347H63.7708ZM73.3068 21.155C71.3548 24.771 67.6428 27.843 63.8668 29.635C63.2588 28.387 62.2668 26.691 61.4668 25.443L58.7788 26.563C59.8028 28.227 60.9228 30.435 61.4028 31.779L64.2188 30.435C64.1228 30.211 64.0268 29.987 63.9308 29.731C64.8588 30.531 65.8828 31.715 66.4588 32.643C70.6508 30.307 74.4268 26.755 76.8268 22.467L73.3068 21.155ZM94.9068 10.371H88.4428V9.02699H94.9068V10.371ZM94.9068 14.115H88.4428V12.835H94.9068V14.115ZM94.9068 17.987H88.4428V16.579H94.9068V17.987ZM84.6668 21.731H88.4428V20.867H109.083V17.987H98.5548V16.579H106.907V14.115H98.5548V12.835H106.875V10.371H98.5548V9.02699H108.315V6.11499H99.2268C98.8428 5.05899 98.2668 3.81099 97.6908 2.81899L94.1068 3.81099C94.4588 4.51499 94.8108 5.31499 95.0988 6.11499H90.1708C90.7148 5.31499 91.2268 4.51499 91.7068 3.71499L87.8348 2.97899C86.3948 5.73099 83.8028 9.02699 80.2508 11.555C81.1148 12.035 82.3308 13.251 82.9388 14.051C83.5148 13.571 84.0908 13.091 84.6668 12.579V21.731ZM89.6588 26.435C87.6748 27.619 83.8668 28.675 80.6028 29.123C81.3708 29.827 82.4268 31.171 82.9708 32.035C86.3308 31.267 90.2348 29.571 92.5068 27.747L89.6588 26.435ZM109.883 25.827V22.787H97.3388V21.155H93.5628V22.787H81.1468V25.827H93.5628V32.835H97.3388V25.827H109.883ZM98.4908 28.355C101.435 29.443 105.563 31.107 107.611 32.099L109.947 29.603C107.739 28.579 103.515 27.075 100.699 26.147L98.4908 28.355Z" fill="#E9706E"/>
<line x1="2.46484" y1="41.365" x2="112.965" y2="41.365" stroke="#E9706E" stroke-width="3.5" stroke-linecap="round"/>
</svg>
