<svg width="29" height="12" viewBox="0 0 29 12" fill="none" xmlns="http://www.w3.org/2000/svg">
<path d="M4.07373 11.8545C6.76172 11.8545 8.3584 9.75244 8.3584 6.19287C8.3584 4.85254 8.10205 3.72461 7.61133 2.85303C6.90088 1.49805 5.67773 0.765625 4.13232 0.765625C1.83252 0.765625 0.206543 2.31104 0.206543 4.479C0.206543 6.51514 1.67139 7.99463 3.68555 7.99463C4.92334 7.99463 5.92676 7.41602 6.4248 6.4126H6.44678C6.44678 6.4126 6.47607 6.4126 6.4834 6.4126C6.49805 6.4126 6.54932 6.4126 6.54932 6.4126C6.54932 8.82959 5.63379 10.2725 4.08838 10.2725C3.18018 10.2725 2.47705 9.77441 2.23535 8.97607H0.353027C0.667969 10.7119 2.14014 11.8545 4.07373 11.8545ZM4.13965 6.49316C2.92383 6.49316 2.05957 5.62891 2.05957 4.42041C2.05957 3.24121 2.96777 2.34033 4.14697 2.34033C5.32617 2.34033 6.23438 3.25586 6.23438 4.44971C6.23438 5.62891 5.34814 6.49316 4.13965 6.49316Z" fill="#827C7C"/>
<path d="M11.4495 11.752C12.1453 11.752 12.6214 11.2539 12.6214 10.5947C12.6214 9.92822 12.1453 9.4375 11.4495 9.4375C10.761 9.4375 10.2776 9.92822 10.2776 10.5947C10.2776 11.2539 10.761 11.752 11.4495 11.752ZM11.4495 6.25879C12.1453 6.25879 12.6214 5.76807 12.6214 5.10889C12.6214 4.44238 12.1453 3.95166 11.4495 3.95166C10.761 3.95166 10.2776 4.44238 10.2776 5.10889C10.2776 5.76807 10.761 6.25879 11.4495 6.25879Z" fill="#827C7C"/>
<path d="M19.4771 11.5981H21.2862V9.62793H22.7145V8.03125H21.2862V1.0293H18.6202C16.7525 3.8418 15.2657 6.19287 14.3136 7.94336V9.62793H19.4771V11.5981ZM16.0641 7.96533C17.2945 5.79736 18.3932 4.06152 19.4039 2.56738H19.5064V8.0752H16.0641V7.96533Z" fill="#827C7C"/>
<path d="M26.7431 11.5981H28.6327V1.0293H26.7504L23.9892 2.96289V4.7793L26.6186 2.93359H26.7431V11.5981Z" fill="#827C7C"/>
</svg>
