<svg width="44" height="22" viewBox="0 0 44 22" fill="none" xmlns="http://www.w3.org/2000/svg">
<path d="M17.1082 1.26246C15.9642 3.00046 13.7862 4.78246 11.9382 5.77246C12.5982 6.25646 13.3682 7.04846 13.7862 7.59846C15.8762 6.30046 18.0762 4.38646 19.5722 2.27446L17.1082 1.26246ZM17.6582 7.20246C16.4262 9.07246 14.0062 10.9205 12.0042 12.0205C12.6642 12.5045 13.3902 13.2525 13.8082 13.8465C16.0522 12.4825 18.4282 10.4365 20.0562 8.21446L17.6582 7.20246ZM3.73217 5.55246H9.21017V6.38846H3.73217V5.55246ZM3.73217 3.24246H9.21017V4.05646H3.73217V3.24246ZM12.5762 8.98446H8.00017C7.86817 8.63246 7.67017 8.28046 7.49417 7.97246H11.8062V1.65846H1.24617V7.97246H6.61417L4.89817 8.32446C5.00817 8.52246 5.09617 8.74246 5.20617 8.98446H0.256168V10.9645H12.5762V8.98446ZM2.23617 16.3325C1.77417 17.4105 1.02617 18.5985 0.234168 19.4125C0.740168 19.7205 1.64217 20.4025 2.03817 20.7765C2.85217 19.8305 3.82017 18.3125 4.41417 16.9925L2.23617 16.3325ZM4.01817 13.4065H8.94617V14.5505H4.01817V13.4065ZM11.4982 16.2445V11.7125H1.59817V16.2445H5.14017V19.0605C5.14017 19.2585 5.07417 19.3245 4.85417 19.3245C4.63417 19.3245 3.95217 19.3245 3.29217 19.3025C3.60017 19.8965 3.90817 20.7325 4.01817 21.3925C5.18417 21.3925 6.10817 21.3705 6.79017 21.0625C7.53817 20.7325 7.69217 20.2045 7.69217 19.1265V16.2445H11.4982ZM18.0542 13.3625C16.7122 15.8485 14.1602 17.9605 11.5642 19.1925C11.1462 18.3345 10.4642 17.1685 9.91417 16.3105L8.06617 17.0805C8.77017 18.2245 9.54017 19.7425 9.87017 20.6665L11.8062 19.7425C11.7402 19.5885 11.6742 19.4345 11.6082 19.2585C12.2462 19.8085 12.9502 20.6225 13.3462 21.2605C16.2282 19.6545 18.8242 17.2125 20.4742 14.2645L18.0542 13.3625ZM32.9042 5.94846H28.4602V5.02446H32.9042V5.94846ZM32.9042 8.52246H28.4602V7.64246H32.9042V8.52246ZM32.9042 11.1845H28.4602V10.2165H32.9042V11.1845ZM25.8642 13.7585H28.4602V13.1645H42.6502V11.1845H35.4122V10.2165H41.1542V8.52246H35.4122V7.64246H41.1322V5.94846H35.4122V5.02446H42.1222V3.02246H35.8742C35.6102 2.29646 35.2142 1.43846 34.8182 0.75646L32.3542 1.43846C32.5962 1.92246 32.8382 2.47246 33.0362 3.02246H29.6482C30.0222 2.47246 30.3742 1.92246 30.7042 1.37246L28.0422 0.86646C27.0522 2.75846 25.2702 5.02446 22.8282 6.76246C23.4222 7.09246 24.2582 7.92846 24.6762 8.47846C25.0722 8.14846 25.4682 7.81846 25.8642 7.46646V13.7585ZM29.2962 16.9925C27.9322 17.8065 25.3142 18.5325 23.0702 18.8405C23.5982 19.3245 24.3242 20.2485 24.6982 20.8425C27.0082 20.3145 29.6922 19.1485 31.2542 17.8945L29.2962 16.9925ZM43.2002 16.5745V14.4845H34.5762V13.3625H31.9802V14.4845H23.4442V16.5745H31.9802V21.3925H34.5762V16.5745H43.2002ZM35.3682 18.3125C37.3922 19.0605 40.2302 20.2045 41.6382 20.8865L43.2442 19.1705C41.7262 18.4665 38.8222 17.4325 36.8862 16.7945L35.3682 18.3125Z" fill="#E9706E"/>
</svg>
