<svg width="225" height="18" viewBox="0 0 225 18" fill="none" xmlns="http://www.w3.org/2000/svg">
<path d="M5.85284 13.9174C7.38884 13.9174 8.65284 13.3094 9.62884 12.1734L8.38084 10.7014C7.74084 11.3894 6.94084 11.8694 5.93284 11.8694C4.06084 11.8694 2.84484 10.3174 2.84484 7.74136C2.84484 5.19736 4.18884 3.66136 5.98084 3.66136C6.87684 3.66136 7.56484 4.07736 8.15684 4.65336L9.40484 3.14936C8.63684 2.34936 7.43684 1.62936 5.93284 1.62936C2.94084 1.62936 0.428842 3.91736 0.428842 7.82136C0.428842 11.7734 2.86084 13.9174 5.85284 13.9174ZM15.8885 13.9174C18.1285 13.9174 20.1925 12.1894 20.1925 9.22936C20.1925 6.23736 18.1285 4.50936 15.8885 4.50936C13.6485 4.50936 11.5845 6.23736 11.5845 9.22936C11.5845 12.1894 13.6485 13.9174 15.8885 13.9174ZM15.8885 11.9974C14.6725 11.9974 13.9845 10.9094 13.9845 9.22936C13.9845 7.53336 14.6725 6.42936 15.8885 6.42936C17.1045 6.42936 17.7925 7.53336 17.7925 9.22936C17.7925 10.9094 17.1045 11.9974 15.8885 11.9974ZM22.9601 17.1334H25.2961V14.4134L25.2321 12.9414C25.9201 13.5654 26.6721 13.9174 27.4561 13.9174C29.4241 13.9174 31.2641 12.1414 31.2641 9.06936C31.2641 6.31736 29.9521 4.50936 27.7441 4.50936C26.7841 4.50936 25.8561 5.02136 25.1041 5.66136H25.0401L24.8801 4.73336H22.9601V17.1334ZM26.9281 11.9814C26.4481 11.9814 25.8721 11.8054 25.2961 11.3094V7.37336C25.9201 6.74936 26.4641 6.44536 27.0721 6.44536C28.3041 6.44536 28.8481 7.38936 28.8481 9.10136C28.8481 11.0534 28.0161 11.9814 26.9281 11.9814ZM34.716 17.2934C36.716 17.2934 37.676 16.0774 38.46 13.9654L41.644 4.73336H39.388L38.156 8.89336C37.948 9.72536 37.724 10.5894 37.516 11.4214H37.436C37.18 10.5574 36.956 9.69336 36.684 8.89336L35.26 4.73336H32.892L36.38 13.5334L36.22 14.0614C35.964 14.8454 35.452 15.4214 34.54 15.4214C34.332 15.4214 34.076 15.3574 33.916 15.3094L33.484 17.1174C33.836 17.2294 34.188 17.2934 34.716 17.2934ZM43.9195 13.6934H46.2555V8.34936C46.7675 7.05336 47.6155 6.58936 48.3195 6.58936C48.6875 6.58936 48.9435 6.63736 49.2475 6.73336L49.6635 4.70136C49.3915 4.58936 49.1035 4.50936 48.6075 4.50936C47.6795 4.50936 46.7195 5.14936 46.0635 6.31736H45.9995L45.8395 4.73336H43.9195V13.6934ZM51.6882 13.6934H54.0242V4.73336H51.6882V13.6934ZM52.8722 3.29336C53.6722 3.29336 54.2642 2.74936 54.2642 2.01336C54.2642 1.24536 53.6722 0.733358 52.8722 0.733358C52.0562 0.733358 51.4642 1.24536 51.4642 2.01336C51.4642 2.74936 52.0562 3.29336 52.8722 3.29336ZM60.4996 17.5814C63.4916 17.5814 65.3636 16.2054 65.3636 14.3974C65.3636 12.8294 64.1956 12.1574 62.0356 12.1574H60.5156C59.4596 12.1574 59.1076 11.9014 59.1076 11.4214C59.1076 11.0694 59.2356 10.8614 59.4916 10.6534C59.8756 10.7814 60.2916 10.8614 60.6436 10.8614C62.5636 10.8614 64.0996 9.83736 64.0996 7.82136C64.0996 7.26136 63.9236 6.76536 63.6836 6.46136H65.2196V4.73336H61.9876C61.6196 4.60536 61.1396 4.50936 60.6436 4.50936C58.7396 4.50936 57.0276 5.64536 57.0276 7.75736C57.0276 8.79736 57.6036 9.64536 58.2116 10.0934V10.1574C57.6836 10.5414 57.2196 11.1654 57.2196 11.8374C57.2196 12.5734 57.5716 13.0374 58.0356 13.3414V13.4214C57.2196 13.8854 56.7556 14.5254 56.7556 15.2774C56.7556 16.8614 58.3876 17.5814 60.4996 17.5814ZM60.6436 9.40536C59.8596 9.40536 59.2356 8.81336 59.2356 7.75736C59.2356 6.70136 59.8436 6.10936 60.6436 6.10936C61.4436 6.10936 62.0356 6.70136 62.0356 7.75736C62.0356 8.81336 61.4276 9.40536 60.6436 9.40536ZM60.8516 16.0934C59.5396 16.0934 58.7076 15.6614 58.7076 14.9094C58.7076 14.5414 58.8996 14.1894 59.2996 13.8694C59.6196 13.9494 60.0036 13.9974 60.5476 13.9974H61.6356C62.5956 13.9974 63.1236 14.1574 63.1236 14.7974C63.1236 15.5014 62.1956 16.0934 60.8516 16.0934ZM67.6945 13.6934H70.0305V7.53336C70.7025 6.87736 71.1665 6.52536 71.9025 6.52536C72.7825 6.52536 73.1665 7.02136 73.1665 8.39736V13.6934H75.5185V8.10936C75.5185 5.85336 74.6865 4.50936 72.7505 4.50936C71.5345 4.50936 70.6545 5.14936 69.9345 5.82136L70.0305 4.14136V0.925359H67.6945V13.6934ZM82.0088 13.9174C82.7928 13.9174 83.4168 13.7414 83.8968 13.5814L83.5128 11.8694C83.2728 11.9654 82.9208 12.0614 82.6328 12.0614C81.8328 12.0614 81.4168 11.5814 81.4168 10.5574V6.58936H83.6248V4.73336H81.4168V2.33336H79.4488L79.1768 4.73336L77.8008 4.84536V6.58936H79.0648V10.5574C79.0648 12.5734 79.8808 13.9174 82.0088 13.9174ZM96.1926 13.8534C99.3926 13.8534 102.145 11.5334 102.145 7.80536C102.145 4.07736 99.3926 1.80536 96.1926 1.80536C93.0086 1.80536 90.2566 4.06136 90.2566 7.80536C90.2566 11.5334 93.0086 13.8534 96.1926 13.8534ZM96.1926 12.8614C93.5046 12.8614 91.3766 10.8294 91.3766 7.80536C91.3766 4.78136 93.5046 2.81336 96.1926 2.81336C98.8966 2.81336 101.025 4.78136 101.025 7.80536C101.025 10.8294 98.8966 12.8614 96.1926 12.8614ZM96.4006 11.3894C97.3766 11.3894 98.1286 10.9894 98.8006 10.4294L98.0326 9.32536C97.5526 9.69336 97.1206 9.98136 96.4646 9.98136C95.3766 9.98136 94.6726 9.14936 94.6726 7.82136C94.6726 6.65336 95.3606 5.75736 96.5446 5.75736C97.0886 5.75736 97.4566 5.99736 97.8726 6.41336L98.7846 5.40536C98.2086 4.82936 97.5046 4.33336 96.4006 4.33336C94.6086 4.33336 92.9446 5.69336 92.9446 7.82136C92.9446 10.0294 94.4166 11.3894 96.4006 11.3894ZM108.9 13.6934H116.836V11.7094H114.26C113.716 11.7094 112.932 11.7734 112.34 11.8374C114.5 9.72536 116.276 7.42136 116.276 5.27736C116.276 3.06936 114.788 1.62936 112.548 1.62936C110.932 1.62936 109.876 2.26936 108.788 3.42136L110.068 4.70136C110.66 4.04536 111.38 3.48536 112.244 3.48536C113.364 3.48536 114.02 4.20536 114.02 5.40536C114.02 7.22936 112.116 9.45336 108.9 12.3334V13.6934ZM123.154 13.9174C125.554 13.9174 127.154 11.8054 127.154 7.72536C127.154 3.64536 125.554 1.62936 123.154 1.62936C120.738 1.62936 119.138 3.62936 119.138 7.72536C119.138 11.8054 120.738 13.9174 123.154 13.9174ZM123.154 12.0774C122.13 12.0774 121.362 11.0534 121.362 7.72536C121.362 4.41336 122.13 3.45336 123.154 3.45336C124.162 3.45336 124.93 4.41336 124.93 7.72536C124.93 11.0534 124.162 12.0774 123.154 12.0774ZM129.343 13.6934H137.279V11.7094H134.703C134.159 11.7094 133.375 11.7734 132.783 11.8374C134.943 9.72536 136.719 7.42136 136.719 5.27736C136.719 3.06936 135.231 1.62936 132.991 1.62936C131.375 1.62936 130.319 2.26936 129.231 3.42136L130.511 4.70136C131.103 4.04536 131.823 3.48536 132.687 3.48536C133.807 3.48536 134.463 4.20536 134.463 5.40536C134.463 7.22936 132.559 9.45336 129.343 12.3334V13.6934ZM139.565 13.6934H147.501V11.7094H144.925C144.381 11.7094 143.597 11.7734 143.005 11.8374C145.165 9.72536 146.941 7.42136 146.941 5.27736C146.941 3.06936 145.453 1.62936 143.213 1.62936C141.597 1.62936 140.541 2.26936 139.453 3.42136L140.733 4.70136C141.325 4.04536 142.045 3.48536 142.909 3.48536C144.029 3.48536 144.685 4.20536 144.685 5.40536C144.685 7.22936 142.781 9.45336 139.565 12.3334V13.6934ZM157.172 2.23736H154.916V3.18136H161.092V2.23736H158.884V1.77336H161.508V0.813358H158.884V0.125359H157.172V0.813358H154.452V1.77336H157.172V2.23736ZM158.516 12.5894V12.0454H164.532V12.5894H158.516ZM164.532 8.70136V9.24536H158.516V8.70136H164.532ZM162.372 7.38936C163.3 7.21336 164.132 6.97336 164.9 6.65336C165.652 6.98936 166.516 7.22936 167.492 7.38936H162.372ZM165.828 4.41336C165.54 4.71736 165.204 4.97336 164.804 5.18136C164.388 4.97336 164.036 4.71736 163.78 4.41336H165.828ZM165.428 1.74136V1.82136C165.428 2.86136 165.62 3.38936 166.788 3.38936H166.836L166.74 3.40536H163.028C163.668 2.92536 163.924 2.34936 164.004 1.74136H165.428ZM158.516 10.3654H164.532V10.9254H158.516V10.3654ZM157.38 4.50936V5.32536H156.484C156.5 5.06936 156.516 4.82936 156.516 4.60536V4.50936H157.38ZM159.652 5.32536H158.708V4.50936H159.652V5.32536ZM166.42 8.70136H168.212V7.38936H167.844C168.036 7.00536 168.404 6.47736 168.708 6.17336C167.86 6.10936 167.076 5.98136 166.388 5.78936C167.092 5.26136 167.652 4.57336 168.004 3.70936L167.124 3.38936H167.78C168.084 3.38936 168.468 3.37336 168.66 3.29336C168.612 2.90936 168.596 2.54136 168.564 2.15736C168.372 2.22136 167.94 2.25336 167.748 2.25336H167.204C166.964 2.25336 166.948 2.10936 166.948 1.82136V0.509358H162.58V1.29336C162.58 1.83736 162.404 2.33336 161.188 2.74936C161.364 2.86136 161.636 3.14936 161.86 3.40536V4.41336H162.772L162.26 4.55736C162.564 5.02136 162.948 5.42136 163.396 5.77336C162.724 5.96536 161.972 6.10936 161.204 6.18936C161.46 6.49336 161.748 7.00536 161.892 7.38936H155.732C156.004 7.03736 156.18 6.65336 156.308 6.23736H161.108V3.59736H155.076V4.57336C155.076 5.27736 154.964 6.18936 154.148 6.92536C154.34 7.02136 154.676 7.21336 154.964 7.38936H154.884V8.70136H156.676V12.5894H154.404V13.9014H164.532V15.1014H166.42V13.9014H168.596V12.5894H166.42V8.70136ZM183.332 0.413359C182.5 1.67736 180.916 2.97336 179.572 3.69336C180.052 4.04536 180.612 4.62136 180.916 5.02136C182.436 4.07736 184.036 2.68536 185.124 1.14936L183.332 0.413359ZM183.732 4.73336C182.836 6.09336 181.076 7.43736 179.62 8.23736C180.1 8.58936 180.628 9.13336 180.932 9.56536C182.564 8.57336 184.292 7.08536 185.476 5.46936L183.732 4.73336ZM173.604 3.53336H177.588V4.14136H173.604V3.53336ZM173.604 1.85336H177.588V2.44536H173.604V1.85336ZM180.036 6.02936H176.708C176.612 5.77336 176.468 5.51736 176.34 5.29336H179.476V0.701359H171.796V5.29336H175.7L174.452 5.54936C174.532 5.69336 174.596 5.85336 174.676 6.02936H171.076V7.46936H180.036V6.02936ZM172.516 11.3734C172.18 12.1574 171.636 13.0214 171.06 13.6134C171.428 13.8374 172.084 14.3334 172.372 14.6054C172.964 13.9174 173.668 12.8134 174.1 11.8534L172.516 11.3734ZM173.812 9.24536H177.396V10.0774H173.812V9.24536ZM179.252 11.3094V8.01336H172.052V11.3094H174.628V13.3574C174.628 13.5014 174.58 13.5494 174.42 13.5494C174.26 13.5494 173.764 13.5494 173.284 13.5334C173.508 13.9654 173.732 14.5734 173.812 15.0534C174.66 15.0534 175.332 15.0374 175.828 14.8134C176.372 14.5734 176.484 14.1894 176.484 13.4054V11.3094H179.252ZM184.02 9.21336C183.044 11.0214 181.188 12.5574 179.3 13.4534C178.996 12.8294 178.5 11.9814 178.1 11.3574L176.756 11.9174C177.268 12.7494 177.828 13.8534 178.068 14.5254L179.476 13.8534C179.428 13.7414 179.38 13.6294 179.332 13.5014C179.796 13.9014 180.308 14.4934 180.596 14.9574C182.692 13.7894 184.58 12.0134 185.78 9.86936L184.02 9.21336ZM190.612 2.49336C189.972 4.33336 188.9 6.38136 187.844 7.66136C188.308 7.86936 189.124 8.31736 189.508 8.58936C190.5 7.19736 191.636 4.98936 192.42 2.95736L190.612 2.49336ZM198.004 3.21336C199.028 4.86136 200.292 7.11736 200.884 8.52536L202.516 7.56536C201.876 6.15736 200.628 4.06136 199.54 2.41336L198.004 3.21336ZM198.9 8.38136C196.916 11.6294 192.9 12.7814 187.556 13.2294C187.908 13.7254 188.276 14.4934 188.436 15.0534C194.132 14.3974 198.372 12.9414 200.644 9.14936L198.9 8.38136ZM193.988 0.157359V10.1094H195.876V0.157359H193.988ZM214.452 5.72536C213.908 7.43736 213.188 8.78136 212.164 9.82136C211.236 9.40536 210.26 8.98936 209.3 8.57336C209.684 7.72536 210.1 6.74936 210.484 5.72536H214.452ZM219.092 5.72536V3.67736H217.124C217.188 3.32536 217.252 2.95736 217.316 2.58936L215.268 2.10936C215.188 2.66936 215.092 3.18136 214.996 3.67736H211.236C211.636 2.55736 211.972 1.38936 212.228 0.317359L210.18 0.0293589C209.892 1.19736 209.476 2.44536 209.028 3.67736H204.852V5.72536H208.228C207.62 7.13336 206.996 8.42936 206.404 9.48536C207.748 10.0134 209.108 10.6214 210.42 11.2454C208.932 12.1414 207.012 12.7494 204.58 13.1494C205.028 13.6454 205.492 14.4454 205.716 15.0054C208.628 14.4294 210.852 13.5814 212.564 12.3014C214.516 13.2934 216.244 14.2854 217.508 15.1014L218.996 13.2774C217.748 12.5574 216.052 11.6614 214.164 10.7654C215.252 9.45336 216.052 7.82136 216.644 5.72536H219.092ZM223.316 13.9174C224.164 13.9174 224.788 13.2454 224.788 12.3814C224.788 11.5174 224.164 10.8454 223.316 10.8454C222.484 10.8454 221.86 11.5174 221.86 12.3814C221.86 13.2454 222.484 13.9174 223.316 13.9174Z" fill="#FEFFF9"/>
</svg>
