<svg width="44" height="21" viewBox="0 0 44 21" fill="none" xmlns="http://www.w3.org/2000/svg">
<path d="M3.55617 9.85446C4.94217 9.54646 6.57017 9.17246 8.22017 8.79846L8.13217 7.30246C6.24017 7.58846 4.39217 7.85246 3.05017 8.00646V4.99246H4.23817L3.62217 6.22446C4.87617 6.48846 6.52617 6.95046 7.40617 7.30246L8.11017 5.89446C7.27417 5.58646 5.86617 5.21246 4.67817 4.99246H8.88017V9.56846H11.4322V4.99246H15.1942C14.2702 5.34446 13.0382 5.74046 12.1802 5.93846L12.9942 7.17046C14.1382 6.95046 15.7442 6.59846 16.9102 6.11446L16.1182 4.99246H17.3062V8.13846C16.0962 7.74246 13.9182 7.28046 12.3562 7.10446L11.8502 8.57846C13.5002 8.84246 15.7662 9.39246 16.9322 9.81046L17.3942 8.22646H19.9242V3.27646H11.4322V2.39646H18.8022V0.68046H1.55417V2.39646H8.88017V3.27646H0.564168V8.22646H2.96217L3.55617 9.85446ZM5.09617 15.3985V14.4085H8.74817V15.3985H5.09617ZM8.74817 11.8785V12.8685H5.09617V11.8785H8.74817ZM15.2382 12.8685H11.2562V11.8785H15.2382V12.8685ZM11.2562 15.3985V14.4085H15.2382V15.3985H11.2562ZM12.8402 18.1485C11.5202 18.1485 11.2562 18.0165 11.2562 17.2245V17.1585H17.8342V10.1185H2.58817V18.1045H5.09617V17.1585H8.74817V17.2245C8.74817 19.5125 9.60617 20.1285 12.5982 20.1285H17.2182C19.6162 20.1285 20.3422 19.4245 20.6502 16.7845C19.9682 16.6525 18.9782 16.3225 18.4722 15.9705C18.3182 17.8185 18.1202 18.1485 16.9982 18.1485H12.8402ZM40.2082 0.26246C39.0642 2.00046 36.8862 3.78246 35.0382 4.77246C35.6982 5.25646 36.4682 6.04846 36.8862 6.59846C38.9762 5.30046 41.1762 3.38646 42.6722 1.27446L40.2082 0.26246ZM40.7582 6.20246C39.5262 8.07246 37.1062 9.92046 35.1042 11.0205C35.7642 11.5045 36.4902 12.2525 36.9082 12.8465C39.1522 11.4825 41.5282 9.43646 43.1562 7.21446L40.7582 6.20246ZM26.8322 4.55246H32.3102V5.38846H26.8322V4.55246ZM26.8322 2.24246H32.3102V3.05646H26.8322V2.24246ZM35.6762 7.98446H31.1002C30.9682 7.63246 30.7702 7.28046 30.5942 6.97246H34.9062V0.65846H24.3462V6.97246H29.7142L27.9982 7.32446C28.1082 7.52246 28.1962 7.74246 28.3062 7.98446H23.3562V9.96446H35.6762V7.98446ZM25.3362 15.3325C24.8742 16.4105 24.1262 17.5985 23.3342 18.4125C23.8402 18.7205 24.7422 19.4025 25.1382 19.7765C25.9522 18.8305 26.9202 17.3125 27.5142 15.9925L25.3362 15.3325ZM27.1182 12.4065H32.0462V13.5505H27.1182V12.4065ZM34.5982 15.2445V10.7125H24.6982V15.2445H28.2402V18.0605C28.2402 18.2585 28.1742 18.3245 27.9542 18.3245C27.7342 18.3245 27.0522 18.3245 26.3922 18.3025C26.7002 18.8965 27.0082 19.7325 27.1182 20.3925C28.2842 20.3925 29.2082 20.3705 29.8902 20.0625C30.6382 19.7325 30.7922 19.2045 30.7922 18.1265V15.2445H34.5982ZM41.1542 12.3625C39.8122 14.8485 37.2602 16.9605 34.6642 18.1925C34.2462 17.3345 33.5642 16.1685 33.0142 15.3105L31.1662 16.0805C31.8702 17.2245 32.6402 18.7425 32.9702 19.6665L34.9062 18.7425C34.8402 18.5885 34.7742 18.4345 34.7082 18.2585C35.3462 18.8085 36.0502 19.6225 36.4462 20.2605C39.3282 18.6545 41.9242 16.2125 43.5742 13.2645L41.1542 12.3625Z" fill="#E9706E"/>
</svg>
