<svg width="44" height="22" viewBox="0 0 44 22" fill="none" xmlns="http://www.w3.org/2000/svg">
<path d="M17.5125 1.21656C16.3685 2.95456 14.1905 4.73656 12.3425 5.72656C13.0025 6.21056 13.7725 7.00256 14.1905 7.55256C16.2805 6.25456 18.4805 4.34056 19.9765 2.22856L17.5125 1.21656ZM18.0625 7.15656C16.8305 9.02656 14.4105 10.8746 12.4085 11.9746C13.0685 12.4586 13.7945 13.2066 14.2125 13.8006C16.4565 12.4366 18.8325 10.3906 20.4605 8.16856L18.0625 7.15656ZM4.13647 5.50656H9.61447V6.34256H4.13647V5.50656ZM4.13647 3.19656H9.61447V4.01056H4.13647V3.19656ZM12.9805 8.93856H8.40447C8.27246 8.58656 8.07446 8.23456 7.89847 7.92656H12.2105V1.61256H1.65047V7.92656H7.01847L5.30247 8.27856C5.41247 8.47656 5.50047 8.69656 5.61047 8.93856H0.660465V10.9186H12.9805V8.93856ZM2.64047 16.2866C2.17846 17.3646 1.43046 18.5526 0.638465 19.3666C1.14446 19.6746 2.04646 20.3566 2.44246 20.7306C3.25646 19.7846 4.22446 18.2666 4.81847 16.9466L2.64047 16.2866ZM4.42247 13.3606H9.35047V14.5046H4.42247V13.3606ZM11.9025 16.1986V11.6666H2.00246V16.1986H5.54447V19.0146C5.54447 19.2126 5.47846 19.2786 5.25847 19.2786C5.03846 19.2786 4.35646 19.2786 3.69646 19.2566C4.00447 19.8506 4.31247 20.6866 4.42247 21.3466C5.58847 21.3466 6.51247 21.3246 7.19447 21.0166C7.94247 20.6866 8.09647 20.1586 8.09647 19.0806V16.1986H11.9025ZM18.4585 13.3166C17.1165 15.8026 14.5645 17.9146 11.9685 19.1466C11.5505 18.2886 10.8685 17.1226 10.3185 16.2646L8.47047 17.0346C9.17447 18.1786 9.94447 19.6966 10.2745 20.6206L12.2105 19.6966C12.1445 19.5426 12.0785 19.3886 12.0125 19.2126C12.6505 19.7626 13.3545 20.5766 13.7505 21.2146C16.6325 19.6086 19.2285 17.1666 20.8785 14.2186L18.4585 13.3166ZM33.3085 5.90256H28.8645V4.97856H33.3085V5.90256ZM33.3085 8.47656H28.8645V7.59656H33.3085V8.47656ZM33.3085 11.1386H28.8645V10.1706H33.3085V11.1386ZM26.2685 13.7126H28.8645V13.1186H43.0545V11.1386H35.8165V10.1706H41.5585V8.47656H35.8165V7.59656H41.5365V5.90256H35.8165V4.97856H42.5265V2.97656H36.2785C36.0145 2.25056 35.6185 1.39256 35.2225 0.710562L32.7585 1.39256C33.0005 1.87656 33.2425 2.42656 33.4405 2.97656H30.0525C30.4265 2.42656 30.7785 1.87656 31.1085 1.32656L28.4465 0.820561C27.4565 2.71256 25.6745 4.97856 23.2325 6.71656C23.8265 7.04656 24.6625 7.88256 25.0805 8.43256C25.4765 8.10256 25.8725 7.77256 26.2685 7.42056V13.7126ZM29.7005 16.9466C28.3365 17.7606 25.7185 18.4866 23.4745 18.7946C24.0025 19.2786 24.7285 20.2026 25.1025 20.7966C27.4125 20.2686 30.0965 19.1026 31.6585 17.8486L29.7005 16.9466ZM43.6045 16.5286V14.4386H34.9805V13.3166H32.3845V14.4386H23.8485V16.5286H32.3845V21.3466H34.9805V16.5286H43.6045ZM35.7725 18.2666C37.7965 19.0146 40.6345 20.1586 42.0425 20.8406L43.6485 19.1246C42.1305 18.4206 39.2265 17.3866 37.2905 16.7486L35.7725 18.2666Z" fill="#FEFFF9"/>
</svg>
