<svg width="170" height="55" viewBox="0 0 170 55" fill="none" xmlns="http://www.w3.org/2000/svg">
<rect y="1.875" width="170" height="53.0833" rx="26.5417" fill="white"/>
<path d="M48.1826 32.116H55.5746V33.26H48.1826V32.116ZM48.1826 29.388H55.5746V30.466H48.1826V29.388ZM45.5866 34.976H58.3246V27.672H46.1366C47.8526 26.594 49.4146 25.23 50.6686 23.712V27.034H53.2646V23.866C55.7726 25.428 58.7426 27.496 60.2386 28.86L61.9106 26.968C60.6126 25.868 58.3906 24.394 56.2786 23.096H61.8446V20.83H53.2646V18.366H50.6686V20.83H42.2646V23.096H48.1386C46.4446 24.768 44.0686 26.242 41.6266 27.012C42.1766 27.518 42.9246 28.486 43.2986 29.102C44.0906 28.794 44.8386 28.442 45.5866 28.002V34.976ZM42.4186 38.298H61.6466V36.01H42.4186V38.298ZM79.0926 30.972H71.1286V30.026H79.0926V30.972ZM71.1286 36.208V35.196H79.0926V36.208H71.1286ZM79.0926 33.568H71.1286V32.6H79.0926V33.568ZM83.8006 27.144V25.076H72.9106C73.0426 24.768 73.1746 24.438 73.2846 24.13H82.6126V22.15H73.9886C74.0986 21.798 74.2086 21.446 74.2966 21.094C77.3106 20.94 80.1926 20.698 82.5246 20.302L80.9846 18.432C77.2886 19.048 70.9306 19.312 65.5626 19.312C65.7826 19.84 66.0246 20.698 66.0466 21.27C67.7626 21.292 69.5886 21.27 71.4146 21.204C71.3486 21.534 71.2606 21.842 71.1726 22.15H65.8046V24.13H70.4686C70.3366 24.438 70.2046 24.768 70.0506 25.076H64.2646V27.144H68.9506C67.6306 29.212 65.8706 31.038 63.5826 32.27C64.0886 32.798 64.8586 33.766 65.2326 34.382C66.5086 33.634 67.6306 32.732 68.6206 31.742V38.98H71.1286V38.188H79.0926V38.98H81.7326V28.046H71.4366C71.6126 27.738 71.7886 27.452 71.9426 27.144H83.8006ZM90.5986 26.286C92.6006 24.878 94.5586 23.162 96.0106 21.468C97.4406 23.162 99.2666 24.856 101.291 26.286H90.5986ZM97.3306 33.37H103.095V31.104H97.3306V28.596H102.039V26.792C102.941 27.386 103.865 27.914 104.811 28.354C105.207 27.606 106.021 26.528 106.571 25.956C102.831 24.592 99.3106 21.82 97.4186 19.048H89.8946V21.468H92.8206C90.7526 23.426 88.0246 25.252 85.5826 26.242C86.1766 26.814 86.8146 27.716 87.1886 28.354C88.0906 27.892 89.0366 27.342 89.9826 26.704V28.596H94.6026V31.104H88.9046V33.37H94.6026V36.032H86.7486V38.364H105.471V36.032H97.3306V33.37ZM116.207 32.952V35.636H111.499V32.952H116.207ZM109.013 38.892H111.499V37.902H116.207V38.782H118.781V30.62H109.013V38.892ZM115.767 23.14C115.481 24.218 114.997 25.626 114.535 26.66H111.917L113.237 26.286C113.017 25.428 112.555 24.13 112.027 23.14H115.767ZM116.603 23.14H119.177V20.786H115.459C115.195 19.994 114.799 19.004 114.403 18.19L112.005 18.872C112.269 19.466 112.533 20.148 112.709 20.786H108.551V23.14H111.499L109.717 23.58C110.179 24.504 110.597 25.758 110.817 26.66H108.001V29.036H119.617V26.66H117.043C117.483 25.736 117.923 24.592 118.385 23.536L116.603 23.14ZM126.481 19.312L126.107 19.4H120.431V38.826H122.719V21.754H125.183C124.677 23.426 123.995 25.67 123.379 27.276C125.051 29.036 125.513 30.62 125.513 31.808C125.513 32.556 125.381 33.106 125.007 33.326C124.765 33.48 124.501 33.546 124.193 33.546C123.885 33.546 123.445 33.546 122.961 33.502C123.357 34.206 123.555 35.24 123.599 35.922C124.171 35.966 124.809 35.944 125.293 35.878C125.865 35.79 126.349 35.636 126.745 35.35C127.559 34.778 127.911 33.7 127.911 32.116C127.911 30.686 127.581 28.948 125.821 26.968C126.657 25.076 127.559 22.546 128.307 20.434L126.481 19.312Z" fill="#E9706E"/>
</svg>
