<svg width="198" height="280" viewBox="0 0 198 280" fill="none" xmlns="http://www.w3.org/2000/svg">
<rect width="198" height="280" rx="30" fill="#FBEEEA"/>
<rect x="19" y="16" width="160" height="248" rx="30" stroke="#E9706E" stroke-width="5"/>
<path d="M66.8245 140V136.064H68.0245V125.264H66.8245V121.328H76.9525V125.264H74.7445V136.064H76.9045V133.856H81.6805V140H66.8245ZM90.8082 140.336C88.5362 140.336 86.7602 139.744 85.4802 138.56C84.2002 137.36 83.5602 135.616 83.5602 133.328C83.5602 131.04 84.2002 129.304 85.4802 128.12C86.7602 126.92 88.5362 126.32 90.8082 126.32C93.1122 126.32 94.8962 126.928 96.1602 128.144C97.4242 129.344 98.0562 131.072 98.0562 133.328C98.0562 135.616 97.4162 137.36 96.1362 138.56C94.8562 139.744 93.0802 140.336 90.8082 140.336ZM90.8082 136.064C91.2722 136.064 91.6162 135.944 91.8402 135.704C92.0802 135.448 92.2002 135.056 92.2002 134.528V132.128C92.2002 131.6 92.0802 131.216 91.8402 130.976C91.6162 130.72 91.2722 130.592 90.8082 130.592C90.3442 130.592 89.9922 130.72 89.7522 130.976C89.5282 131.216 89.4162 131.6 89.4162 132.128V134.528C89.4162 135.056 89.5282 135.448 89.7522 135.704C89.9922 135.944 90.3442 136.064 90.8082 136.064ZM107.052 145.664C105.9 145.664 104.796 145.584 103.74 145.424C102.7 145.264 101.892 145.08 101.316 144.872V140.936C103.012 141.24 104.532 141.392 105.876 141.392C106.788 141.392 107.444 141.248 107.844 140.96C108.26 140.688 108.468 140.168 108.468 139.4V138.368C108.068 138.88 107.548 139.336 106.908 139.736C106.284 140.136 105.564 140.336 104.748 140.336C103.116 140.336 101.884 139.728 101.052 138.512C100.236 137.296 99.8283 135.568 99.8283 133.328C99.8283 131.088 100.236 129.36 101.052 128.144C101.884 126.928 103.116 126.32 104.748 126.32C105.564 126.32 106.284 126.52 106.908 126.92C107.548 127.32 108.068 127.776 108.468 128.288V126.656H115.044V130.592H113.988V139.04C113.988 141.36 113.412 143.04 112.26 144.08C111.108 145.136 109.372 145.664 107.052 145.664ZM107.076 136.064C107.54 136.064 107.884 135.944 108.108 135.704C108.348 135.448 108.468 135.056 108.468 134.528V132.128C108.468 131.6 108.348 131.216 108.108 130.976C107.884 130.72 107.54 130.592 107.076 130.592C106.612 130.592 106.26 130.72 106.02 130.976C105.796 131.216 105.684 131.6 105.684 132.128V134.528C105.684 135.056 105.796 135.448 106.02 135.704C106.26 135.944 106.612 136.064 107.076 136.064ZM124.075 140.336C121.803 140.336 120.027 139.744 118.747 138.56C117.467 137.36 116.827 135.616 116.827 133.328C116.827 131.04 117.467 129.304 118.747 128.12C120.027 126.92 121.803 126.32 124.075 126.32C126.379 126.32 128.163 126.928 129.427 128.144C130.691 129.344 131.323 131.072 131.323 133.328C131.323 135.616 130.683 137.36 129.403 138.56C128.123 139.744 126.347 140.336 124.075 140.336ZM124.075 136.064C124.539 136.064 124.883 135.944 125.107 135.704C125.347 135.448 125.467 135.056 125.467 134.528V132.128C125.467 131.6 125.347 131.216 125.107 130.976C124.883 130.72 124.539 130.592 124.075 130.592C123.611 130.592 123.259 130.72 123.019 130.976C122.795 131.216 122.683 131.6 122.683 132.128V134.528C122.683 135.056 122.795 135.448 123.019 135.704C123.259 135.944 123.611 136.064 124.075 136.064Z" fill="#E9706E"/>
</svg>
