<svg width="93" height="95" viewBox="0 0 93 95" fill="none" xmlns="http://www.w3.org/2000/svg">
<rect x="33.4044" y="4.68945" width="59.2731" height="83.8206" rx="15" transform="rotate(3.49201 33.4044 4.68945)" fill="#DAD3D1" fill-opacity="0.46"/>
<rect x="31.959" y="2.29883" width="59.2731" height="83.8206" rx="15" transform="rotate(3.49201 31.959 2.29883)" fill="#E9706E"/>
<rect x="37.3444" y="7.42578" width="47.8975" height="74.2411" rx="15" transform="rotate(3.49201 37.3444 7.42578)" stroke="#F9EEEA" stroke-width="2"/>
<path d="M52.6182 36.1878C52.1832 36.5291 51.671 36.6453 51.1627 36.4239C50.7802 36.2564 50.4632 35.9582 50.1849 35.629C50.156 36.0015 50.0573 36.3663 49.986 36.7415C49.9634 36.8638 49.847 36.9176 49.7456 36.8767C49.554 36.7986 49.3687 36.7096 49.1928 36.6072C49.192 36.6184 49.1941 36.6298 49.1935 36.6382C49.2 37.7932 49.1925 38.9472 49.1454 40.1041C49.0891 41.5532 48.9822 43.0016 48.7776 44.4375C48.5786 45.8344 48.2917 47.2392 47.7939 48.5589C47.383 49.6424 46.7972 50.7307 45.8952 51.4279C45.163 51.9934 44.3021 52.1838 43.4459 52.1042C44.0641 52.567 44.7645 52.9004 45.475 53.1697C46.3088 53.4871 47.1774 53.7112 48.05 53.8764C49.6896 54.1882 51.392 54.3269 53.067 54.1737C53.4552 54.1389 53.8424 54.1181 54.2254 54.0379C54.4541 53.9891 54.6981 53.9217 54.8917 53.7719C55.2579 53.4878 55.2496 52.9212 55.2384 52.4783C55.2278 52.0664 55.1801 51.6604 55.1553 51.2503C55.1181 50.6142 55.1005 49.9793 55.052 49.3452C54.954 48.088 54.8022 46.8356 54.6189 45.5922C54.5275 44.9663 54.4048 44.3438 54.3275 43.7189C54.2505 43.0884 54.2079 42.449 54.1623 41.8122C54.0694 40.5639 53.9934 39.3139 53.8663 38.0716C53.3723 37.5246 53.0314 36.8024 52.6182 36.1878Z" fill="#E5A29D"/>
<path d="M62.8913 39.0397C62.0293 38.6415 61.1153 38.4228 60.1682 38.3959C59.1959 38.3674 58.2258 38.5079 57.2647 38.6407C56.2668 38.7764 55.2698 38.8194 54.2694 38.9099C53.4023 38.9873 52.5113 39.1249 51.7442 39.5443C51.5494 40.0348 51.3628 40.5286 51.1846 41.023C50.4143 43.1797 49.8082 45.4436 49.7795 47.7478C49.7574 49.5936 50.0726 51.7304 51.5877 52.9768C52.8313 53.9987 54.5174 54.2095 56.0752 54.1213C56.5105 54.0982 56.9421 54.0468 57.3721 53.9783C57.9842 53.8831 58.609 53.8479 59.2253 53.8122C60.4807 53.7395 61.7376 53.726 62.9935 53.6448C63.8819 53.5859 64.7774 53.5443 65.6552 53.3945C66.4304 53.2628 67.3003 53.0646 67.8883 52.5087C68.4071 52.0156 68.6709 51.3441 68.8316 50.657C69.0201 49.8536 69.0619 49.0145 69.0376 48.1934C68.9881 46.4863 68.6039 44.8515 67.7099 43.381C66.5858 41.5368 64.8608 39.949 62.8913 39.0397Z" fill="#F0DDD6"/>
<path d="M57.7231 50.7316C57.565 50.6163 57.2834 50.5769 57.0594 50.5584C56.7289 50.5325 56.3929 50.5456 56.0643 50.5733C55.58 50.6127 54.9975 50.6874 54.5682 50.8263C54.482 51.0118 54.4563 51.2184 54.6329 51.3913C54.8147 51.5701 55.1268 51.6567 55.4051 51.7043C56.0117 51.8087 56.7348 51.7776 57.2726 51.5758C57.5271 51.481 57.6792 51.3593 57.7746 51.1632C57.8171 51.0789 57.8462 50.9852 57.8302 50.8911C57.8207 50.8257 57.782 50.7751 57.7231 50.7316Z" fill="#EEAE94"/>
<path d="M66.2384 43.608C66.16 43.3603 66.0848 43.1072 65.9889 42.8668C65.9528 42.7798 65.9138 42.6926 65.8689 42.6106C65.8215 42.5228 65.8548 42.5702 65.7895 42.4981C65.7267 42.4289 65.7774 42.4691 65.6855 42.4147C65.6288 42.3798 65.5691 42.3475 65.509 42.3207C65.3972 42.2679 65.1427 42.1628 64.9761 42.0892C64.9352 42.0694 64.8942 42.0525 64.8533 42.0327C64.9387 42.9454 64.9111 43.8643 64.8136 44.7755C64.4756 47.917 62.9962 52.764 59.3488 52.6132C59.747 53.0409 60.2424 53.3656 60.7853 53.5753C63.4335 54.6053 67.7014 53.3324 67.5769 49.8375C67.5719 49.7077 67.6288 49.6187 67.711 49.5709C67.4888 48.6008 67.2984 47.6188 67.082 46.6462C66.8555 45.6166 66.5596 44.6132 66.2384 43.608Z" fill="#E5A29D" stroke="#E5A29D" stroke-miterlimit="10"/>
<path d="M75.6892 50.6472C75.0014 50.5766 74.5145 50.0892 74.2101 49.53C73.8055 48.7921 73.6283 47.9434 73.5052 47.1266C73.2097 45.1911 73.2398 43.2305 73.179 41.2804C73.1609 40.654 73.1647 39.9953 73.0077 39.3817C72.6914 38.1459 72.2246 36.9278 71.6081 35.7977C71.004 34.691 70.2252 33.6679 69.2474 32.8307C68.2457 31.975 67.0505 31.348 65.768 30.9626C64.3836 30.5448 62.906 30.4133 61.4624 30.4391C60.0865 30.4639 58.5293 30.6648 57.4769 31.5796C57.4107 31.6398 57.3299 31.6285 57.2766 31.5853C55.9887 32.1627 54.481 32.2205 53.1781 32.7715C52.5106 33.0543 51.8345 33.2999 51.2092 33.6644C50.5693 34.0365 49.9956 34.5088 49.5019 35.046C48.8223 35.7841 48.3447 36.694 48.0924 37.6451C47.8523 38.5407 47.8102 39.5458 48.197 40.4177C48.5962 41.3129 49.4038 41.8847 50.3523 42.1735C50.3938 41.7822 50.4542 41.4006 50.3296 41.0089C50.2763 40.8447 50.5093 40.7737 50.6176 40.877C50.9609 41.2023 51.3485 41.5392 51.8132 41.6984C52.3084 41.8654 52.7395 41.7012 53.0878 41.351C53.1514 41.2879 53.2625 41.3097 53.3204 41.3673C53.7263 41.7646 54.0604 42.2216 54.4603 42.6241C54.5655 42.73 54.6765 42.8335 54.7938 42.929C54.8496 42.9357 54.9037 42.9677 54.9274 43.0313C55.1578 43.1994 55.4104 43.3326 55.6955 43.4032C56.2161 43.5297 56.6864 43.4077 57.1097 43.1135C57.9652 42.5172 58.4914 41.5965 59.3281 40.9877C59.3932 40.9415 59.5095 40.9299 59.5606 41.0039C59.7097 41.2086 59.8645 41.411 60.0283 41.6054C60.626 42.3203 61.3511 42.9848 62.1769 43.4565C62.4125 43.5913 62.6612 43.6988 62.9062 43.8201C63.0504 43.8921 63.162 43.9872 63.2339 44.1274C63.3551 44.3668 63.4092 44.6409 63.4844 44.894C63.6321 45.3999 63.7487 45.9065 63.8419 46.4255C63.9372 46.956 64.0211 47.4884 64.1421 48.0122C64.263 48.5388 64.4335 49.0407 64.6466 49.5371C64.9835 50.3154 65.3003 51.1006 65.704 51.8526C66.0853 52.5607 66.5542 53.3453 67.3401 53.7044C68.2651 54.1267 69.3493 54.0054 70.3252 53.8625C71.1844 53.7367 72.0434 53.6137 72.8789 53.3849C73.6081 53.1853 74.3348 52.901 74.9167 52.432C75.4898 51.968 75.8345 51.3473 75.962 50.6522C75.8685 50.6598 75.7784 50.6591 75.6892 50.6472Z" fill="#E5A29D" stroke="#E5A29D" stroke-miterlimit="10"/>
<path d="M50.3748 40.9246C50.5739 41.5805 51.1474 41.7558 51.6344 41.7983C52.0263 41.8314 52.4262 41.8312 52.8008 41.6687C53.1754 41.5062 53.5232 41.1645 53.6939 40.6554C53.391 41.5241 52.7975 42.1584 52.1355 42.3233C51.6483 42.4441 51.0442 42.2245 50.8579 41.5469" fill="#E5A29D"/>
<path d="M49.9606 41.01C50.0949 41.4249 50.3352 41.774 50.7292 41.9789C51.0877 42.1673 51.4863 42.2262 51.8856 42.2344C52.3916 42.2472 52.8824 42.1548 53.3054 41.8634C53.6783 41.6051 53.9445 41.221 54.0926 40.7949C54.272 40.2836 53.4806 40.003 53.2984 40.5141C53.1826 40.8411 53.0337 41.1179 52.812 41.3896C52.655 41.5814 52.4403 41.7522 52.1993 41.8564C52.1673 41.8711 52.1355 41.883 52.1037 41.8948C52.1585 41.8761 52.0951 41.897 52.0722 41.9011C52.0436 41.9075 52.012 41.9166 51.9836 41.9202C51.9836 41.9202 51.8728 41.935 51.9322 41.9307C51.9916 41.9264 51.89 41.9305 51.8787 41.9298C51.8421 41.93 51.8059 41.9247 51.7695 41.9221C51.6882 41.9164 51.7997 41.9327 51.7526 41.9209C51.7222 41.9132 51.6918 41.9054 51.6643 41.8951C51.6341 41.8845 51.6069 41.8713 51.5766 41.8608C51.5384 41.844 51.6167 41.8917 51.5578 41.8482C51.5338 41.8296 51.5041 41.8106 51.4773 41.7919C51.4452 41.7671 51.5031 41.8247 51.4534 41.7705C51.4245 41.7403 51.3985 41.7103 51.3726 41.6775C51.3341 41.6242 51.3698 41.6773 51.3497 41.6422C51.3124 41.572 51.2829 41.5108 51.2694 41.4619C51.2058 41.2435 51.0087 41.0833 50.7716 41.1315C50.5631 41.1732 50.3777 41.408 50.4411 41.6293C50.5755 42.0836 50.84 42.4485 51.2738 42.6478C51.6229 42.8102 52.0232 42.8044 52.3836 42.6831C53.2316 42.3961 53.7964 41.6077 54.0898 40.7947C53.8261 40.7002 53.5594 40.6083 53.2956 40.5139C53.1936 40.8052 53.0426 41.0312 52.7857 41.2019C52.8299 41.174 52.7593 41.217 52.7447 41.2244C52.7125 41.2418 52.6803 41.2593 52.6483 41.274C52.5813 41.3059 52.5151 41.3266 52.4405 41.3467C52.2716 41.3856 52.1101 41.3996 51.9388 41.3933C51.7841 41.3909 51.6271 41.38 51.4712 41.355C51.4462 41.3504 51.4212 41.3458 51.3961 41.3413C51.4876 41.3618 51.3659 41.3307 51.3577 41.3273C51.2996 41.312 51.2475 41.2915 51.1899 41.2705C51.1652 41.2604 51.108 41.2338 51.1622 41.263C51.1324 41.2468 51.1054 41.2308 51.0757 41.2119C51.0489 41.1931 51.022 41.1743 50.9924 41.1553C50.8958 41.0866 51.013 41.1821 50.9657 41.1338C50.8737 41.04 50.8172 40.9629 50.7778 40.8418C50.7084 40.6258 50.5226 40.4636 50.2799 40.5114C50.0882 40.5543 49.8915 40.7911 49.9606 41.01Z" fill="#E5A29D"/>
<path d="M58.9526 40.8809C60.1344 41.659 61.3727 42.3539 62.6537 42.9616C62.0743 42.7915 61.495 42.6187 60.9128 42.4484C61.5029 42.9487 62.2899 43.2121 63.0615 43.1703" fill="#E5A29D"/>
<path d="M58.7142 41.2295C59.9284 42.0269 61.1995 42.7353 62.5104 43.3592C62.6049 43.0954 62.6967 42.8287 62.7912 42.565C62.2117 42.3949 61.6325 42.2221 61.0502 42.0518C60.5785 41.9118 60.3068 42.4954 60.6715 42.7969C61.3235 43.3381 62.182 43.6262 63.0293 43.5897C63.2552 43.5802 63.4618 43.4454 63.479 43.1988C63.4935 42.9914 63.3168 42.7397 63.0881 42.7491C62.3678 42.7804 61.7018 42.5592 61.1454 42.1007C61.0182 42.3481 60.8937 42.5984 60.7666 42.8458C61.3461 43.0159 61.9253 43.1887 62.5076 43.359C63.0374 43.5143 63.2709 42.7928 62.7884 42.5648C61.543 41.9708 60.3404 41.2897 59.1852 40.5331C58.7359 40.2342 58.262 40.9304 58.7142 41.2295Z" fill="#E5A29D"/>
<path d="M69.0164 44.0676C68.938 43.8199 68.8683 43.5672 68.7725 43.3268C68.7392 43.24 68.7002 43.1528 68.6552 43.0708C68.6079 42.983 68.6412 43.0304 68.5786 42.9584C68.5187 42.8895 68.5666 42.9294 68.4774 42.8753C68.4207 42.8404 68.3638 42.8083 68.3068 42.7789C68.1978 42.7262 67.9489 42.6215 67.7879 42.5483C67.747 42.5286 67.7087 42.5118 67.6679 42.4921C67.7505 43.4046 67.7229 44.3235 67.6282 45.2349C67.2958 48.3768 65.853 53.2235 62.2983 53.0763C62.6852 53.5032 63.1695 53.8271 63.6953 54.0385C66.2761 55.0666 70.4371 53.7919 70.3182 50.2974C70.3132 50.1675 70.3701 50.0786 70.4495 50.0306C70.2329 49.0608 70.0481 48.0792 69.8373 47.1071C69.6196 46.0725 69.3293 45.0694 69.0164 44.0676Z" fill="#E5A29D" stroke="#E5A29D" stroke-miterlimit="10"/>
<path d="M60.918 53.1626C65.2019 54.6815 70.0825 54.4314 74.1921 52.4829Z" fill="#E5A29D"/>
<path d="M60.7777 53.5606C65.1921 55.1055 70.1464 54.8493 74.377 52.8614C74.869 52.6311 74.4966 51.8757 74.0046 52.106C69.975 53.9982 65.2612 54.2374 61.0587 52.7636C60.5446 52.5841 60.2664 53.3812 60.7777 53.5606Z" fill="#E5A29D"/>
<path d="M59.0097 41.2715C59.0473 41.781 59.4672 42.1792 59.9021 42.4434C60.7987 42.9904 61.8958 43.2079 62.9327 43.0383" fill="#E5A29D"/>
<path d="M58.5955 41.3545C58.6857 42.2394 59.5481 42.7925 60.2887 43.1146C61.1412 43.4868 62.0969 43.5931 63.0163 43.4518C63.5516 43.3682 63.3868 42.5428 62.8488 42.6263C62.1228 42.7388 61.3802 42.6475 60.6981 42.3745C60.1776 42.1663 59.4872 41.8111 59.421 41.187C59.3974 40.9601 59.1316 40.8148 58.9232 40.8565C58.6833 40.9045 58.5719 41.1276 58.5955 41.3545Z" fill="#E5A29D"/>
<path d="M67.7412 49.1342C70.8876 49.3542 73.6166 46.9819 73.8366 43.8355C74.0566 40.6892 71.6844 37.9602 68.538 37.7402C65.3916 37.5202 62.6626 39.8924 62.4426 43.0388C62.2226 46.1852 64.5949 48.9141 67.7412 49.1342Z" fill="#E9706E"/>
<path d="M66.7338 40.8749C65.543 41.4337 66.2741 41.972 66.1785 43.3395C66.0828 44.707 65.2811 45.1381 66.3854 45.8573C67.565 46.6269 67.6267 45.7442 68.9047 45.1465C70.1799 44.5485 70.9913 45.146 71.0936 43.6832C71.1959 42.2204 70.1681 42.9849 69.1721 41.9662C68.1631 40.9326 68.0088 40.2798 66.7338 40.8749Z" fill="#F9EEEB"/>
<path d="M62.135 45.9521C61.8719 45.9281 61.619 45.84 61.3917 45.7086C61.1509 45.5679 60.9559 45.3769 60.7431 45.1986C60.2884 44.8149 59.7238 44.5529 59.137 44.4471C58.8393 44.3953 58.5363 44.3798 58.2379 44.418C58.0931 44.4361 57.9504 44.4627 57.8124 44.5037C57.6687 44.5444 57.5081 44.5866 57.3813 44.6679C57.3487 44.691 57.3145 44.697 57.2809 44.6947C56.942 44.7892 56.6131 44.7409 56.2693 44.6634C56.1862 44.6435 56.103 44.6264 56.0197 44.6093C55.9696 44.6002 55.9198 44.5882 55.8693 44.5847C55.8665 44.5845 55.8637 44.5843 55.8581 44.5839C55.8846 44.6083 55.9106 44.6383 55.9405 44.6544C56.1414 44.7614 56.3968 44.7736 56.6112 44.8478C56.8311 44.9251 56.92 45.0637 56.8979 45.2987C56.8942 45.3519 56.8338 45.5307 56.8731 45.5729C56.9096 45.6149 56.9948 45.5645 57.0384 45.545C57.2416 45.4579 57.4229 45.3213 57.6259 45.2369C57.9158 45.1192 58.2539 45.0753 58.5627 45.049C58.8771 45.0231 59.1953 45.0228 59.5084 45.056C59.8241 45.0921 60.1372 45.1647 60.4166 45.3166C60.6932 45.4683 60.8848 45.7492 61.1654 45.8843C61.3098 45.9535 61.4745 45.9341 61.6294 45.9336C61.7813 45.9358 61.9198 45.968 62.0672 45.9952C62.3116 46.0433 62.5438 46.0257 62.7585 45.8943C62.7997 45.869 62.8411 45.841 62.8743 45.8095C62.8773 45.8069 62.8805 45.8015 62.8867 45.7935C62.8579 45.8027 62.8236 45.8088 62.7948 45.818C62.5694 45.9008 62.3868 45.9753 62.135 45.9521Z" fill="#5B5B5B"/>
<path d="M59.3927 45.4191C59.2197 45.6379 59.1099 45.9203 59.0486 46.192C58.9991 46.4166 58.9545 46.6922 59.0661 46.9084L59.0687 46.9114C59.0773 46.9092 59.0861 46.9042 59.0919 46.9018C59.2278 46.8522 59.3857 46.7675 59.5361 46.792C59.6976 46.8174 59.784 46.9924 59.7173 47.1398C59.6537 47.2846 59.4797 47.3569 59.3407 47.412C59.2221 47.4572 59.0024 47.4981 58.9264 47.5773C58.7412 47.7699 59.1767 47.7835 59.2809 47.7429C59.3505 47.714 59.4558 47.7382 59.484 47.819C59.5445 48.0007 59.5079 48.1615 59.4285 48.3305C59.3561 48.4803 59.241 48.6356 59.2655 48.8091C59.3143 49.1588 59.713 49.4965 60.0676 49.4593C60.3372 49.4303 60.5262 49.1845 60.6513 48.9651C60.7958 48.7105 60.8803 48.4292 60.9479 48.1467C61.1377 47.3659 61.2905 46.5092 60.7761 45.8115C60.4931 45.4285 59.7973 44.9095 59.3927 45.4191Z" fill="#5B5B5B" stroke="#5B5B5B" stroke-miterlimit="10"/>
<path opacity="0.5" d="M60.2421 48.3363C60.0534 48.1345 59.76 48.1027 59.4982 48.1407C59.4823 48.2072 59.458 48.2731 59.4281 48.3385C59.3557 48.4884 59.2406 48.6436 59.2651 48.8171C59.3138 49.1669 59.7126 49.5045 60.0672 49.4674C60.3112 49.4422 60.4888 49.2378 60.6128 49.0353C60.4385 48.8288 60.4255 48.5322 60.2421 48.3363Z" fill="#F9EEEB"/>
<path opacity="0.5" d="M60.4052 45.9593C60.7136 46.0992 60.8865 46.3647 61.0978 46.6048C61.0552 46.3286 60.9581 46.0656 60.7754 45.8191C60.4924 45.436 59.7966 44.9171 59.392 45.4267C59.2436 45.6162 59.1401 45.8484 59.0786 46.0834C59.5097 45.9587 59.9631 45.7567 60.4052 45.9593Z" fill="#F9EEEB"/>
<path d="M53.1127 46.193C52.8985 45.9134 52.5436 45.714 52.2397 45.5491C51.8601 45.3395 51.452 45.1758 51.0268 45.0954C50.646 45.0237 50.299 45.0727 49.9453 45.1775C49.9453 45.1775 49.9453 45.1775 49.9425 45.1773C49.575 45.3994 49.109 45.3386 48.6986 45.369C48.5683 45.3797 48.4382 45.3875 48.3081 45.3953C48.2601 45.3975 48.1602 45.4159 48.084 45.419C48.0996 45.437 48.1125 45.4548 48.1287 45.4644C48.1958 45.5113 48.2755 45.5394 48.353 45.5589C48.7538 45.6658 49.2037 45.6353 49.6141 45.6048C50.0474 45.5704 50.4734 45.3974 50.909 45.411C51.3193 45.4228 51.6134 45.6461 51.9639 45.8283C52.3549 46.0359 52.7151 46.2807 53.0873 46.5151C53.1008 46.5245 53.1877 46.57 53.2524 46.6111C53.2538 46.5915 53.2551 46.5719 53.2531 46.5605C53.2427 46.4274 53.1953 46.3002 53.1127 46.193Z" fill="#5B5B5B"/>
<path d="M53.1632 46.799C52.8776 46.413 52.4825 46.0221 52.0008 45.9039C51.8512 45.8681 51.6941 45.8599 51.6053 46.003C51.5132 46.1514 51.5019 46.3534 51.476 46.5233C51.4395 46.763 51.3398 47.3839 51.7629 47.253C52.0391 47.1681 52.3541 46.8523 52.6538 47.0365C52.7132 47.0717 52.7405 47.1243 52.745 47.1809C52.8014 47.2609 52.8066 47.388 52.7056 47.4626C52.5331 47.5941 52.3225 47.6667 52.1323 47.7688C51.9977 47.8411 51.7059 47.9868 51.7458 48.1811C51.7767 48.3438 52.055 48.1492 52.1418 48.1159C52.3098 48.0488 52.529 48.0556 52.5965 48.2575C52.6546 48.4333 52.5344 48.622 52.4538 48.7685C52.3604 48.9365 52.2456 49.1284 52.2431 49.3254C52.2353 49.7585 52.9861 49.8138 53.2695 49.6675C53.4857 49.5559 53.5362 49.3172 53.5629 49.0966C53.5929 48.8284 53.6291 48.5521 53.6283 48.2818C53.6279 48.0058 53.6114 47.7174 53.5256 47.4551C53.4466 47.2159 53.3124 47.0009 53.1632 46.799Z" fill="#5B5B5B" stroke="#5B5B5B" stroke-miterlimit="10"/>
<path opacity="0.5" d="M51.4816 46.4038C51.5495 46.5212 51.7458 46.4927 51.8614 46.4895C52.0051 46.4883 52.143 46.4895 52.2846 46.5191C52.476 46.5606 52.8199 46.7565 52.9577 46.5577C52.6969 46.2607 52.3691 45.9956 51.9897 45.9043C51.8401 45.8685 51.683 45.8603 51.5941 46.0034C51.5242 46.1168 51.5 46.2615 51.482 46.3982C51.4818 46.401 51.4818 46.401 51.4816 46.4038Z" fill="#F9EEEB"/>
<path opacity="0.5" d="M53.0951 48.7349C52.7525 48.6405 52.5355 48.845 52.296 49.0479C52.2587 49.1382 52.2298 49.2291 52.2288 49.3248C52.221 49.7579 52.9718 49.8132 53.2552 49.6669C53.4218 49.58 53.4894 49.4186 53.524 49.2464C53.4612 49.0167 53.3466 48.8031 53.0951 48.7349Z" fill="#F9EEEB"/>
<rect x="0.952332" y="11.459" width="59.2731" height="83.8206" rx="15" transform="rotate(-8.74068 0.952332 11.459)" fill="#D1CAC4" fill-opacity="0.62"/>
<rect x="3.29517" y="9.01758" width="59.2731" height="83.8206" rx="15" transform="rotate(-8.74068 3.29517 9.01758)" fill="#F9EEEA"/>
<rect x="9.64471" y="12.8867" width="47.8975" height="74.2411" rx="15" transform="rotate(-8.74068 9.64471 12.8867)" stroke="#E9706E" stroke-width="2"/>
<path d="M30.2618 38.5393C29.8927 38.9509 29.4085 39.1544 28.8695 39.0246C28.4637 38.926 28.0997 38.6875 27.7684 38.4116C27.8047 38.7834 27.7708 39.1598 27.7658 39.5417C27.7647 39.6661 27.6594 39.7393 27.5525 39.7166C27.3502 39.6729 27.1523 39.6175 26.9613 39.5471C26.9625 39.5583 26.9665 39.5692 26.9674 39.5776C27.1743 40.7139 27.3674 41.8517 27.5219 42.9992C27.7181 44.436 27.8643 45.881 27.9122 47.3306C27.9587 48.7408 27.9201 50.1741 27.659 51.5602C27.4426 52.6986 27.0546 53.8721 26.2874 54.7153C25.6645 55.3994 24.8497 55.7364 23.9928 55.8067C24.6819 56.1551 25.4295 56.3618 26.176 56.5037C27.0523 56.6715 27.9466 56.7413 28.8346 56.7525C30.5035 56.7748 32.2041 56.6158 33.827 56.1741C34.2033 56.0724 34.581 55.9847 34.9442 55.8392C35.161 55.7514 35.3896 55.6426 35.5542 55.4615C35.8655 55.1181 35.759 54.5616 35.671 54.1273C35.589 53.7236 35.4716 53.332 35.376 52.9325C35.2289 52.3124 35.1013 51.6903 34.9434 51.0742C34.6286 49.8532 34.2617 48.6461 33.8651 47.4534C33.6665 46.8529 33.4376 46.2612 33.2529 45.6592C33.0676 45.0516 32.9146 44.4294 32.7591 43.8102C32.4508 42.5969 32.159 41.3791 31.8181 40.1778C31.2366 39.7249 30.7755 39.0728 30.2618 38.5393Z" fill="#E5A29D"/>
<path d="M40.8742 39.5637C39.9562 39.3212 39.0181 39.2644 38.0807 39.4025C37.1182 39.5432 36.1873 39.8501 35.2638 40.1477C34.3047 40.4547 33.3302 40.6701 32.3608 40.933C31.5203 41.1597 30.6667 41.45 29.9841 41.9963C29.8774 42.5131 29.7794 43.0318 29.6898 43.5496C29.3057 45.8073 29.102 48.142 29.4738 50.4163C29.7725 52.2378 30.454 54.2874 32.1626 55.2518C33.5647 56.0422 35.2618 55.9571 36.7806 55.5997C37.2052 55.5014 37.6214 55.3758 38.0329 55.2336C38.6192 55.0336 39.2284 54.8905 39.8292 54.7483C41.0529 54.4586 42.2883 54.2271 43.5111 53.9291C44.3757 53.7168 45.2504 53.5203 46.0889 53.2204C46.8294 52.9561 47.6517 52.6098 48.1342 51.9603C48.5595 51.3846 48.7027 50.6775 48.7416 49.9729C48.7877 49.149 48.6832 48.3154 48.5167 47.5109C48.1715 45.8384 47.5093 44.2951 46.3735 43.0022C44.9462 41.3812 42.9717 40.1171 40.8742 39.5637Z" fill="#F0DDD6"/>
<path d="M37.8146 51.9741C37.6389 51.888 37.3547 51.8981 37.1309 51.9188C36.801 51.9507 36.4723 52.022 36.1535 52.1063C35.6834 52.2292 35.1228 52.4039 34.7241 52.6153C34.6715 52.8129 34.682 53.0208 34.8859 53.1603C35.096 53.3049 35.4185 53.336 35.7008 53.3346C36.3163 53.332 37.0229 53.1758 37.5176 52.8837C37.7517 52.7462 37.8804 52.5999 37.9403 52.3902C37.9675 52.2998 37.9798 52.2025 37.9478 52.1126C37.9271 52.0498 37.8802 52.0067 37.8146 51.9741Z" fill="#EEAE94"/>
<path d="M44.9637 43.48C44.8435 43.2497 44.7254 43.0135 44.5893 42.7934C44.5386 42.714 44.4851 42.6349 44.4266 42.5619C44.3647 42.4837 44.4057 42.5246 44.3288 42.4649C44.255 42.4077 44.3119 42.4384 44.2119 42.4009C44.15 42.3763 44.0856 42.3549 44.0218 42.339C43.9026 42.3063 43.6337 42.247 43.4568 42.2035C43.4131 42.1911 43.3698 42.1815 43.3261 42.1692C43.5687 43.0532 43.701 43.9629 43.7632 44.8772C43.9759 48.0297 43.3607 53.0599 39.7425 53.5447C40.2089 53.8968 40.7531 54.1305 41.3242 54.2428C44.111 54.7973 48.0931 52.8026 47.3636 49.3825C47.3361 49.2554 47.3767 49.158 47.4493 49.0967C47.062 48.1798 46.704 47.2458 46.322 46.3256C45.9202 45.351 45.4545 44.4142 44.9637 43.48Z" fill="#E5A29D" stroke="#E5A29D" stroke-miterlimit="10"/>
<path d="M55.4931 48.7712C54.8035 48.8211 54.2394 48.4256 53.8425 47.9278C53.3159 47.2714 52.994 46.4663 52.731 45.6833C52.1039 43.8285 51.793 41.8925 51.3946 39.9826C51.2679 39.3688 51.1573 38.7195 50.8961 38.1425C50.3701 36.9804 49.6989 35.8618 48.8955 34.8559C48.1084 33.871 47.1637 32.9986 46.0555 32.344C44.9203 31.6752 43.6344 31.2652 42.3045 31.1084C40.8686 30.9374 39.3906 31.0645 37.9734 31.3405C36.6227 31.6039 35.124 32.0722 34.2465 33.1558C34.1918 33.2265 34.1102 33.2295 34.0502 33.1962C32.8822 33.9884 31.4074 34.3072 30.2199 35.076C29.6117 35.4704 28.9886 35.8297 28.4361 36.2973C27.8705 36.7748 27.3875 37.3396 26.9946 37.9543C26.4535 38.7993 26.1412 39.7783 26.0578 40.7587C25.9769 41.6824 26.11 42.6796 26.6423 43.471C27.1909 44.2834 28.0855 44.7062 29.0698 44.8259C29.0426 44.4333 29.0359 44.0471 28.8451 43.683C28.7641 43.5305 28.9813 43.4201 29.1059 43.503C29.5005 43.7638 29.9406 44.0282 30.426 44.1043C30.9427 44.1828 31.3387 43.9463 31.6209 43.5409C31.6725 43.4677 31.7857 43.4699 31.8528 43.5166C32.3215 43.8373 32.7299 44.2294 33.1936 44.5563C33.3156 44.6423 33.4429 44.725 33.5749 44.7987C33.6311 44.7956 33.6899 44.8177 33.7243 44.8762C33.9804 45.0018 34.2523 45.089 34.5453 45.1091C35.0799 45.1433 35.522 44.9415 35.8877 44.5782C36.6267 43.8424 36.985 42.8444 37.7032 42.0995C37.7594 42.0427 37.8719 42.0111 37.9351 42.0751C38.1174 42.2508 38.305 42.4232 38.5001 42.5863C39.2128 43.1864 40.0423 43.715 40.9375 44.0361C41.1929 44.1279 41.4566 44.1906 41.7189 44.2675C41.8734 44.3134 41.9998 44.3877 42.0949 44.5133C42.2559 44.728 42.3567 44.9886 42.4748 45.2247C42.708 45.6973 42.9109 46.176 43.0928 46.6709C43.2787 47.1767 43.4538 47.6865 43.664 48.1813C43.8744 48.6789 44.1295 49.1436 44.4255 49.5955C44.8925 50.3034 45.3409 51.0217 45.8689 51.6922C46.3674 52.3233 46.9655 53.0146 47.8018 53.2318C48.7861 53.487 49.8328 53.1793 50.769 52.8691C51.5933 52.596 52.4179 52.3257 53.2009 51.9553C53.8844 51.6321 54.5507 51.2259 55.0423 50.663C55.5262 50.1066 55.7578 49.4354 55.7627 48.7287C55.6719 48.7524 55.5831 48.7674 55.4931 48.7712Z" fill="#E5A29D" stroke="#E5A29D" stroke-miterlimit="10"/>
<path d="M28.8754 43.5949C29.1854 44.2064 29.7806 44.2794 30.2676 44.2367C30.6593 44.2011 31.053 44.1315 31.3938 43.9065C31.7345 43.6814 32.0176 43.2845 32.0974 42.7535C31.9499 43.6616 31.4756 44.3893 30.8522 44.6667C30.3935 44.8703 29.7604 44.7589 29.4592 44.1239" fill="#E5A29D"/>
<path d="M28.4822 43.7492C28.6865 44.1345 28.9837 44.4366 29.4073 44.57C29.7931 44.6933 30.1959 44.682 30.5905 44.6208C31.091 44.5456 31.5583 44.3693 31.9244 44.0089C32.2467 43.6897 32.4422 43.2652 32.514 42.8199C32.6019 42.2853 31.7738 42.1463 31.6831 42.6812C31.6259 43.0234 31.5273 43.3218 31.3561 43.6279C31.2348 43.8441 31.053 44.0496 30.8338 44.1941C30.8048 44.2141 30.7755 44.2313 30.7463 44.2485C30.797 44.2206 30.7382 44.2522 30.7164 44.2601C30.6894 44.2714 30.6598 44.2858 30.6325 44.2943C30.6325 44.2943 30.5259 44.3281 30.5836 44.3136C30.6414 44.299 30.542 44.3208 30.5309 44.322C30.4948 44.3286 30.4582 44.3296 30.4219 44.3334C30.3409 44.3419 30.4535 44.3386 30.4051 44.3352C30.3738 44.3328 30.3425 44.3305 30.3137 44.325C30.2821 44.3199 30.253 44.3116 30.2214 44.3065C30.1808 44.2966 30.2662 44.33 30.2006 44.2974C30.1737 44.2832 30.1412 44.2697 30.1115 44.2559C30.0757 44.2371 30.1427 44.2837 30.0843 44.239C30.0507 44.2143 30.0198 44.1893 29.9886 44.1615C29.9414 44.1156 29.9858 44.1618 29.96 44.1306C29.911 44.0679 29.8713 44.0128 29.8496 43.9671C29.749 43.763 29.527 43.6394 29.3019 43.728C29.1038 43.8054 28.962 44.0688 29.0629 44.2757C29.2741 44.6998 29.598 45.0132 30.0598 45.1341C30.4318 45.2334 30.8249 45.1582 31.1589 44.9762C31.9441 44.5463 32.3635 43.6718 32.5112 42.8202C32.2351 42.7729 31.9565 42.7288 31.6803 42.6815C31.6305 42.9862 31.521 43.2349 31.2976 43.4477C31.3363 43.4125 31.2743 43.4671 31.2612 43.4769C31.2325 43.4997 31.2038 43.5225 31.1749 43.5425C31.1144 43.5856 31.0528 43.6175 30.9828 43.6502C30.8233 43.7178 30.6667 43.7597 30.4968 43.7832C30.3441 43.8078 30.1876 43.8242 30.0297 43.8267C30.0043 43.8265 29.9788 43.8264 29.9534 43.8262C30.047 43.8305 29.9218 43.8211 29.9131 43.8192C29.8533 43.8142 29.7984 43.803 29.738 43.7924C29.712 43.7866 29.6509 43.7704 29.7095 43.7897C29.6773 43.779 29.6479 43.7679 29.6154 43.7544C29.5857 43.7406 29.556 43.7268 29.5235 43.7132C29.4164 43.6623 29.5485 43.736 29.4935 43.6966C29.3866 43.6203 29.3175 43.5541 29.2577 43.4418C29.1518 43.241 28.9407 43.1135 28.71 43.2027C28.5287 43.2783 28.376 43.5457 28.4822 43.7492Z" fill="#E5A29D"/>
<path d="M37.3149 42.0586C38.6138 42.6197 39.954 43.089 41.3211 43.465C40.7209 43.3982 40.1204 43.3285 39.5174 43.262C40.1855 43.6522 41.0062 43.7749 41.7589 43.5998" fill="#E5A29D"/>
<path d="M37.1408 42.4452C38.475 43.0195 39.8499 43.4964 41.2491 43.8832C41.2964 43.6071 41.3405 43.3285 41.3878 43.0523C40.7876 42.9855 40.1871 42.9159 39.5841 42.8493C39.0952 42.7933 38.929 43.4153 39.3405 43.6488C40.0767 44.0686 40.9721 44.2033 41.8002 44.0202C42.0211 43.9716 42.2011 43.8029 42.1752 43.5571C42.1535 43.3504 41.9358 43.1332 41.7121 43.1821C41.0082 43.338 40.3139 43.2358 39.6863 42.8809C39.6041 43.1466 39.5249 43.4148 39.4427 43.6805C40.0429 43.7473 40.6434 43.817 41.2463 43.8835C41.7951 43.9445 41.8997 43.1934 41.385 43.0526C40.0554 42.684 38.7527 42.2221 37.4838 41.6775C36.9893 41.4612 36.6435 42.2291 37.1408 42.4452Z" fill="#E5A29D"/>
<path d="M47.7791 43.4518C47.6589 43.2216 47.5464 42.9848 47.4103 42.7647C47.3624 42.685 47.3089 42.6059 47.2504 42.5329C47.1885 42.4547 47.2295 42.4956 47.1554 42.4356C47.0844 42.3781 47.1385 42.4091 47.0413 42.3713C46.9794 42.3468 46.9178 42.325 46.8565 42.306C46.7401 42.2731 46.4767 42.2132 46.3054 42.169C46.2618 42.1567 46.2212 42.1468 46.1775 42.1345C46.4173 43.0188 46.5497 43.9285 46.6147 44.8425C46.833 47.9944 46.2537 53.018 42.7275 53.4903C43.1826 53.8436 43.7157 54.0785 44.2703 54.1953C46.9904 54.7596 50.8669 52.7817 50.143 49.361C50.1155 49.2339 50.1561 49.1365 50.2259 49.0754C49.8442 48.158 49.4918 47.2234 49.1154 46.3026C48.7213 45.3215 48.2612 44.3841 47.7791 43.4518Z" fill="#E5A29D" stroke="#E5A29D" stroke-miterlimit="10"/>
<path d="M41.3832 53.814C45.8658 54.5659 50.6289 53.4721 54.3376 50.8396Z" fill="#E5A29D"/>
<path d="M41.314 54.2298C45.9296 54.9847 50.7642 53.8721 54.5853 51.1797C55.0298 50.8675 54.5319 50.1883 54.0874 50.5005C50.4476 53.0636 45.847 54.1177 41.4523 53.3961C40.9149 53.3086 40.7794 54.1419 41.314 54.2298Z" fill="#E5A29D"/>
<path d="M37.439 42.4336C37.5645 42.9288 38.0472 43.2481 38.5213 43.4327C39.4994 43.8158 40.6176 43.8395 41.6092 43.4923" fill="#E5A29D"/>
<path d="M37.0456 42.5878C37.2881 43.4435 38.2335 43.8385 39.0188 44.0271C39.923 44.2456 40.8826 44.1843 41.7635 43.8855C42.2761 43.7102 41.9705 42.926 41.4551 43.1016C40.7598 43.3385 40.0125 43.3775 39.2934 43.2271C38.7447 43.1125 38.0031 42.8826 37.8295 42.2794C37.7669 42.06 37.4799 41.9631 37.2819 42.0404C37.0539 42.1293 36.983 42.3684 37.0456 42.5878Z" fill="#E5A29D"/>
<path d="M47.4034 48.6627C50.5402 48.333 52.8158 45.5229 52.4861 42.3861C52.1564 39.2493 49.3463 36.9738 46.2095 37.3034C43.0728 37.6331 40.7972 40.4432 41.1269 43.58C41.4565 46.7168 44.2667 48.9924 47.4034 48.6627Z" fill="#E9706E"/>
<path d="M44.9764 40.703C43.9008 41.4601 44.7142 41.8632 44.8575 43.2266C45.0008 44.5899 44.2861 45.1537 45.4985 45.6702C46.7938 46.2233 46.7013 45.3433 47.8561 44.5327C49.0081 43.7224 49.911 44.1699 49.7577 42.7115C49.6044 41.2532 48.725 42.1846 47.5672 41.3544C46.394 40.5117 46.1287 39.8955 44.9764 40.703Z" fill="#F9EEEB"/>
<path d="M41.3294 46.5003C41.0662 46.5224 40.8019 46.4795 40.5551 46.3896C40.2936 46.2929 40.0684 46.1386 39.8278 46C39.3134 45.701 38.7119 45.5411 38.1157 45.5388C37.8135 45.5395 37.5124 45.5768 37.2252 45.6663C37.0857 45.7092 36.9498 45.7602 36.821 45.8246C36.6866 45.8896 36.5357 45.9591 36.425 46.0611C36.3969 46.0895 36.3642 46.1014 36.3307 46.1049C36.0134 46.2569 35.6811 46.2664 35.3291 46.2497C35.2438 46.2446 35.1588 46.2422 35.0738 46.2398C35.023 46.2395 34.9718 46.2364 34.9215 46.2417C34.9187 46.242 34.9159 46.2423 34.9103 46.2429C34.9406 46.2623 34.9715 46.2873 35.0037 46.2981C35.2201 46.3685 35.4738 46.3362 35.6978 46.372C35.9278 46.4099 36.0394 46.531 36.0585 46.7662C36.064 46.8193 36.0356 47.0059 36.0816 47.0406C36.1249 47.0756 36.2 47.0112 36.2396 46.9845C36.4246 46.8633 36.5794 46.6974 36.7647 46.579C37.0297 46.4128 37.3551 46.3108 37.6546 46.2313C37.9597 46.1512 38.2731 46.0957 38.5871 46.0739C38.9043 46.0547 39.2253 46.0718 39.5268 46.1729C39.8256 46.2743 40.063 46.5176 40.3628 46.6019C40.517 46.645 40.6758 46.5973 40.8283 46.57C40.9783 46.5457 41.1203 46.5534 41.2702 46.5546C41.5192 46.5595 41.7448 46.5019 41.9335 46.3352C41.9696 46.3031 42.0055 46.2683 42.0327 46.2315C42.0352 46.2284 42.0374 46.2226 42.0421 46.2136C42.0154 46.2277 41.9827 46.2396 41.956 46.2537C41.7483 46.3744 41.5814 46.4795 41.3294 46.5003Z" fill="#5B5B5B"/>
<path d="M38.5365 46.4523C38.4041 46.6979 38.345 46.995 38.3318 47.2732C38.3221 47.503 38.326 47.7822 38.4735 47.9758L38.4765 47.9783C38.4846 47.9746 38.4924 47.9681 38.4977 47.9647C38.6229 47.8923 38.7637 47.7814 38.9161 47.7795C39.0796 47.7765 39.195 47.9338 39.155 48.0906C39.1174 48.2442 38.9586 48.3456 38.8313 48.424C38.7223 48.4891 38.5131 48.5676 38.452 48.6587C38.3031 48.8806 38.7343 48.8183 38.8299 48.7603C38.8934 48.7197 39.0013 48.7253 39.0431 48.8C39.1342 48.9684 39.1261 49.133 39.0773 49.3133C39.032 49.4734 38.9456 49.6463 38.9999 49.8129C39.1086 50.1489 39.56 50.4122 39.9027 50.314C40.1631 50.2386 40.3065 49.9637 40.3917 49.7259C40.4898 49.4501 40.5241 49.1584 40.5417 48.8684C40.593 48.0665 40.5947 47.1964 39.967 46.5986C39.6218 46.2705 38.8464 45.8803 38.5365 46.4523Z" fill="#5B5B5B" stroke="#5B5B5B" stroke-miterlimit="10"/>
<path opacity="0.5" d="M39.8794 49.1783C39.6585 49.0122 39.364 49.0319 39.1129 49.1148C39.1087 49.183 39.0962 49.2521 39.0781 49.3218C39.0328 49.4819 38.9465 49.6548 39.0007 49.8214C39.1095 50.1574 39.5608 50.4207 39.9036 50.3225C40.1394 50.2554 40.2789 50.0232 40.3658 49.8022C40.1584 49.6291 40.094 49.3393 39.8794 49.1783Z" fill="#F9EEEB"/>
<path opacity="0.5" d="M39.6274 46.8101C39.9555 46.8943 40.1719 47.1257 40.4216 47.3254C40.3317 47.0609 40.1904 46.8187 39.9677 46.6077C39.6225 46.2796 38.8471 45.8894 38.5372 46.4615C38.424 46.6739 38.3623 46.9205 38.3426 47.1626C38.7455 46.9649 39.1569 46.6873 39.6274 46.8101Z" fill="#F9EEEB"/>
<path d="M32.4861 48.3064C32.2266 48.0682 31.8424 47.9334 31.5145 47.8238C31.1043 47.6834 30.674 47.593 30.2412 47.5876C29.8538 47.5832 29.5206 47.6916 29.1905 47.8563C29.1905 47.8563 29.1905 47.8563 29.1877 47.8566C28.8643 48.1391 28.3948 48.1602 27.9959 48.2614C27.8695 48.2945 27.7427 48.3248 27.616 48.355C27.5691 48.3656 27.4739 48.401 27.3994 48.4174C27.4179 48.4324 27.4336 48.4477 27.4513 48.4543C27.5255 48.4888 27.6089 48.5027 27.6886 48.5084C28.1019 48.5441 28.5396 48.4359 28.9385 48.3347C29.3592 48.2255 29.7488 47.9812 30.18 47.9189C30.5861 47.8593 30.9146 48.0281 31.2914 48.1467C31.7125 48.2832 32.1098 48.4618 32.517 48.628C32.5319 48.6349 32.6254 48.6646 32.6963 48.6939C32.6942 48.6743 32.6922 48.6548 32.6882 48.6439C32.6548 48.5146 32.586 48.3976 32.4861 48.3064Z" fill="#5B5B5B"/>
<path d="M32.6411 48.8939C32.2928 48.5633 31.8359 48.2469 31.3409 48.2142C31.1874 48.2049 31.0313 48.2242 30.9686 48.3804C30.9038 48.5426 30.9277 48.7435 30.9316 48.9154C30.9373 49.1577 30.9469 49.7865 31.3409 49.5841C31.5982 49.4526 31.8535 49.0868 32.1806 49.2162C32.2453 49.2405 32.2814 49.2876 32.2956 49.3426C32.365 49.4115 32.3922 49.5358 32.3057 49.6268C32.1586 49.7863 31.9638 49.8943 31.7943 50.028C31.6743 50.1225 31.4122 50.3167 31.4853 50.5011C31.5439 50.6559 31.7842 50.416 31.8639 50.3681C32.0177 50.2728 32.2347 50.2415 32.3363 50.4286C32.4241 50.5916 32.3385 50.7984 32.2845 50.9566C32.2217 51.1383 32.1419 51.3472 32.1737 51.5416C32.2412 51.9695 32.9902 51.8936 33.2439 51.7003C33.4374 51.5528 33.4457 51.309 33.4337 51.0872C33.4167 50.8178 33.4044 50.5395 33.3566 50.2733C33.3083 50.0016 33.242 49.7204 33.1119 49.4771C32.9926 49.2552 32.8231 49.0668 32.6411 48.8939Z" fill="#5B5B5B" stroke="#5B5B5B" stroke-miterlimit="10"/>
<path opacity="0.5" d="M30.9164 48.7967C31.0035 48.9005 31.1919 48.8383 31.3053 48.8151C31.4466 48.789 31.5826 48.7662 31.7271 48.7708C31.9228 48.7785 32.2955 48.9116 32.3967 48.6919C32.0883 48.4447 31.7194 48.2406 31.3299 48.2166C31.1764 48.2073 31.0203 48.2265 30.9576 48.3828C30.9085 48.5066 30.9098 48.6533 30.9158 48.7911C30.9161 48.7939 30.9161 48.7939 30.9164 48.7967Z" fill="#F9EEEB"/>
<path opacity="0.5" d="M32.9105 50.8119C32.5567 50.7785 32.3785 51.0175 32.1779 51.2589C32.1568 51.3544 32.1442 51.4489 32.1597 51.5433C32.2273 51.9712 32.9763 51.8953 33.23 51.702C33.379 51.5875 33.4175 51.4168 33.4216 51.2412C33.3199 51.0259 33.17 50.8355 32.9105 50.8119Z" fill="#F9EEEB"/>
</svg>
