<svg width="115" height="162" viewBox="0 0 115 162" fill="none" xmlns="http://www.w3.org/2000/svg">
<rect x="0.804199" width="114" height="161.212" rx="20" fill="#F9EEEA"/>
<rect x="11.7437" y="9.21191" width="92.1212" height="142.788" rx="20" stroke="#E9706E" stroke-width="3.5"/>
<path d="M41.4791 63.0921C40.6554 63.8368 39.6454 64.1415 38.596 63.7691C37.8061 63.487 37.1291 62.9341 36.5254 62.3135C36.5197 63.0639 36.373 63.8086 36.2828 64.5703C36.2546 64.8185 36.0289 64.9427 35.8201 64.875C35.4252 64.7452 35.0415 64.5929 34.6748 64.4123C34.6748 64.4349 34.6804 64.4575 34.6804 64.4744C34.8553 66.7876 35.002 69.1009 35.0697 71.4254C35.16 74.3367 35.1487 77.2536 34.94 80.1593C34.7368 82.986 34.3588 85.8408 33.5464 88.5547C32.875 90.7833 31.8538 93.0457 30.1442 94.5691C28.7563 95.8047 27.058 96.3069 25.3315 96.2674C26.6349 97.108 28.0849 97.6779 29.5462 98.118C31.2613 98.637 33.0329 98.9643 34.8045 99.173C38.1334 99.568 41.5637 99.6075 44.8982 99.0658C45.6711 98.9417 46.4441 98.8458 47.2001 98.6314C47.6515 98.5016 48.1311 98.3324 48.4978 98.0051C49.1918 97.3845 49.0959 96.2504 49.0112 95.3646C48.9323 94.5409 48.7799 93.7341 48.6727 92.916C48.5091 91.6465 48.385 90.3771 48.1988 89.1132C47.8264 86.6082 47.3468 84.12 46.8052 81.6544C46.5344 80.4132 46.2015 79.1832 45.9589 77.942C45.7163 76.6894 45.5414 75.4143 45.3608 74.1449C44.9997 71.6567 44.6725 69.1629 44.2437 66.6917C43.1774 65.6649 42.3931 64.2656 41.4791 63.0921Z" fill="#E5A29D"/>
<path d="M62.4621 67.3677C60.6792 66.6906 58.8174 66.3803 56.916 66.4593C54.9638 66.5383 53.0399 66.9558 51.1329 67.3564C49.1525 67.7683 47.1609 67.9939 45.1692 68.3155C43.4428 68.592 41.6768 68.9926 40.1986 69.9405C39.877 70.9504 39.5723 71.966 39.2846 72.9815C38.0433 77.4105 37.1462 82.0314 37.4114 86.6522C37.6258 90.3534 38.5568 94.5906 41.7671 96.8756C44.4019 98.7488 47.8097 98.935 50.9185 98.54C51.7874 98.4328 52.645 98.2692 53.4969 98.0717C54.7099 97.7953 55.9568 97.6373 57.1868 97.4793C59.6919 97.1577 62.2082 96.9546 64.7133 96.6161C66.4849 96.3735 68.2734 96.1647 70.0112 95.7416C71.5458 95.3692 73.261 94.8501 74.3612 93.654C75.3317 92.5933 75.7661 91.211 75.9918 89.8118C76.2569 88.1756 76.2231 86.4886 76.0595 84.8468C75.721 81.4333 74.7223 78.2117 72.725 75.3907C70.2143 71.8531 66.5357 68.9136 62.4621 67.3677Z" fill="#F0DDD6"/>
<path d="M53.745 91.5159C53.4121 91.3072 52.8423 91.2677 52.3909 91.262C51.7251 91.2564 51.0537 91.3297 50.3992 91.4313C49.4345 91.578 48.2778 91.8093 47.4372 92.1478C47.2905 92.5315 47.2679 92.949 47.6459 93.2706C48.0352 93.6035 48.6728 93.7332 49.237 93.7897C50.467 93.9138 51.9113 93.7502 52.9607 93.2706C53.4572 93.0449 53.745 92.7797 53.9086 92.3735C53.982 92.1986 54.0271 92.0068 53.982 91.8206C53.9537 91.6908 53.8691 91.5949 53.745 91.5159Z" fill="#EEAE94"/>
<path d="M69.8079 76.05C69.6161 75.5648 69.4299 75.0683 69.2042 74.6C69.1196 74.4307 69.0293 74.2614 68.9277 74.1035C68.8205 73.9342 68.8939 74.0245 68.7528 73.8891C68.6174 73.7593 68.7246 73.8326 68.5328 73.7367C68.4143 73.6747 68.2902 73.6182 68.1661 73.5731C67.9347 73.4828 67.41 73.3079 67.0659 73.1838C66.9812 73.15 66.8966 73.1217 66.812 73.0879C67.111 74.9046 67.1844 76.7496 67.1166 78.5889C66.8797 84.9306 64.5947 94.8493 57.2656 95.058C58.1232 95.8592 59.1614 96.4403 60.2785 96.7845C65.7287 98.4771 74.1015 95.3289 73.3624 88.344C73.3342 88.0845 73.4357 87.8983 73.5937 87.7911C73.0126 85.8784 72.4935 83.9376 71.9237 82.0193C71.3256 79.9881 70.5922 78.019 69.8079 76.05Z" fill="#E5A29D" stroke="#E5A29D" stroke-miterlimit="10"/>
<path d="M89.7299 88.8288C88.3419 88.7837 87.2982 87.8753 86.6098 86.7977C85.6958 85.3759 85.2219 83.7002 84.8608 82.0809C83.9976 78.2443 83.7832 74.3118 83.3882 70.4132C83.2641 69.1606 83.1795 67.8404 82.7789 66.633C81.9721 64.2013 80.8662 61.826 79.4726 59.6481C78.1073 57.5154 76.4034 55.5746 74.3271 54.0343C72.2 52.4601 69.7175 51.3712 67.094 50.7788C64.2617 50.1356 61.2827 50.0792 58.3939 50.3331C55.6406 50.5757 52.5488 51.1963 50.5684 53.1767C50.4443 53.3065 50.2807 53.2952 50.1678 53.2162C47.6684 54.5533 44.6555 54.8806 42.1222 56.167C40.8246 56.8271 39.5043 57.4139 38.3026 58.232C37.0726 59.067 35.9893 60.0938 35.0753 61.2392C33.8171 62.8133 32.9878 64.7034 32.6154 66.6443C32.2599 68.4723 32.3164 70.4921 33.2134 72.1848C34.1387 73.9225 35.837 74.955 37.7779 75.4007C37.8061 74.6108 37.8738 73.8379 37.5691 73.0706C37.4393 72.749 37.8963 72.5741 38.1277 72.7659C38.8611 73.3696 39.6849 73.9902 40.6384 74.2441C41.654 74.5093 42.4946 74.12 43.1435 73.3696C43.2619 73.2342 43.4876 73.2624 43.6117 73.3696C44.4806 74.1087 45.2141 74.9776 46.0717 75.728C46.2974 75.9254 46.5343 76.1173 46.7826 76.2922C46.8954 76.2978 47.0083 76.3542 47.0647 76.4784C47.5499 76.783 48.0746 77.0144 48.6557 77.1159C49.7164 77.2965 50.6417 76.9862 51.4485 76.3373C53.0791 75.0227 54.0044 73.1044 55.5955 71.7673C55.7196 71.6657 55.9509 71.6262 56.0638 71.7673C56.391 72.1566 56.7295 72.5402 57.085 72.9069C58.3826 74.2554 59.9286 75.4854 61.6494 76.3147C62.1402 76.5517 62.6537 76.7323 63.1615 76.941C63.4605 77.0651 63.6974 77.24 63.8611 77.5109C64.1375 77.9735 64.2842 78.5151 64.4704 79.0116C64.8371 80.0047 65.1418 81.0033 65.4014 82.0301C65.6665 83.0796 65.9091 84.1346 66.2251 85.1671C66.541 86.2053 66.9529 87.187 67.4494 88.1518C68.2337 89.6638 68.9784 91.1928 69.8924 92.6429C70.7557 94.0082 71.8051 95.5147 73.43 96.124C75.3427 96.8405 77.4979 96.4456 79.4331 96.0224C81.137 95.6501 82.8409 95.2833 84.4828 94.7078C85.9159 94.2057 87.332 93.5343 88.4322 92.5131C89.5155 91.5032 90.1192 90.2111 90.2772 88.8006C90.091 88.8288 89.9104 88.8401 89.7299 88.8288Z" fill="#E5A29D" stroke="#E5A29D" stroke-miterlimit="10"/>
<path d="M37.647 72.9017C38.1378 74.1881 39.3114 74.459 40.2931 74.4759C41.083 74.4872 41.8842 74.4307 42.612 74.0527C43.3398 73.6747 43.9886 72.9412 44.2595 71.8975C43.7742 73.6803 42.674 75.0344 41.3707 75.4576C40.4116 75.7679 39.1703 75.4125 38.702 74.0809" fill="#E5A29D"/>
<path d="M36.8285 73.1293C37.1558 73.9418 37.6861 74.6075 38.5042 74.963C39.249 75.2902 40.0558 75.3523 40.857 75.3128C41.8725 75.2677 42.843 75.0138 43.6498 74.3706C44.3607 73.8007 44.8402 72.9939 45.0772 72.1194C45.365 71.07 43.74 70.6186 43.4467 71.668C43.2605 72.3394 43.0009 72.9149 42.5947 73.4904C42.307 73.8966 41.9007 74.269 41.4324 74.5116C41.3704 74.5455 41.3083 74.5737 41.2463 74.6019C41.3535 74.5568 41.2293 74.6075 41.1842 74.6188C41.1278 74.6357 41.0657 74.6583 41.0093 74.6696C41.0093 74.6696 40.7893 74.7147 40.9077 74.6978C41.0262 74.6809 40.8231 74.7034 40.8005 74.7034C40.7272 74.7091 40.6538 74.7034 40.5805 74.7034C40.4169 74.7034 40.6426 74.7204 40.5466 74.7034C40.4846 74.6922 40.4225 74.6809 40.3661 74.664C40.304 74.647 40.2476 74.6245 40.1856 74.6075C40.1066 74.5793 40.2702 74.664 40.1461 74.585C40.0953 74.5511 40.0332 74.5173 39.9768 74.4834C39.9091 74.4383 40.0332 74.5455 39.926 74.4439C39.864 74.3875 39.8075 74.3311 39.7511 74.269C39.6665 74.1675 39.7455 74.269 39.7003 74.2013C39.6157 74.0659 39.548 73.9474 39.5141 73.8515C39.3562 73.4227 38.9387 73.1293 38.4704 73.2591C38.0585 73.3719 37.72 73.8684 37.878 74.3029C38.2108 75.1943 38.792 75.8883 39.6891 76.2268C40.4112 76.5033 41.2124 76.4356 41.9177 76.1422C43.5764 75.4482 44.5976 73.7894 45.0716 72.1194C44.5299 71.9671 43.9827 71.8204 43.441 71.668C43.2774 72.2661 43.0066 72.74 42.5157 73.118C42.6004 73.056 42.4649 73.1519 42.4367 73.1688C42.3747 73.2083 42.3126 73.2478 42.2505 73.2817C42.1208 73.355 41.991 73.4058 41.8443 73.4566C41.5114 73.5581 41.1898 73.6089 40.8457 73.6202C40.5354 73.6371 40.2194 73.6371 39.9035 73.6089C39.8527 73.6032 39.8019 73.5976 39.7511 73.592C39.9373 73.6202 39.6891 73.575 39.6721 73.5694C39.5536 73.5468 39.4464 73.513 39.328 73.4791C39.2772 73.4622 39.1587 73.4171 39.2715 73.4678C39.2095 73.4396 39.1531 73.4114 39.091 73.3776C39.0346 73.3437 38.9782 73.3099 38.9161 73.276C38.713 73.1519 38.9612 73.3268 38.8597 73.2365C38.6622 73.0616 38.5381 72.9149 38.4422 72.678C38.2729 72.2548 37.878 71.9558 37.3984 72.0855C37.0204 72.1984 36.6593 72.7005 36.8285 73.1293Z" fill="#E5A29D"/>
<path d="M54.8276 71.6035C57.3045 72.9971 59.8829 74.2158 62.5347 75.2539C61.3499 74.9944 60.165 74.7292 58.9745 74.4697C60.2271 75.3893 61.8407 75.8068 63.381 75.615" fill="#E5A29D"/>
<path d="M54.3984 72.3383C56.943 73.7657 59.5891 75.007 62.3029 76.0733C62.4553 75.5317 62.602 74.9844 62.7543 74.4428C61.5695 74.1832 60.3846 73.9181 59.1942 73.6585C58.2294 73.4441 57.7667 74.6515 58.5397 75.2044C59.922 76.1974 61.6823 76.6545 63.3749 76.4626C63.8263 76.4118 64.2212 76.1128 64.2212 75.6163C64.2212 75.1988 63.8319 74.7192 63.3749 74.77C61.9362 74.9336 60.5708 74.5838 59.3916 73.7432C59.1716 74.2566 58.9572 74.7756 58.7372 75.2891C59.922 75.5486 61.1068 75.8138 62.2973 76.0733C63.3806 76.3103 63.7473 74.8321 62.7487 74.4428C60.1703 73.4272 57.6652 72.2311 55.2447 70.877C54.3025 70.341 53.4506 71.8023 54.3984 72.3383Z" fill="#E5A29D"/>
<path d="M75.4374 76.581C75.2455 76.0958 75.0706 75.5993 74.845 75.131C74.766 74.9617 74.6757 74.7925 74.5741 74.6345C74.4669 74.4652 74.5403 74.5555 74.4049 74.4201C74.2751 74.2903 74.3767 74.3637 74.1905 74.2678C74.072 74.2057 73.9535 74.1493 73.835 74.0985C73.6094 74.0082 73.0959 73.8333 72.763 73.7092C72.6784 73.6753 72.5994 73.6471 72.5148 73.6133C72.8082 75.43 72.8815 77.275 72.8195 79.1143C72.5938 85.456 70.3821 95.369 63.2393 95.5722C64.0743 96.3733 65.0898 96.9545 66.1731 97.3043C71.4879 99.0025 79.6463 95.8655 78.9185 88.8807C78.8903 88.6211 78.9919 88.435 79.1442 88.3278C78.5744 86.4151 78.0666 84.4742 77.508 82.5559C76.9269 80.5135 76.2047 78.5444 75.4374 76.581Z" fill="#E5A29D" stroke="#E5A29D" stroke-miterlimit="10"/>
<path d="M60.4863 95.9394C69.2823 98.3824 79.0261 97.1976 86.9871 92.7178Z" fill="#E5A29D"/>
<path d="M60.2609 96.7547C69.3221 99.2315 79.2126 98.0241 87.4105 93.4484C88.364 92.9181 87.5121 91.4568 86.5586 91.9871C78.75 96.3428 69.339 97.4825 60.7123 95.1185C59.6572 94.8307 59.2115 96.4669 60.2609 96.7547Z" fill="#E5A29D"/>
<path d="M54.9966 72.3789C55.1433 73.3945 56.0404 74.1336 56.9487 74.6019C58.8219 75.5723 61.0505 75.8544 63.1042 75.3692" fill="#E5A29D"/>
<path d="M54.1789 72.6037C54.4835 74.364 56.289 75.3514 57.818 75.893C59.5783 76.5193 61.5079 76.5982 63.3303 76.1864C64.391 75.9438 63.9453 74.3132 62.8789 74.5558C61.4402 74.8831 59.9394 74.8041 58.5345 74.3527C57.4625 74.0085 56.0295 73.3936 55.8094 72.1523C55.7304 71.7009 55.1775 71.4471 54.7656 71.5599C54.2917 71.6897 54.0999 72.1523 54.1789 72.6037Z" fill="#E5A29D"/>
<path d="M73.5938 86.9113C79.9287 86.9113 85.0641 81.7759 85.0641 75.441C85.0641 69.1061 79.9287 63.9707 73.5938 63.9707C67.259 63.9707 62.1235 69.1061 62.1235 75.441C62.1235 81.7759 67.259 86.9113 73.5938 86.9113Z" fill="#E9706E"/>
<path d="M70.4172 70.5031C68.1096 71.7895 69.6499 72.7656 69.6499 75.5189C69.6499 78.2722 68.104 79.2483 70.4172 80.5347C72.8884 81.9113 72.8884 80.1341 75.3653 78.7574C77.8365 77.3808 79.546 78.464 79.546 75.5189C79.546 72.5737 77.5939 74.2494 75.4556 72.348C73.289 70.4185 72.8884 69.1321 70.4172 70.5031Z" fill="#F9EEEB"/>
<path d="M61.9144 81.319C61.3841 81.3077 60.865 81.1667 60.3911 80.9353C59.889 80.6871 59.4714 80.3316 59.0201 80.0044C58.0553 79.2992 56.8874 78.8534 55.6969 78.7237C55.0932 78.6616 54.4839 78.6729 53.8914 78.7914C53.6037 78.8478 53.3216 78.9211 53.0508 79.0227C52.7687 79.1242 52.4527 79.2314 52.2101 79.412C52.1481 79.4628 52.0803 79.4797 52.0126 79.4797C51.3469 79.7167 50.6811 79.6659 49.9815 79.5587C49.8122 79.5305 49.643 79.5079 49.4737 79.4853C49.3722 79.4741 49.2706 79.4571 49.169 79.4571C49.1634 79.4571 49.1578 79.4571 49.1465 79.4571C49.2029 79.5023 49.2593 79.5587 49.3214 79.5869C49.7389 79.7731 50.2523 79.7618 50.6924 79.8803C51.1438 80.0044 51.3412 80.2696 51.33 80.7435C51.33 80.8507 51.234 81.2174 51.3187 81.2964C51.3977 81.3754 51.5613 81.2626 51.6459 81.2175C52.0409 81.0143 52.385 80.7153 52.78 80.5178C53.3442 80.2414 54.0156 80.106 54.6306 80.0101C55.2568 79.9141 55.8944 79.869 56.5263 79.8916C57.1638 79.9198 57.8014 80.0213 58.3825 80.2865C58.958 80.5517 59.3812 81.0877 59.9623 81.319C60.2613 81.4375 60.5886 81.3754 60.8989 81.3529C61.2035 81.3359 61.4857 81.3811 61.7847 81.4149C62.2812 81.477 62.7438 81.4093 63.1557 81.1159C63.2347 81.0595 63.3137 80.9974 63.3757 80.9297C63.3814 80.9241 63.387 80.9128 63.3983 80.8959C63.3419 80.9184 63.2742 80.9353 63.2178 80.9579C62.7777 81.1554 62.4222 81.3303 61.9144 81.319Z" fill="#5B5B5B"/>
<path d="M56.346 80.6377C56.0301 81.1004 55.8495 81.6815 55.7649 82.2344C55.6972 82.6914 55.6464 83.25 55.9003 83.6675L55.9059 83.6732C55.9229 83.6675 55.9398 83.6562 55.9511 83.6506C56.2163 83.5321 56.5209 83.3403 56.8256 83.3685C57.1528 83.3967 57.3503 83.7352 57.2375 84.0399C57.1303 84.3389 56.7917 84.5082 56.5209 84.638C56.2896 84.7452 55.8552 84.858 55.7141 85.0273C55.37 85.4391 56.2445 85.4053 56.4476 85.3094C56.583 85.2417 56.7974 85.2755 56.8651 85.4335C57.0118 85.7889 56.961 86.1162 56.8256 86.466C56.7015 86.7763 56.4927 87.1035 56.5661 87.4477C56.7128 88.1417 57.5591 88.7623 58.2643 88.6382C58.8003 88.5423 59.1445 88.0232 59.3645 87.5662C59.6184 87.0358 59.7482 86.4603 59.8441 85.8848C60.1149 84.2938 60.3011 82.556 59.1727 81.2302C58.5521 80.5023 57.0851 79.5601 56.346 80.6377Z" fill="#5B5B5B" stroke="#5B5B5B" stroke-miterlimit="10"/>
<path opacity="0.5" d="M58.4561 86.3639C58.0499 85.9859 57.4575 85.9633 56.9384 86.0762C56.9158 86.2116 56.8763 86.347 56.8256 86.4824C56.7014 86.7927 56.4927 87.1199 56.566 87.4641C56.7127 88.1581 57.559 88.7787 58.2643 88.6546C58.7495 88.57 59.0767 88.1355 59.2968 87.7124C58.9187 87.3231 58.851 86.7306 58.4561 86.3639Z" fill="#F9EEEB"/>
<path opacity="0.5" d="M58.45 81.5787C59.0876 81.8156 59.4713 82.3234 59.9283 82.7748C59.8041 82.2275 59.5728 81.7141 59.1722 81.2458C58.5516 80.518 57.0847 79.5757 56.3456 80.6534C56.0747 81.0539 55.8998 81.5335 55.8096 82.0131C56.6559 81.7028 57.536 81.2345 58.45 81.5787Z" fill="#F9EEEB"/>
<path d="M43.8714 83.0685C43.4031 82.5381 42.664 82.1883 42.0321 81.9006C41.2422 81.5339 40.4015 81.263 39.5383 81.1615C38.7653 81.0712 38.077 81.2179 37.383 81.4774C37.383 81.4774 37.3831 81.4774 37.3774 81.4774C36.6722 81.9739 35.7299 81.9175 34.9118 82.036C34.6523 82.0755 34.3928 82.1094 34.1332 82.1432C34.0373 82.1545 33.8398 82.2053 33.6875 82.2222C33.7214 82.256 33.7496 82.2899 33.7834 82.3068C33.9245 82.3915 34.0881 82.4366 34.2461 82.4648C35.0642 82.6228 35.9612 82.4987 36.7793 82.3802C37.6426 82.2504 38.472 81.8442 39.3465 81.8103C40.1702 81.7765 40.7908 82.1827 41.5187 82.4987C42.3311 82.8597 43.0872 83.2998 43.8658 83.7173C43.894 83.7343 44.0745 83.8133 44.2099 83.8866C44.2099 83.8471 44.2099 83.8076 44.2043 83.785C44.1648 83.5199 44.052 83.2716 43.8714 83.0685Z" fill="#5B5B5B"/>
<path d="M44.0576 84.2758C43.4313 83.5424 42.585 82.8145 41.6033 82.6453C41.2986 82.5945 40.9827 82.6001 40.8247 82.8992C40.6611 83.2095 40.6667 83.6157 40.6385 83.9599C40.599 84.4451 40.4862 85.7033 41.3155 85.3817C41.8572 85.1729 42.4439 84.4959 43.0702 84.8231C43.1943 84.8852 43.2564 84.9867 43.2733 85.0996C43.3975 85.2519 43.4257 85.5058 43.2338 85.6694C42.9066 85.9572 42.4947 86.1321 42.128 86.3634C41.8685 86.527 41.3042 86.8599 41.4114 87.2436C41.4961 87.5651 42.0264 87.1364 42.1957 87.0574C42.5229 86.8994 42.963 86.8825 43.1266 87.2774C43.2677 87.6216 43.0533 88.0165 42.9122 88.3212C42.7486 88.671 42.5455 89.0716 42.5681 89.4665C42.6132 90.3354 44.1253 90.341 44.6726 90.0082C45.0901 89.7543 45.1578 89.269 45.1803 88.8233C45.2029 88.2817 45.2368 87.7231 45.1973 87.1815C45.1578 86.6286 45.0844 86.0531 44.8757 85.5397C44.6838 85.0714 44.3848 84.6595 44.0576 84.2758Z" fill="#5B5B5B" stroke="#5B5B5B" stroke-miterlimit="10"/>
<path opacity="0.5" d="M40.6328 83.7173C40.7851 83.943 41.1745 83.8583 41.4058 83.8358C41.6935 83.8132 41.97 83.7963 42.2577 83.8358C42.647 83.8922 43.3636 84.2363 43.6118 83.8188C43.0476 83.2603 42.3536 82.775 41.5807 82.6453C41.276 82.5945 40.9601 82.6001 40.8021 82.8992C40.678 83.1361 40.6497 83.4295 40.6328 83.706C40.6328 83.7116 40.6328 83.7116 40.6328 83.7173Z" fill="#F9EEEB"/>
<path opacity="0.5" d="M44.1929 88.1635C43.4933 88.0225 43.0871 88.4626 42.6357 88.9026C42.5737 89.0888 42.5285 89.275 42.5398 89.4669C42.585 90.3357 44.097 90.3414 44.6443 90.0085C44.9659 89.811 45.0787 89.4781 45.1239 89.1283C44.9659 88.677 44.7064 88.2651 44.1929 88.1635Z" fill="#F9EEEB"/>
</svg>
