<svg width="44" height="22" viewBox="0 0 44 22" fill="none" xmlns="http://www.w3.org/2000/svg">
<path d="M15.5325 11.1826H5.50047V9.84056H15.5325V11.1826ZM5.50047 18.0906V16.5946H15.5325V18.0906H5.50047ZM15.5325 14.5926H5.50047V13.1626H15.5325V14.5926ZM20.5925 6.18856V3.76856H15.6645C16.2365 3.08656 16.8525 2.27256 17.4245 1.43656L14.4105 0.776562C14.0365 1.67856 13.3545 2.86656 12.7165 3.76856H7.67847L8.64647 3.26256C8.20647 2.53656 7.32647 1.45856 6.51247 0.666562L4.18047 1.72256C4.70846 2.33856 5.32446 3.08656 5.76447 3.76856H0.726465V6.18856H9.08647C8.97647 6.65056 8.86647 7.11256 8.71247 7.57456H2.90446V21.4126H5.50047V20.3786H15.5325V21.4126H18.2605V7.57456H11.6165C11.8145 7.13456 12.0345 6.67256 12.2325 6.18856H20.5925ZM29.0845 13.7346H38.4345V14.9446H29.0845V13.7346ZM29.0845 10.6326H38.4345V11.8426H29.0845V10.6326ZM29.0845 7.55256H38.4345V8.76256H29.0845V7.55256ZM41.3165 16.9466V5.55056H34.7825C34.9365 5.13256 35.0905 4.69256 35.2225 4.23056H42.8565V1.85456H24.4645V4.23056H32.1865C32.1205 4.67056 32.0325 5.13256 31.9445 5.55056H26.3565V16.9466H29.9645C28.3585 17.8266 25.7405 18.8166 23.6505 19.3446C24.2225 19.9166 25.0145 20.7966 25.4545 21.3686C27.7425 20.7086 30.7125 19.5646 32.6705 18.4646L30.7565 16.9466H36.6305L34.8045 18.5306C37.2025 19.3886 39.7325 20.5546 41.1845 21.3906L43.7805 19.6526C42.1745 18.8826 39.4685 17.7826 37.0925 16.9466H41.3165Z" fill="#FEFFF9"/>
</svg>
