<svg width="45" height="22" viewBox="0 0 45 22" fill="none" xmlns="http://www.w3.org/2000/svg">
<path d="M3.63217 6.41046C4.24817 5.66246 4.86417 4.87046 5.39217 4.01246C6.20617 4.80446 7.02017 5.66246 7.70217 6.41046H3.63217ZM13.0922 5.92646L13.4002 4.69446H16.9862L16.7442 5.92646H13.0922ZM21.6062 18.2685C20.7922 17.5205 19.5162 16.5525 18.1962 15.6065C19.0762 14.7705 20.0662 13.6485 21.0122 12.5925L18.9002 11.4045C18.3502 12.3285 17.4482 13.5825 16.6782 14.4625L16.3262 14.2425V11.1845H21.3862V8.89646H18.5702C19.0102 6.98246 19.4722 4.76046 19.7362 2.86846L17.9542 2.62646L17.5362 2.71446H13.9062C14.0382 2.16446 14.1702 1.61446 14.2802 1.13046L11.8382 0.88846C11.3982 3.15446 10.6282 6.08046 10.0562 7.90646H16.3262L16.1062 8.89646H9.13217V11.1845H13.9062V14.4405C11.9922 15.8265 10.0562 17.1685 8.75817 18.0045L8.71417 17.3445L6.22817 17.7405V12.4165H8.78017V10.1945H6.22817V8.58846H7.76817V6.49846C8.05417 6.80646 8.29617 7.11446 8.49417 7.35646L9.96817 5.61846C9.19817 4.76046 7.68017 3.33046 6.44817 2.18646C6.55817 1.96646 6.66817 1.74646 6.77817 1.52646L4.82017 0.800461C3.87417 2.78046 2.29017 4.67246 0.750168 5.90446C1.03617 6.52046 1.47617 7.92846 1.54217 8.47846C1.85017 8.21446 2.18017 7.92846 2.48817 7.62046V8.58846H4.11617V10.1945H1.19017V12.4165H4.11617V18.0485C2.90617 18.2025 1.76217 18.3565 0.860168 18.4885L1.38817 20.8425C3.50017 20.4245 6.25017 19.9185 8.84617 19.3905L8.75817 18.1585L10.1002 20.0065C11.2662 19.1045 12.5862 18.0485 13.9062 16.9485V18.9505C13.9062 19.1705 13.8402 19.2365 13.5762 19.2365C13.3562 19.2365 12.5862 19.2365 11.8602 19.2145C12.1902 19.8525 12.4982 20.7985 12.5642 21.4365C13.8182 21.4585 14.7642 21.3925 15.4242 21.0405C16.1502 20.6665 16.3262 20.0725 16.3262 18.9725V16.8385C17.7562 17.9825 19.2302 19.1485 20.0442 19.9845L21.6062 18.2685ZM1.16817 13.4505C1.47617 14.6385 1.78417 16.2225 1.89417 17.2565L3.67617 16.7505C3.54417 15.7605 3.19217 14.1985 2.86217 13.0105L1.16817 13.4505ZM8.09817 16.9485C8.40617 16.0465 8.78017 14.5505 9.13217 13.2965L7.46017 12.8785C7.32817 13.9785 7.02017 15.5625 6.75617 16.5965L8.09817 16.9485ZM9.28617 12.4825C10.0782 13.3625 11.1122 14.5725 11.5962 15.3425L13.4662 14.0665C12.9602 13.2965 11.9042 12.1745 11.0682 11.3605L9.28617 12.4825ZM38.9422 13.5385V14.9905H29.8122V13.5385H38.9422ZM29.8122 18.5545V16.9705H38.9422V18.5545H29.8122ZM27.1942 21.4805H29.8122V20.7105H38.9422V21.4585H41.6922V11.3605H27.1942V21.4805ZM37.6662 4.98046C37.4242 5.83846 37.0282 6.87246 36.6762 7.68646H32.1442C31.9902 6.89446 31.5502 5.81646 31.0222 4.98046H37.6662ZM39.5362 7.68646C39.8882 7.00446 40.2622 6.23446 40.6362 5.42046L38.6122 4.98046H43.1662V2.67046H36.0822C35.8622 2.01046 35.5322 1.26246 35.1582 0.64646L32.4302 1.08646C32.6722 1.54846 32.9362 2.12046 33.1122 2.67046H25.6982V4.98046H30.5382L28.4042 5.39846C28.7562 6.08046 29.0862 6.93846 29.2842 7.68646H24.4662V10.0185H44.2002V7.68646H39.5362Z" fill="#E9706E"/>
</svg>
