<svg width="44" height="21" viewBox="0 0 44 21" fill="none" xmlns="http://www.w3.org/2000/svg">
<path d="M3.96047 9.80856C5.34647 9.50056 6.97447 9.12656 8.62447 8.75256L8.53647 7.25656C6.64446 7.54256 4.79647 7.80656 3.45447 7.96056V4.94656H4.64247L4.02646 6.17856C5.28046 6.44256 6.93047 6.90456 7.81047 7.25656L8.51447 5.84856C7.67847 5.54056 6.27047 5.16656 5.08247 4.94656H9.28447V9.52256H11.8365V4.94656H15.5985C14.6745 5.29856 13.4425 5.69456 12.5845 5.89256L13.3985 7.12456C14.5425 6.90456 16.1485 6.55256 17.3145 6.06856L16.5225 4.94656H17.7105V8.09256C16.5005 7.69656 14.3225 7.23456 12.7605 7.05856L12.2545 8.53256C13.9045 8.79656 16.1705 9.34656 17.3365 9.76456L17.7985 8.18056H20.3285V3.23056H11.8365V2.35056H19.2065V0.634561H1.95846V2.35056H9.28447V3.23056H0.968465V8.18056H3.36646L3.96047 9.80856ZM5.50047 15.3526V14.3626H9.15247V15.3526H5.50047ZM9.15247 11.8326V12.8226H5.50047V11.8326H9.15247ZM15.6425 12.8226H11.6605V11.8326H15.6425V12.8226ZM11.6605 15.3526V14.3626H15.6425V15.3526H11.6605ZM13.2445 18.1026C11.9245 18.1026 11.6605 17.9706 11.6605 17.1786V17.1126H18.2385V10.0726H2.99247V18.0586H5.50047V17.1126H9.15247V17.1786C9.15247 19.4666 10.0105 20.0826 13.0025 20.0826H17.6225C20.0205 20.0826 20.7465 19.3786 21.0545 16.7386C20.3725 16.6066 19.3825 16.2766 18.8765 15.9246C18.7225 17.7726 18.5245 18.1026 17.4025 18.1026H13.2445ZM40.6125 0.216562C39.4685 1.95456 37.2905 3.73656 35.4425 4.72656C36.1025 5.21056 36.8725 6.00256 37.2905 6.55256C39.3805 5.25456 41.5805 3.34056 43.0765 1.22856L40.6125 0.216562ZM41.1625 6.15656C39.9305 8.02656 37.5105 9.87456 35.5085 10.9746C36.1685 11.4586 36.8945 12.2066 37.3125 12.8006C39.5565 11.4366 41.9325 9.39056 43.5605 7.16856L41.1625 6.15656ZM27.2365 4.50656H32.7145V5.34256H27.2365V4.50656ZM27.2365 2.19656H32.7145V3.01056H27.2365V2.19656ZM36.0805 7.93856H31.5045C31.3725 7.58656 31.1745 7.23456 30.9985 6.92656H35.3105V0.612562H24.7505V6.92656H30.1185L28.4025 7.27856C28.5125 7.47656 28.6005 7.69656 28.7105 7.93856H23.7605V9.91856H36.0805V7.93856ZM25.7405 15.2866C25.2785 16.3646 24.5305 17.5526 23.7385 18.3666C24.2445 18.6746 25.1465 19.3566 25.5425 19.7306C26.3565 18.7846 27.3245 17.2666 27.9185 15.9466L25.7405 15.2866ZM27.5225 12.3606H32.4505V13.5046H27.5225V12.3606ZM35.0025 15.1986V10.6666H25.1025V15.1986H28.6445V18.0146C28.6445 18.2126 28.5785 18.2786 28.3585 18.2786C28.1385 18.2786 27.4565 18.2786 26.7965 18.2566C27.1045 18.8506 27.4125 19.6866 27.5225 20.3466C28.6885 20.3466 29.6125 20.3246 30.2945 20.0166C31.0425 19.6866 31.1965 19.1586 31.1965 18.0806V15.1986H35.0025ZM41.5585 12.3166C40.2165 14.8026 37.6645 16.9146 35.0685 18.1466C34.6505 17.2886 33.9685 16.1226 33.4185 15.2646L31.5705 16.0346C32.2745 17.1786 33.0445 18.6966 33.3745 19.6206L35.3105 18.6966C35.2445 18.5426 35.1785 18.3886 35.1125 18.2126C35.7505 18.7626 36.4545 19.5766 36.8505 20.2146C39.7325 18.6086 42.3285 16.1666 43.9785 13.2186L41.5585 12.3166Z" fill="#FEFFF9"/>
</svg>
