<svg width="197" height="16" viewBox="0 0 197 16" fill="none" xmlns="http://www.w3.org/2000/svg">
<path d="M5.08608 12.2692C6.43008 12.2692 7.53608 11.7372 8.39008 10.7432L7.29808 9.45524C6.73808 10.0572 6.03808 10.4772 5.15608 10.4772C3.51808 10.4772 2.45408 9.11924 2.45408 6.86524C2.45408 4.63924 3.63008 3.29524 5.19808 3.29524C5.98208 3.29524 6.58408 3.65924 7.10208 4.16324L8.19408 2.84724C7.52208 2.14724 6.47208 1.51724 5.15608 1.51724C2.53808 1.51724 0.340084 3.51924 0.340084 6.93524C0.340084 10.3932 2.46808 12.2692 5.08608 12.2692ZM13.8673 12.2692C15.8273 12.2692 17.6333 10.7572 17.6333 8.16724C17.6333 5.54924 15.8273 4.03724 13.8673 4.03724C11.9073 4.03724 10.1013 5.54924 10.1013 8.16724C10.1013 10.7572 11.9073 12.2692 13.8673 12.2692ZM13.8673 10.5892C12.8033 10.5892 12.2013 9.63724 12.2013 8.16724C12.2013 6.68324 12.8033 5.71724 13.8673 5.71724C14.9313 5.71724 15.5333 6.68324 15.5333 8.16724C15.5333 9.63724 14.9313 10.5892 13.8673 10.5892ZM20.0549 15.0832H22.0989V12.7032L22.0429 11.4152C22.6449 11.9612 23.3029 12.2692 23.9889 12.2692C25.7109 12.2692 27.3209 10.7152 27.3209 8.02724C27.3209 5.61924 26.1729 4.03724 24.2409 4.03724C23.4009 4.03724 22.5889 4.48524 21.9309 5.04524H21.8749L21.7349 4.23324H20.0549V15.0832ZM23.5269 10.5752C23.1069 10.5752 22.6029 10.4212 22.0989 9.98724V6.54324C22.6449 5.99724 23.1209 5.73124 23.6529 5.73124C24.7309 5.73124 25.2069 6.55724 25.2069 8.05524C25.2069 9.76324 24.4789 10.5752 23.5269 10.5752ZM30.3413 15.2232C32.0913 15.2232 32.9313 14.1592 33.6173 12.3112L36.4033 4.23324H34.4293L33.3513 7.87324C33.1693 8.60124 32.9733 9.35724 32.7913 10.0852H32.7213C32.4973 9.32924 32.3013 8.57324 32.0633 7.87324L30.8173 4.23324H28.7453L31.7973 11.9332L31.6573 12.3952C31.4333 13.0812 30.9853 13.5852 30.1873 13.5852C30.0053 13.5852 29.7813 13.5292 29.6413 13.4872L29.2633 15.0692C29.5713 15.1672 29.8793 15.2232 30.3413 15.2232ZM38.3944 12.0732H40.4384V7.39724C40.8864 6.26324 41.6284 5.85724 42.2444 5.85724C42.5664 5.85724 42.7904 5.89924 43.0564 5.98324L43.4204 4.20524C43.1824 4.10724 42.9304 4.03724 42.4964 4.03724C41.6844 4.03724 40.8444 4.59724 40.2704 5.61924H40.2144L40.0744 4.23324H38.3944V12.0732ZM45.192 12.0732H47.236V4.23324H45.192V12.0732ZM46.228 2.97324C46.928 2.97324 47.446 2.49724 47.446 1.85324C47.446 1.18124 46.928 0.733241 46.228 0.733241C45.514 0.733241 44.996 1.18124 44.996 1.85324C44.996 2.49724 45.514 2.97324 46.228 2.97324ZM52.902 15.4752C55.52 15.4752 57.158 14.2712 57.158 12.6892C57.158 11.3172 56.136 10.7292 54.246 10.7292H52.916C51.992 10.7292 51.684 10.5052 51.684 10.0852C51.684 9.77724 51.796 9.59524 52.02 9.41324C52.356 9.52524 52.72 9.59524 53.028 9.59524C54.708 9.59524 56.052 8.69924 56.052 6.93524C56.052 6.44524 55.898 6.01124 55.688 5.74524H57.032V4.23324H54.204C53.882 4.12124 53.462 4.03724 53.028 4.03724C51.362 4.03724 49.864 5.03124 49.864 6.87924C49.864 7.78924 50.368 8.53124 50.9 8.92324V8.97924C50.438 9.31524 50.032 9.86124 50.032 10.4492C50.032 11.0932 50.34 11.4992 50.746 11.7652V11.8352C50.032 12.2412 49.626 12.8012 49.626 13.4592C49.626 14.8452 51.054 15.4752 52.902 15.4752ZM53.028 8.32124C52.342 8.32124 51.796 7.80324 51.796 6.87924C51.796 5.95524 52.328 5.43724 53.028 5.43724C53.728 5.43724 54.246 5.95524 54.246 6.87924C54.246 7.80324 53.714 8.32124 53.028 8.32124ZM53.21 14.1732C52.062 14.1732 51.334 13.7952 51.334 13.1372C51.334 12.8152 51.502 12.5072 51.852 12.2272C52.132 12.2972 52.468 12.3392 52.944 12.3392H53.896C54.736 12.3392 55.198 12.4792 55.198 13.0392C55.198 13.6552 54.386 14.1732 53.21 14.1732ZM59.1975 12.0732H61.2415V6.68324C61.8295 6.10924 62.2355 5.80124 62.8795 5.80124C63.6495 5.80124 63.9855 6.23524 63.9855 7.43924V12.0732H66.0435V7.18724C66.0435 5.21324 65.3155 4.03724 63.6215 4.03724C62.5575 4.03724 61.7875 4.59724 61.1575 5.18524L61.2415 3.71524V0.901242H59.1975V12.0732ZM71.7226 12.2692C72.4086 12.2692 72.9546 12.1152 73.3746 11.9752L73.0386 10.4772C72.8286 10.5612 72.5206 10.6452 72.2686 10.6452C71.5686 10.6452 71.2046 10.2252 71.2046 9.32924V5.85724H73.1366V4.23324H71.2046V2.13324H69.4826L69.2446 4.23324L68.0406 4.33124V5.85724H69.1466V9.32924C69.1466 11.0932 69.8606 12.2692 71.7226 12.2692ZM84.1334 12.2132C86.9334 12.2132 89.3414 10.1832 89.3414 6.92124C89.3414 3.65924 86.9334 1.67124 84.1334 1.67124C81.3474 1.67124 78.9394 3.64524 78.9394 6.92124C78.9394 10.1832 81.3474 12.2132 84.1334 12.2132ZM84.1334 11.3452C81.7814 11.3452 79.9194 9.56724 79.9194 6.92124C79.9194 4.27524 81.7814 2.55324 84.1334 2.55324C86.4994 2.55324 88.3614 4.27524 88.3614 6.92124C88.3614 9.56724 86.4994 11.3452 84.1334 11.3452ZM84.3154 10.0572C85.1694 10.0572 85.8274 9.70724 86.4154 9.21724L85.7434 8.25124C85.3234 8.57324 84.9454 8.82524 84.3714 8.82524C83.4194 8.82524 82.8034 8.09724 82.8034 6.93524C82.8034 5.91324 83.4054 5.12924 84.4414 5.12924C84.9174 5.12924 85.2394 5.33924 85.6034 5.70324L86.4014 4.82124C85.8974 4.31724 85.2814 3.88324 84.3154 3.88324C82.7474 3.88324 81.2914 5.07324 81.2914 6.93524C81.2914 8.86724 82.5794 10.0572 84.3154 10.0572ZM95.2521 12.0732H102.196V10.3372H99.9421C99.4661 10.3372 98.7801 10.3932 98.2621 10.4492C100.152 8.60124 101.706 6.58524 101.706 4.70924C101.706 2.77724 100.404 1.51724 98.4441 1.51724C97.0301 1.51724 96.1061 2.07724 95.1541 3.08524L96.2741 4.20524C96.7921 3.63124 97.4221 3.14124 98.1781 3.14124C99.1581 3.14124 99.7321 3.77124 99.7321 4.82124C99.7321 6.41724 98.0661 8.36324 95.2521 10.8832V12.0732ZM107.724 12.2692C109.824 12.2692 111.224 10.4212 111.224 6.85124C111.224 3.28124 109.824 1.51724 107.724 1.51724C105.61 1.51724 104.21 3.26724 104.21 6.85124C104.21 10.4212 105.61 12.2692 107.724 12.2692ZM107.724 10.6592C106.828 10.6592 106.156 9.76324 106.156 6.85124C106.156 3.95324 106.828 3.11324 107.724 3.11324C108.606 3.11324 109.278 3.95324 109.278 6.85124C109.278 9.76324 108.606 10.6592 107.724 10.6592ZM113.14 12.0732H120.084V10.3372H117.83C117.354 10.3372 116.668 10.3932 116.15 10.4492C118.04 8.60124 119.594 6.58524 119.594 4.70924C119.594 2.77724 118.292 1.51724 116.332 1.51724C114.918 1.51724 113.994 2.07724 113.042 3.08524L114.162 4.20524C114.68 3.63124 115.31 3.14124 116.066 3.14124C117.046 3.14124 117.62 3.77124 117.62 4.82124C117.62 6.41724 115.954 8.36324 113.14 10.8832V12.0732ZM122.085 12.0732H129.029V10.3372H126.775C126.299 10.3372 125.613 10.3932 125.095 10.4492C126.985 8.60124 128.539 6.58524 128.539 4.70924C128.539 2.77724 127.237 1.51724 125.277 1.51724C123.863 1.51724 122.939 2.07724 121.987 3.08524L123.107 4.20524C123.625 3.63124 124.255 3.14124 125.011 3.14124C125.991 3.14124 126.565 3.77124 126.565 4.82124C126.565 6.41724 124.899 8.36324 122.085 10.8832V12.0732ZM137.491 2.04924H135.517V2.87524H140.921V2.04924H138.989V1.64324H141.285V0.803241H138.989V0.201241H137.491V0.803241H135.111V1.64324H137.491V2.04924ZM138.667 11.1072V10.6312H143.931V11.1072H138.667ZM143.931 7.70524V8.18124H138.667V7.70524H143.931ZM142.041 6.55724C142.853 6.40324 143.581 6.19324 144.253 5.91324C144.911 6.20724 145.667 6.41724 146.521 6.55724H142.041ZM145.065 3.95324C144.813 4.21924 144.519 4.44324 144.169 4.62524C143.805 4.44324 143.497 4.21924 143.273 3.95324H145.065ZM144.715 1.61524V1.68524C144.715 2.59524 144.883 3.05724 145.905 3.05724H145.947L145.863 3.07124H142.615C143.175 2.65124 143.399 2.14724 143.469 1.61524H144.715ZM138.667 9.16124H143.931V9.65124H138.667V9.16124ZM137.673 4.03724V4.75124H136.889C136.903 4.52724 136.917 4.31724 136.917 4.12124V4.03724H137.673ZM139.661 4.75124H138.835V4.03724H139.661V4.75124ZM145.583 7.70524H147.151V6.55724H146.829C146.997 6.22124 147.319 5.75924 147.585 5.49324C146.843 5.43724 146.157 5.32524 145.555 5.15724C146.171 4.69524 146.661 4.09324 146.969 3.33724L146.199 3.05724H146.773C147.039 3.05724 147.375 3.04324 147.543 2.97324C147.501 2.63724 147.487 2.31524 147.459 1.97924C147.291 2.03524 146.913 2.06324 146.745 2.06324H146.269C146.059 2.06324 146.045 1.93724 146.045 1.68524V0.537241H142.223V1.22324C142.223 1.69924 142.069 2.13324 141.005 2.49724C141.159 2.59524 141.397 2.84724 141.593 3.07124V3.95324H142.391L141.943 4.07924C142.209 4.48524 142.545 4.83524 142.937 5.14324C142.349 5.31124 141.691 5.43724 141.019 5.50724C141.243 5.77324 141.495 6.22124 141.621 6.55724H136.231C136.469 6.24924 136.623 5.91324 136.735 5.54924H140.935V3.23924H135.657V4.09324C135.657 4.70924 135.559 5.50724 134.845 6.15124C135.013 6.23524 135.307 6.40324 135.559 6.55724H135.489V7.70524H137.057V11.1072H135.069V12.2552H143.931V13.3052H145.583V12.2552H147.487V11.1072H145.583V7.70524ZM160.381 0.453242C159.653 1.55924 158.267 2.69324 157.091 3.32324C157.511 3.63124 158.001 4.13524 158.267 4.48524C159.597 3.65924 160.997 2.44124 161.949 1.09724L160.381 0.453242ZM160.731 4.23324C159.947 5.42324 158.407 6.59924 157.133 7.29924C157.553 7.60724 158.015 8.08324 158.281 8.46124C159.709 7.59324 161.221 6.29124 162.257 4.87724L160.731 4.23324ZM151.869 3.18324H155.355V3.71524H151.869V3.18324ZM151.869 1.71324H155.355V2.23124H151.869V1.71324ZM157.497 5.36724H154.585C154.501 5.14324 154.375 4.91924 154.263 4.72324H157.007V0.705242H150.287V4.72324H153.703L152.611 4.94724C152.681 5.07324 152.737 5.21324 152.807 5.36724H149.657V6.62724H157.497V5.36724ZM150.917 10.0432C150.623 10.7292 150.147 11.4852 149.643 12.0032C149.965 12.1992 150.539 12.6332 150.791 12.8712C151.309 12.2692 151.925 11.3032 152.303 10.4632L150.917 10.0432ZM152.051 8.18124H155.187V8.90924H152.051V8.18124ZM156.811 9.98724V7.10324H150.511V9.98724H152.765V11.7792C152.765 11.9052 152.723 11.9472 152.583 11.9472C152.443 11.9472 152.009 11.9472 151.589 11.9332C151.785 12.3112 151.981 12.8432 152.051 13.2632C152.793 13.2632 153.381 13.2492 153.815 13.0532C154.291 12.8432 154.389 12.5072 154.389 11.8212V9.98724H156.811ZM160.983 8.15324C160.129 9.73524 158.505 11.0792 156.853 11.8632C156.587 11.3172 156.153 10.5752 155.803 10.0292L154.627 10.5192C155.075 11.2472 155.565 12.2132 155.775 12.8012L157.007 12.2132C156.965 12.1152 156.923 12.0172 156.881 11.9052C157.287 12.2552 157.735 12.7732 157.987 13.1792C159.821 12.1572 161.473 10.6032 162.523 8.72724L160.983 8.15324ZM166.751 2.27324C166.191 3.88324 165.253 5.67524 164.329 6.79524C164.735 6.97724 165.449 7.36924 165.785 7.60724C166.653 6.38924 167.647 4.45724 168.333 2.67924L166.751 2.27324ZM173.219 2.90324C174.115 4.34524 175.221 6.31924 175.739 7.55124L177.167 6.71124C176.607 5.47924 175.515 3.64524 174.563 2.20324L173.219 2.90324ZM174.003 7.42524C172.267 10.2672 168.753 11.2752 164.077 11.6672C164.385 12.1012 164.707 12.7732 164.847 13.2632C169.831 12.6892 173.541 11.4152 175.529 8.09724L174.003 7.42524ZM169.705 0.229242V8.93724H171.357V0.229242H169.705ZM187.611 5.10124C187.135 6.59924 186.505 7.77524 185.609 8.68524C184.797 8.32124 183.943 7.95724 183.103 7.59324C183.439 6.85124 183.803 5.99724 184.139 5.10124H187.611ZM191.671 5.10124V3.30924H189.949C190.005 3.00124 190.061 2.67924 190.117 2.35724L188.325 1.93724C188.255 2.42724 188.171 2.87524 188.087 3.30924H184.797C185.147 2.32924 185.441 1.30724 185.665 0.369242L183.873 0.117242C183.621 1.13924 183.257 2.23124 182.865 3.30924H179.211V5.10124H182.165C181.633 6.33324 181.087 7.46724 180.569 8.39124C181.745 8.85324 182.935 9.38524 184.083 9.93124C182.781 10.7152 181.101 11.2472 178.973 11.5972C179.365 12.0312 179.771 12.7312 179.967 13.2212C182.515 12.7172 184.461 11.9752 185.959 10.8552C187.667 11.7232 189.179 12.5912 190.285 13.3052L191.587 11.7092C190.495 11.0792 189.011 10.2952 187.359 9.51124C188.311 8.36324 189.011 6.93524 189.529 5.10124H191.671ZM195.367 12.2692C196.109 12.2692 196.655 11.6812 196.655 10.9252C196.655 10.1692 196.109 9.58124 195.367 9.58124C194.639 9.58124 194.093 10.1692 194.093 10.9252C194.093 11.6812 194.639 12.2692 195.367 12.2692Z" fill="#FFFFF9"/>
</svg>
