<svg width="44" height="22" viewBox="0 0 44 22" fill="none" xmlns="http://www.w3.org/2000/svg">
<path d="M3.03646 6.36456C3.65247 5.61656 4.26847 4.82456 4.79647 3.96656C5.61047 4.75856 6.42447 5.61656 7.10646 6.36456H3.03646ZM12.4965 5.88056L12.8045 4.64856H16.3905L16.1485 5.88056H12.4965ZM21.0105 18.2226C20.1965 17.4746 18.9205 16.5066 17.6005 15.5606C18.4805 14.7246 19.4705 13.6026 20.4165 12.5466L18.3045 11.3586C17.7545 12.2826 16.8525 13.5366 16.0825 14.4166L15.7305 14.1966V11.1386H20.7905V8.85056H17.9745C18.4145 6.93656 18.8765 4.71456 19.1405 2.82256L17.3585 2.58056L16.9405 2.66856H13.3105C13.4425 2.11856 13.5745 1.56856 13.6845 1.08456L11.2425 0.842561C10.8025 3.10856 10.0325 6.03456 9.46047 7.86056H15.7305L15.5105 8.85056H8.53647V11.1386H13.3105V14.3946C11.3965 15.7806 9.46047 17.1226 8.16247 17.9586L8.11847 17.2986L5.63246 17.6946V12.3706H8.18447V10.1486H5.63246V8.54256H7.17247V6.45256C7.45846 6.76056 7.70047 7.06856 7.89847 7.31056L9.37247 5.57256C8.60247 4.71456 7.08447 3.28456 5.85247 2.14056C5.96247 1.92056 6.07247 1.70056 6.18247 1.48056L4.22446 0.754562C3.27847 2.73456 1.69446 4.62656 0.154465 5.85856C0.440465 6.47456 0.880465 7.88256 0.946465 8.43256C1.25446 8.16856 1.58446 7.88256 1.89247 7.57456V8.54256H3.52046V10.1486H0.594465V12.3706H3.52046V18.0026C2.31047 18.1566 1.16646 18.3106 0.264465 18.4426L0.792465 20.7966C2.90446 20.3786 5.65447 19.8726 8.25047 19.3446L8.16247 18.1126L9.50447 19.9606C10.6705 19.0586 11.9905 18.0026 13.3105 16.9026V18.9046C13.3105 19.1246 13.2445 19.1906 12.9805 19.1906C12.7605 19.1906 11.9905 19.1906 11.2645 19.1686C11.5945 19.8066 11.9025 20.7526 11.9685 21.3906C13.2225 21.4126 14.1685 21.3466 14.8285 20.9946C15.5545 20.6206 15.7305 20.0266 15.7305 18.9266V16.7926C17.1605 17.9366 18.6345 19.1026 19.4485 19.9386L21.0105 18.2226ZM0.572465 13.4046C0.880465 14.5926 1.18846 16.1766 1.29846 17.2106L3.08046 16.7046C2.94847 15.7146 2.59646 14.1526 2.26646 12.9646L0.572465 13.4046ZM7.50247 16.9026C7.81047 16.0006 8.18447 14.5046 8.53647 13.2506L6.86447 12.8326C6.73247 13.9326 6.42447 15.5166 6.16047 16.5506L7.50247 16.9026ZM8.69047 12.4366C9.48247 13.3166 10.5165 14.5266 11.0005 15.2966L12.8705 14.0206C12.3645 13.2506 11.3085 12.1286 10.4725 11.3146L8.69047 12.4366ZM38.3465 13.4926V14.9446H29.2165V13.4926H38.3465ZM29.2165 18.5086V16.9246H38.3465V18.5086H29.2165ZM26.5985 21.4346H29.2165V20.6646H38.3465V21.4126H41.0965V11.3146H26.5985V21.4346ZM37.0705 4.93456C36.8285 5.79256 36.4325 6.82656 36.0805 7.64056H31.5485C31.3945 6.84856 30.9545 5.77056 30.4265 4.93456H37.0705ZM38.9405 7.64056C39.2925 6.95856 39.6665 6.18856 40.0405 5.37456L38.0165 4.93456H42.5705V2.62456H35.4865C35.2665 1.96456 34.9365 1.21656 34.5625 0.600562L31.8345 1.04056C32.0765 1.50256 32.3405 2.07456 32.5165 2.62456H25.1025V4.93456H29.9425L27.8085 5.35256C28.1605 6.03456 28.4905 6.89256 28.6885 7.64056H23.8705V9.97256H43.6045V7.64056H38.9405Z" fill="#FEFFF9"/>
</svg>
