<svg width="198" height="280" viewBox="0 0 198 280" fill="none" xmlns="http://www.w3.org/2000/svg">
<rect width="198" height="280" rx="30" fill="#F9EEEA"/>
<rect x="19" y="16" width="160" height="248" rx="30" stroke="#E5A29D" stroke-width="5"/>
<path d="M72.7388 102.397C71.4138 103.595 69.7892 104.085 68.1011 103.486C66.8304 103.032 65.7413 102.143 64.7702 101.145C64.7611 102.352 64.5252 103.55 64.38 104.775C64.3346 105.174 63.9715 105.374 63.6357 105.265C63.0004 105.056 62.3833 104.811 61.7933 104.521C61.7933 104.557 61.8024 104.593 61.8024 104.621C62.0838 108.342 62.3197 112.063 62.4286 115.802C62.5738 120.485 62.5557 125.177 62.2199 129.852C61.8932 134.399 61.2851 138.991 59.9781 143.356C58.8981 146.941 57.2554 150.581 54.5054 153.031C52.2727 155.019 49.5409 155.827 46.7637 155.763C48.8602 157.115 51.1927 158.032 53.5434 158.74C56.3024 159.575 59.1522 160.101 62.0021 160.437C67.3568 161.073 72.875 161.136 78.2388 160.265C79.4822 160.065 80.7256 159.911 81.9418 159.566C82.6678 159.357 83.4393 159.085 84.0292 158.559C85.1456 157.56 84.9913 155.736 84.8551 154.311C84.7281 152.986 84.483 151.688 84.3106 150.372C84.0474 148.33 83.8477 146.288 83.5482 144.255C82.9492 140.225 82.1777 136.223 81.3065 132.257C80.8708 130.26 80.3353 128.281 79.9451 126.285C79.5548 124.27 79.2735 122.219 78.983 120.177C78.4022 116.174 77.8758 112.163 77.186 108.187C75.4707 106.536 74.2091 104.285 72.7388 102.397Z" fill="#E5A29D"/>
<path d="M106.492 109.277C103.624 108.188 100.629 107.689 97.5705 107.816C94.4302 107.943 91.3354 108.615 88.2677 109.259C85.0821 109.922 81.8783 110.285 78.6745 110.802C75.8973 111.247 73.0566 111.891 70.6787 113.416C70.1614 115.041 69.6712 116.674 69.2084 118.308C67.2117 125.433 65.7686 132.866 66.1952 140.299C66.5401 146.253 68.0376 153.069 73.2018 156.744C77.4402 159.758 82.922 160.057 87.9228 159.422C89.3205 159.249 90.7001 158.986 92.0705 158.668C94.0218 158.224 96.0276 157.97 98.0061 157.715C102.036 157.198 106.084 156.871 110.113 156.327C112.963 155.937 115.84 155.601 118.636 154.92C121.104 154.321 123.863 153.486 125.633 151.562C127.194 149.856 127.893 147.632 128.256 145.381C128.683 142.749 128.628 140.036 128.365 137.395C127.82 131.904 126.214 126.721 123.001 122.183C118.962 116.493 113.045 111.764 106.492 109.277Z" fill="#F0DDD6"/>
<path d="M92.4698 148.12C91.9343 147.784 91.0177 147.721 90.2916 147.711C89.2207 147.702 88.1406 147.82 87.0878 147.984C85.5358 148.22 83.6753 148.592 82.323 149.136C82.087 149.753 82.0507 150.425 82.6588 150.942C83.285 151.478 84.3106 151.687 85.2182 151.777C87.1967 151.977 89.5202 151.714 91.2083 150.942C92.0069 150.579 92.4698 150.153 92.733 149.499C92.851 149.218 92.9236 148.909 92.851 148.61C92.8056 148.401 92.6695 148.247 92.4698 148.12Z" fill="#EEAE94"/>
<path d="M118.309 123.243C118 122.463 117.701 121.664 117.338 120.911C117.202 120.639 117.057 120.366 116.893 120.112C116.721 119.84 116.839 119.985 116.612 119.767C116.394 119.559 116.566 119.677 116.258 119.522C116.067 119.422 115.868 119.332 115.668 119.259C115.296 119.114 114.452 118.832 113.898 118.633C113.762 118.578 113.626 118.533 113.49 118.479C113.971 121.401 114.089 124.369 113.98 127.327C113.599 137.529 109.923 153.484 98.1333 153.82C99.5128 155.109 101.183 156.044 102.98 156.597C111.747 159.32 125.216 154.256 124.027 143.02C123.981 142.602 124.145 142.303 124.399 142.13C123.464 139.054 122.629 135.931 121.712 132.846C120.75 129.578 119.571 126.411 118.309 123.243Z" fill="#E5A29D" stroke="#E5A29D" stroke-miterlimit="10"/>
<path d="M150.356 143.8C148.123 143.727 146.444 142.266 145.337 140.532C143.866 138.245 143.104 135.55 142.523 132.945C141.135 126.773 140.79 120.447 140.154 114.176C139.955 112.161 139.819 110.037 139.174 108.095C137.876 104.183 136.098 100.362 133.856 96.8591C131.659 93.4284 128.918 90.3063 125.579 87.8286C122.157 85.2964 118.164 83.5447 113.943 82.5918C109.387 81.5571 104.595 81.4664 99.9483 81.8748C95.5193 82.265 90.5457 83.2634 87.36 86.449C87.1604 86.6578 86.8972 86.6396 86.7157 86.5126C82.695 88.6635 77.8485 89.1899 73.7734 91.2592C71.686 92.3211 69.5623 93.265 67.6291 94.581C65.6505 95.9242 63.908 97.5761 62.4377 99.4185C60.4138 101.951 59.0796 104.991 58.4806 108.113C57.9088 111.054 57.9996 114.303 59.4426 117.026C60.9311 119.821 63.6629 121.482 66.785 122.199C66.8304 120.928 66.9393 119.685 66.4492 118.451C66.2405 117.933 66.9756 117.652 67.3477 117.96C68.5276 118.932 69.8527 119.93 71.3865 120.338C73.0202 120.765 74.3725 120.139 75.4162 118.932C75.6068 118.714 75.9698 118.759 76.1695 118.932C77.5672 120.121 78.747 121.518 80.1266 122.725C80.4896 123.043 80.8708 123.352 81.2701 123.633C81.4516 123.642 81.6332 123.733 81.7239 123.932C82.5045 124.422 83.3485 124.795 84.2833 124.958C85.9896 125.248 87.478 124.749 88.7759 123.706C91.3988 121.591 92.8873 118.505 95.4466 116.354C95.6463 116.191 96.0184 116.127 96.1999 116.354C96.7263 116.98 97.2709 117.597 97.8427 118.187C99.9301 120.357 102.417 122.335 105.185 123.669C105.975 124.05 106.801 124.341 107.617 124.677C108.098 124.876 108.48 125.158 108.743 125.593C109.188 126.338 109.423 127.209 109.723 128.007C110.313 129.605 110.803 131.211 111.221 132.863C111.647 134.551 112.037 136.248 112.546 137.909C113.054 139.579 113.716 141.158 114.515 142.71C115.777 145.143 116.975 147.602 118.445 149.935C119.834 152.131 121.522 154.554 124.135 155.535C127.212 156.687 130.679 156.052 133.792 155.371C136.533 154.772 139.274 154.182 141.915 153.257C144.22 152.449 146.498 151.369 148.268 149.726C150.011 148.101 150.982 146.023 151.236 143.754C150.937 143.8 150.646 143.818 150.356 143.8Z" fill="#E5A29D" stroke="#E5A29D" stroke-miterlimit="10"/>
<path d="M66.5762 118.178C67.3658 120.247 69.2536 120.683 70.8328 120.71C72.1034 120.728 73.3922 120.638 74.5629 120.029C75.7337 119.421 76.7775 118.242 77.2131 116.562C76.4326 119.43 74.6628 121.609 72.5662 122.289C71.0233 122.789 69.0267 122.217 68.2734 120.075" fill="#E5A29D"/>
<path d="M65.2599 118.543C65.7863 119.85 66.6394 120.921 67.9554 121.493C69.1535 122.019 70.4513 122.119 71.7401 122.055C73.3737 121.983 74.9348 121.574 76.2326 120.54C77.3762 119.623 78.1477 118.325 78.5288 116.918C78.9917 115.23 76.3779 114.504 75.9059 116.192C75.6064 117.272 75.1889 118.198 74.5355 119.124C74.0726 119.777 73.4191 120.376 72.6658 120.767C72.566 120.821 72.4662 120.866 72.3663 120.912C72.5388 120.839 72.3391 120.921 72.2665 120.939C72.1757 120.966 72.0759 121.003 71.9851 121.021C71.9851 121.021 71.6312 121.093 71.8218 121.066C72.0124 121.039 71.6856 121.075 71.6493 121.075C71.5313 121.084 71.4133 121.075 71.2954 121.075C71.0322 121.075 71.3952 121.102 71.2409 121.075C71.1411 121.057 71.0412 121.039 70.9505 121.012C70.8506 120.984 70.7599 120.948 70.6601 120.921C70.533 120.875 70.7962 121.012 70.5965 120.885C70.5148 120.83 70.415 120.776 70.3243 120.721C70.2153 120.649 70.415 120.821 70.2426 120.658C70.1427 120.567 70.052 120.476 69.9612 120.376C69.8251 120.213 69.9521 120.376 69.8795 120.267C69.7434 120.05 69.6345 119.859 69.58 119.705C69.3259 119.015 68.6543 118.543 67.901 118.752C67.2384 118.933 66.6939 119.732 66.948 120.431C67.4835 121.865 68.4183 122.981 69.8614 123.526C71.0231 123.97 72.3119 123.861 73.4463 123.39C76.1146 122.273 77.7574 119.605 78.5198 116.918C77.6485 116.673 76.7681 116.437 75.8968 116.192C75.6336 117.154 75.198 117.917 74.4084 118.525C74.5445 118.425 74.3267 118.579 74.2813 118.607C74.1815 118.67 74.0817 118.734 73.9818 118.788C73.7731 118.906 73.5643 118.988 73.3284 119.069C72.7929 119.233 72.2756 119.314 71.7219 119.333C71.2228 119.36 70.7145 119.36 70.2063 119.314C70.1246 119.305 70.0429 119.296 69.9612 119.287C70.2607 119.333 69.8614 119.26 69.8341 119.251C69.6436 119.215 69.4711 119.16 69.2805 119.106C69.1988 119.078 69.0082 119.006 69.1898 119.088C69.0899 119.042 68.9992 118.997 68.8993 118.942C68.8086 118.888 68.7178 118.833 68.618 118.779C68.2912 118.579 68.6906 118.861 68.5272 118.715C68.2096 118.434 68.0099 118.198 67.8556 117.817C67.5833 117.136 66.948 116.655 66.1766 116.864C65.5685 117.045 64.9876 117.853 65.2599 118.543Z" fill="#E5A29D"/>
<path d="M94.2124 116.092C98.1967 118.334 102.344 120.294 106.61 121.964C104.704 121.546 102.798 121.12 100.883 120.702C102.898 122.182 105.494 122.853 107.971 122.545" fill="#E5A29D"/>
<path d="M93.5227 117.272C97.6159 119.568 101.872 121.565 106.238 123.28C106.483 122.409 106.719 121.529 106.964 120.657C105.058 120.24 103.152 119.813 101.237 119.396C99.6852 119.051 98.941 120.993 100.184 121.883C102.408 123.48 105.24 124.215 107.962 123.906C108.688 123.825 109.324 123.344 109.324 122.545C109.324 121.873 108.698 121.102 107.962 121.184C105.648 121.447 103.452 120.884 101.555 119.532C101.201 120.358 100.856 121.193 100.502 122.019C102.408 122.436 104.314 122.863 106.229 123.28C107.971 123.661 108.561 121.284 106.955 120.657C102.807 119.024 98.7776 117.1 94.8841 114.921C93.3684 114.059 91.9979 116.41 93.5227 117.272Z" fill="#E5A29D"/>
<path d="M127.366 124.096C127.058 123.316 126.776 122.517 126.413 121.764C126.286 121.491 126.141 121.219 125.978 120.965C125.805 120.693 125.923 120.838 125.705 120.62C125.497 120.411 125.66 120.529 125.36 120.375C125.17 120.275 124.979 120.184 124.789 120.103C124.426 119.958 123.6 119.676 123.064 119.477C122.928 119.422 122.801 119.377 122.665 119.322C123.137 122.245 123.255 125.213 123.155 128.171C122.792 138.373 119.234 154.319 107.744 154.646C109.087 155.934 110.721 156.869 112.464 157.432C121.013 160.164 134.137 155.118 132.966 143.882C132.921 143.464 133.084 143.165 133.329 142.992C132.412 139.915 131.596 136.793 130.697 133.708C129.762 130.422 128.601 127.255 127.366 124.096Z" fill="#E5A29D" stroke="#E5A29D" stroke-miterlimit="10"/>
<path d="M103.315 155.233C117.465 159.163 133.139 157.257 145.945 150.051Z" fill="#E5A29D"/>
<path d="M102.952 156.548C117.528 160.532 133.438 158.59 146.625 151.229C148.159 150.376 146.789 148.026 145.255 148.879C132.694 155.885 117.555 157.719 103.678 153.916C101.981 153.453 101.264 156.085 102.952 156.548Z" fill="#E5A29D"/>
<path d="M94.4847 117.338C94.7207 118.972 96.1638 120.16 97.625 120.914C100.638 122.475 104.223 122.929 107.527 122.148" fill="#E5A29D"/>
<path d="M93.1689 117.7C93.6589 120.532 96.5632 122.12 99.0228 122.992C101.854 123.999 104.958 124.126 107.89 123.464C109.596 123.073 108.879 120.45 107.164 120.841C104.85 121.367 102.435 121.24 100.175 120.514C98.451 119.96 96.1457 118.971 95.7918 116.974C95.6647 116.248 94.7753 115.84 94.1127 116.021C93.3504 116.23 93.0418 116.974 93.1689 117.7Z" fill="#E5A29D"/>
<path d="M124.399 140.715C134.589 140.715 142.85 132.454 142.85 122.264C142.85 112.073 134.589 103.812 124.399 103.812C114.209 103.812 105.948 112.073 105.948 122.264C105.948 132.454 114.209 140.715 124.399 140.715Z" fill="#E9706E"/>
<path d="M119.289 114.32C115.577 116.389 118.054 117.959 118.054 122.388C118.054 126.817 115.568 128.387 119.289 130.457C123.264 132.671 123.264 129.812 127.248 127.598C131.224 125.383 133.974 127.126 133.974 122.388C133.974 117.65 130.833 120.346 127.394 117.287C123.908 114.183 123.264 112.114 119.289 114.32Z" fill="#F9EEEB"/>
<path d="M105.612 131.719C104.759 131.701 103.924 131.474 103.161 131.102C102.354 130.703 101.682 130.131 100.956 129.604C99.4041 128.47 97.5253 127.753 95.6103 127.544C94.6392 127.444 93.659 127.462 92.706 127.653C92.2432 127.744 91.7894 127.862 91.3537 128.025C90.9 128.189 90.3917 128.361 90.0014 128.651C89.9016 128.733 89.7927 128.76 89.6838 128.76C88.6128 129.141 87.5419 129.06 86.4165 128.887C86.1442 128.842 85.8719 128.806 85.5996 128.769C85.4363 128.751 85.2729 128.724 85.1095 128.724C85.1005 128.724 85.0914 128.724 85.0732 128.724C85.164 128.797 85.2548 128.887 85.3546 128.933C86.0262 129.232 86.8521 129.214 87.56 129.405C88.2861 129.604 88.6038 130.031 88.5856 130.793C88.5856 130.966 88.4313 131.556 88.5674 131.683C88.6945 131.81 88.9577 131.628 89.0938 131.556C89.7292 131.229 90.2828 130.748 90.9181 130.43C91.8257 129.986 92.9057 129.768 93.895 129.613C94.9024 129.459 95.928 129.387 96.9445 129.423C97.9701 129.468 98.9956 129.632 99.9305 130.058C100.856 130.485 101.537 131.347 102.472 131.719C102.953 131.91 103.479 131.81 103.978 131.773C104.468 131.746 104.922 131.819 105.403 131.873C106.202 131.973 106.946 131.864 107.609 131.392C107.736 131.302 107.863 131.202 107.963 131.093C107.972 131.084 107.981 131.066 107.999 131.038C107.908 131.075 107.799 131.102 107.708 131.138C107.001 131.456 106.429 131.737 105.612 131.719Z" fill="#5B5B5B"/>
<path d="M96.654 130.622C96.1458 131.366 95.8554 132.301 95.7192 133.19C95.6103 133.925 95.5286 134.824 95.937 135.496L95.9461 135.505C95.9733 135.496 96.0006 135.477 96.0187 135.468C96.4453 135.278 96.9354 134.969 97.4255 135.015C97.9519 135.06 98.2695 135.605 98.088 136.095C97.9156 136.576 97.371 136.848 96.9354 137.057C96.5633 137.229 95.8644 137.411 95.6375 137.683C95.0839 138.345 96.4907 138.291 96.8174 138.137C97.0352 138.028 97.3801 138.082 97.489 138.336C97.725 138.908 97.6433 139.435 97.4255 139.997C97.2258 140.496 96.89 141.023 97.008 141.576C97.244 142.693 98.6053 143.691 99.7398 143.491C100.602 143.337 101.156 142.502 101.51 141.767C101.918 140.914 102.127 139.988 102.281 139.062C102.717 136.503 103.016 133.708 101.201 131.575C100.203 130.404 97.843 128.888 96.654 130.622Z" fill="#5B5B5B" stroke="#5B5B5B" stroke-miterlimit="10"/>
<path opacity="0.5" d="M100.048 139.834C99.3949 139.226 98.4419 139.19 97.6069 139.371C97.5706 139.589 97.5071 139.807 97.4254 140.025C97.2257 140.524 96.8899 141.05 97.0079 141.604C97.2439 142.72 98.6053 143.719 99.7397 143.519C100.52 143.383 101.047 142.684 101.401 142.003C100.793 141.377 100.684 140.424 100.048 139.834Z" fill="#F9EEEB"/>
<path opacity="0.5" d="M100.039 132.136C101.065 132.517 101.682 133.334 102.417 134.06C102.217 133.179 101.845 132.353 101.201 131.6C100.202 130.429 97.8426 128.914 96.6537 130.647C96.2181 131.292 95.9367 132.063 95.7915 132.835C97.1529 132.335 98.5687 131.582 100.039 132.136Z" fill="#F9EEEB"/>
<path d="M76.587 134.533C75.8337 133.679 74.6448 133.117 73.6283 132.654C72.3577 132.064 71.0054 131.628 69.6168 131.465C68.3734 131.32 67.2661 131.556 66.1498 131.973C66.1498 131.973 66.1498 131.973 66.1407 131.973C65.0062 132.772 63.4905 132.681 62.1745 132.872C61.7571 132.935 61.3396 132.99 60.9221 133.044C60.7678 133.062 60.4501 133.144 60.2051 133.171C60.2595 133.226 60.3049 133.28 60.3594 133.307C60.5863 133.443 60.8495 133.516 61.1036 133.561C62.4196 133.816 63.8627 133.616 65.1787 133.425C66.5673 133.217 67.9014 132.563 69.3082 132.509C70.6333 132.454 71.6316 133.108 72.8024 133.616C74.1093 134.197 75.3255 134.905 76.578 135.576C76.6233 135.603 76.9138 135.731 77.1316 135.849C77.1316 135.785 77.1316 135.721 77.1225 135.685C77.059 135.259 76.8775 134.859 76.587 134.533Z" fill="#5B5B5B"/>
<path d="M76.8865 136.474C75.8791 135.294 74.5177 134.124 72.9385 133.851C72.4484 133.77 71.9402 133.779 71.6861 134.26C71.4229 134.759 71.4319 135.412 71.3866 135.966C71.323 136.747 71.1415 138.771 72.4757 138.253C73.347 137.917 74.2908 136.828 75.2983 137.355C75.4979 137.455 75.5978 137.618 75.625 137.799C75.8247 138.044 75.87 138.453 75.5615 138.716C75.0351 139.179 74.3725 139.46 73.7826 139.832C73.3651 140.096 72.4575 140.631 72.63 141.248C72.7661 141.766 73.6192 141.076 73.8915 140.949C74.4179 140.695 75.1258 140.667 75.389 141.303C75.6159 141.856 75.271 142.492 75.0441 142.982C74.7809 143.544 74.4542 144.189 74.4905 144.824C74.5631 146.222 76.9955 146.231 77.8758 145.695C78.5474 145.287 78.6563 144.506 78.6926 143.789C78.7289 142.918 78.7834 142.02 78.7199 141.148C78.6563 140.259 78.5384 139.333 78.2025 138.507C77.894 137.754 77.4129 137.091 76.8865 136.474Z" fill="#5B5B5B" stroke="#5B5B5B" stroke-miterlimit="10"/>
<path opacity="0.5" d="M71.3779 135.576C71.623 135.939 72.2492 135.803 72.6213 135.766C73.0842 135.73 73.5289 135.703 73.9918 135.766C74.618 135.857 75.7707 136.411 76.17 135.739C75.2624 134.841 74.1461 134.06 72.9027 133.851C72.4126 133.77 71.9043 133.779 71.6502 134.26C71.4505 134.641 71.4052 135.113 71.3779 135.558C71.3779 135.567 71.3779 135.567 71.3779 135.576Z" fill="#F9EEEB"/>
<path opacity="0.5" d="M77.1044 142.729C75.979 142.502 75.3255 143.21 74.5995 143.918C74.4996 144.217 74.427 144.517 74.4452 144.825C74.5178 146.223 76.9501 146.232 77.8305 145.697C78.3478 145.379 78.5293 144.843 78.6019 144.281C78.3478 143.555 77.9303 142.892 77.1044 142.729Z" fill="#F9EEEB"/>
</svg>
